<svg width="60" height="87" viewBox="0 0 60 87" fill="none" xmlns="http://www.w3.org/2000/svg">
<g clip-path="url(#clip0_58_6975)">
<path d="M53.6876 77.097L54.0963 76.7663L54.4672 76.4284L54.8227 76.0679L55.1637 75.6869L55.4925 75.2793L55.7861 74.8757C56.2338 74.2569 56.0965 73.3916 55.478 72.9401C54.8615 72.4876 53.9974 72.6231 53.5497 73.2418L53.2987 73.5886L53.0592 73.8854L52.8102 74.1619L52.5536 74.422L52.2916 74.6599L52.0447 74.861L51.4533 75.2763L50.8645 75.6013L50.2422 75.865L49.5925 76.0745L48.9223 76.2242L48.2236 76.3176L47.5054 76.3583L46.7746 76.3452L46.0263 76.2784L45.2713 76.1651L44.5156 76.0026L43.7582 75.7939L43.0069 75.5451L42.2687 75.2556L41.5437 74.9253L40.8366 74.5644L40.1573 74.1732L39.506 73.7518L38.8862 73.3083L38.3071 72.8459L37.7666 72.3607L37.3807 71.9748L36.9853 71.5313L36.5805 71.0303L36.171 70.4819L35.7618 69.8863L35.3508 69.2444L34.9431 68.5614L34.5403 67.8414L34.1416 67.0824L33.7498 66.2904L33.368 65.4666L32.9949 64.614L32.6325 63.7365L32.2839 62.8354L31.9468 61.9116L31.6233 60.969L31.3173 60.011L31.0323 59.0506L30.5023 57.0618L30.0588 55.0626L29.705 53.0392L29.5669 52.0553L29.4576 51.1175L29.7329 51.1955L30.6809 51.3952L31.5938 51.5195L32.4786 51.5776L33.3343 51.5624L34.1509 51.4787L34.9362 51.3327L35.6882 51.1204L36.3948 50.8473L37.0618 50.5208L37.6903 50.1378L38.269 49.711L38.8058 49.2417L39.3016 48.7319L39.7462 48.1914L40.1514 47.6245L40.5144 47.0302L40.8338 46.4164L41.1146 45.7883L41.3568 45.1409L41.5602 44.4843L41.7288 43.8215L41.8605 43.1486L41.9562 42.4775L42.0188 41.8043L42.0485 41.1292L42.0429 40.4629L42.006 39.8037L41.9349 39.1505L41.8293 38.5132L41.6923 37.888L41.5199 37.2768L41.3138 36.6886L41.0731 36.1214L40.7918 35.573L40.4724 35.0596L40.1143 34.5741L39.7071 34.1212L39.2586 33.7173L38.7656 33.3611L38.2221 33.0607L37.6435 32.8334L37.0338 32.6775L36.389 32.5999L35.7338 32.6064L35.0684 32.6918L34.3877 32.8612L33.7018 33.1098L32.8617 33.4992L32.0676 33.9664L31.335 34.4918L30.655 35.0721L30.0303 35.7134L29.4685 36.3999L28.9577 37.1272L28.5006 37.9014L28.0987 38.7095L27.7451 39.5473L27.4395 40.4197L27.1804 41.3177L26.9616 42.2391L26.7852 43.1879L26.6493 44.1551L26.551 45.1396L26.4892 46.1443L26.4738 46.7014L25.9544 46.3625L25.2968 45.8745L24.6593 45.3501L24.0468 44.7892L23.4525 44.1878L22.8771 43.5528L22.3257 42.8844L21.7923 42.1803L21.2767 41.4457L20.782 40.6817L20.3073 39.8861L19.8482 39.0659L19.4098 38.2212L18.9891 37.351L18.5861 36.4602L18.2016 35.5509L17.8346 34.6211L17.4831 33.6767L17.15 32.7188L16.8351 31.7574L16.2399 29.7716L15.7083 27.7686L15.2312 25.7503L14.8012 23.7325L14.4199 21.7292L14.0788 19.7544L13.7737 17.8199L13.5 15.9426L13.2554 14.1386L13.0317 12.4116L12.8272 10.7847L12.7615 10.2652L13.1635 10.6486L13.7466 11.2206L14.3675 11.842L15.0144 12.4983L15.6845 13.1836L16.3691 13.8893L17.7576 15.3266L19.1297 16.7393L20.4217 18.0479L21.0338 18.6559L21.6094 19.2116L22.1435 19.7097L22.6391 20.1513L23.0983 20.5305L23.4753 20.8066C24.1292 21.2814 25.0406 21.1363 25.5093 20.483C25.9801 19.8288 25.8321 18.914 25.1791 18.4412L24.8826 18.2269L24.532 17.9386L24.099 17.5522L23.6059 17.0946L23.0615 16.569L22.4755 15.991L21.1971 14.7008L19.8336 13.3015L18.4359 11.871L17.7404 11.1628L17.0574 10.4712L16.3917 9.8062L15.7482 9.17305L15.1336 8.581L14.5604 8.04652L14.279 7.79049L14.0121 7.55502L13.7568 7.33398L13.5111 7.1283L13.273 6.93895L13.0433 6.76793L12.8173 6.6101L12.587 6.46419L12.3442 6.33396L12.0621 6.21454L11.8385 6.15222L11.462 6.1112L11.458 6.11309L11.4539 6.11497L11.4479 6.11277L11.4419 6.11559L11.4329 6.11229L11.4229 6.11198L10.8646 6.23701L10.5478 6.43094L10.4267 6.53663L10.3443 6.61942L10.2679 6.69939L10.1895 6.78532L10.1057 6.88113L10.0146 6.98775L9.9173 7.10222L9.83448 7.20008L9.7641 7.28224L9.7051 7.35171L9.65746 7.40847L9.62227 7.44955L9.59845 7.47794L9.58803 7.49268L9.4042 7.76616L8.84591 8.86971L8.26852 10.0118L7.6252 11.4744L6.99055 12.9131L6.669 13.6765L6.35788 14.4251L6.05717 15.1591L5.76811 15.8703L5.49598 16.5489L5.24308 17.1838L5.01253 17.7713L4.80865 18.2993L4.63282 18.7549L4.55506 18.9594L4.48597 19.1401L4.4265 19.2989L4.37556 19.439L4.33329 19.5552L4.30077 19.6446C4.04254 20.3638 4.41726 21.1562 5.13515 21.418C5.85304 21.6798 6.64154 21.3068 6.90072 20.5897L6.9289 20.5122L6.96575 20.4109L7.01438 20.2818L7.07169 20.1289L7.13861 19.9542L7.21311 19.7586L7.38475 19.31L7.58538 18.7909L7.81471 18.2114L8.06436 17.5854L8.33324 16.9157L8.61999 16.2155L8.9173 15.4955L9.22504 14.7608L9.53358 14.0331L10.1337 12.6848L10.1435 12.7645L10.3688 14.5056L10.6168 16.3328L10.8956 18.2424L11.2087 20.2153L11.5585 22.2356L11.9533 24.2946L12.3976 26.3751L12.8928 28.4643L13.4481 30.5504L14.0645 32.6033L14.4025 33.6356L14.7561 34.6484L15.1291 35.6498L15.5205 36.6376L15.9332 37.6131L16.3665 38.5691L16.8193 39.5087L17.2986 40.431L17.8006 41.3279L18.3253 42.2045L18.8786 43.0578L19.4568 43.8798L20.0598 44.6754L20.6957 45.4409L21.3596 46.1712L22.0504 46.8691L22.7762 47.531L23.5313 48.1495L24.3176 48.7289L25.1401 49.2643L25.994 49.7503L26.5572 50.0293L26.5726 50.2699L26.6685 51.3278L26.7944 52.3917L26.9499 53.4716L27.3232 55.585L27.7954 57.7047L28.3491 59.7766L28.658 60.8151L28.9816 61.827L29.3237 62.8203L29.6803 63.797L30.0525 64.7541L30.4374 65.6855L30.836 66.5933L31.2453 67.4762L31.6685 68.3254L32.1006 69.1458L32.5425 69.9343L32.9915 70.6849L33.4494 71.4016L33.9165 72.0794L34.3907 72.7142L34.873 73.3081L35.3656 73.8602L35.8695 74.3623L36.5185 74.9434L37.2162 75.5019L37.9498 76.0264L38.7144 76.5217L39.5149 76.983L40.3415 77.4049L41.1902 77.7894L42.0641 78.1324L42.9524 78.4267L43.8548 78.6772L44.7718 78.8739L45.6934 79.0115L46.6196 79.095L47.5516 79.1114L48.4755 79.0572L49.3923 78.9344L50.3033 78.7301L51.1906 78.4427L52.0551 78.0742L52.8952 77.6104L53.6631 77.0761L53.6876 77.097ZM29.4549 44.5069L29.5756 43.6558L29.7294 42.8389L29.9164 42.0511L30.1355 41.2955L30.3866 40.5821L30.6747 39.906L30.9928 39.2681L31.3426 38.6774L31.7304 38.126L32.1501 37.6168L32.6015 37.1549L33.0949 36.7355L33.6241 36.3564L34.1931 36.0257L34.8221 35.7341L35.2409 35.5846L35.617 35.492L35.9597 35.4496L36.2683 35.4453L36.5398 35.4779L36.7974 35.5443L37.0421 35.6415L37.268 35.7672L37.4957 35.9341L37.7195 36.1351L37.9303 36.3718L38.1379 36.6546L38.3344 36.9722L38.514 37.3225L38.6775 37.7124L38.8242 38.13L38.9473 38.5709L39.0485 39.0392L39.1282 39.525L39.1825 40.025L39.2103 40.5422L39.2139 41.0658L39.1893 41.5924L39.1376 42.1243L39.0608 42.6553L38.9573 43.1765L38.8248 43.6937L38.6667 44.198L38.483 44.6845L38.2696 45.155L38.0328 45.6066L37.7728 46.0294L37.4853 46.4302L37.1755 46.8042L36.8435 47.1463L36.4833 47.4595L36.0999 47.7437L35.6935 47.9891L35.2529 48.2032L34.7843 48.3833L34.2876 48.5244L33.747 48.6238L33.1685 48.6839L32.5522 48.6946L31.8854 48.6494L31.177 48.5517L30.4253 48.3924L29.6193 48.164L29.279 48.0467L29.2781 47.2098L29.3036 46.2864L29.3625 45.3871L29.4538 44.5099L29.4549 44.5069Z" fill="black"/>
</g>
<defs>
<clipPath id="clip0_58_6975">
<rect width="82.5186" height="26.8353" fill="white" transform="translate(34.7031 86.1521) rotate(-114.87)"/>
</clipPath>
</defs>
</svg>
