<svg width="66" height="73" viewBox="0 0 66 73" fill="none" xmlns="http://www.w3.org/2000/svg">
<g clip-path="url(#clip0_58_7007)">
<path d="M12.2275 37.4793L12.9384 37.9834L13.7065 38.4191L14.5156 38.7863L15.3614 39.0953L16.247 39.344L17.1599 39.5342L18.0974 39.6751L19.063 39.7619L20.0452 39.798L21.0432 39.7889L22.056 39.733L23.0755 39.6289L24.0994 39.4831L25.1267 39.294L26.1493 39.0603L27.1661 38.7901L28.1741 38.4759L29.1656 38.1234L30.1392 37.7336L31.0924 37.3034L32.0182 36.8358L32.9161 36.3333L33.7813 35.7925L34.6052 35.2147L35.3887 34.604L36.1272 33.9543L36.8109 33.268L37.4419 32.5482L38.012 31.7867L38.4995 31.0114L38.7355 30.5813L38.9419 30.1586L39.1273 29.7296L39.2933 29.2933L39.438 28.8438L39.5586 28.3903L39.6572 27.9289L39.7314 27.4566L39.7801 26.9814L39.8052 26.4996L39.8029 26.0089L39.7736 25.5165L39.7495 25.2893L40.3685 25.5822L41.1498 25.9817L41.9157 26.4047L42.6663 26.8483L43.3991 27.3123L44.1137 27.7992L44.8094 28.3049L45.4818 28.8299L46.1334 29.3775L46.7634 29.9433L47.3675 30.5281L47.9454 31.1345L48.499 31.7587L49.0229 32.3999L49.518 33.0622L49.985 33.7403L50.4197 34.435L50.8228 35.1503L51.1948 35.8837L51.5318 36.6332L51.8346 37.4029L52.1036 38.1902L52.335 38.9931L52.5265 39.8181L52.6814 40.6602L52.7972 41.5191L52.8694 42.398L52.8913 43.1575L52.8653 43.8898L52.7921 44.6088L52.68 45.3129L52.5268 45.9993L52.3328 46.6746L52.1034 47.34L51.8394 47.9899L51.5396 48.6324L51.2097 49.2658L50.85 49.8874L50.4615 50.5014L50.0493 51.1086L49.6143 51.7038L49.1568 52.2939L48.6815 52.8755L48.1908 53.449L47.6911 54.0101L46.6432 55.1364L45.5762 56.2335L45.3033 56.5081L45.0633 55.6107L44.849 54.6175L44.6547 53.5593L44.5663 53.031L44.4828 52.4966L44.404 51.9685L44.3293 51.4493L44.2596 50.9433L44.1953 50.4573L44.1337 49.991L44.0748 49.5539L44.0198 49.1476L43.9671 48.7731L43.9172 48.4375L43.8709 48.1545C43.7636 47.5079 43.1598 47.0574 42.5215 47.1461C41.8829 47.2374 41.4517 47.8347 41.5575 48.4823L41.6011 48.7457L41.6467 49.0532L41.6963 49.4107L41.7497 49.8086L41.8075 50.2441L41.8691 50.7105L41.9353 51.2022L42.0051 51.7178L42.0805 52.2508L42.1598 52.7954L42.246 53.3494L42.3375 53.9139L42.5373 55.021L42.7674 56.1057L43.0244 57.106L43.1743 57.6036L43.3337 58.0631L43.5094 58.4938L43.7059 58.902L43.9378 59.2914L44.2008 59.6341L44.6438 59.9768L44.9999 60.1023L45.2709 60.1437L45.5095 60.1536L45.7423 60.1462L45.9755 60.1264L46.2156 60.0969L46.4693 60.0573L46.7351 60.0088L47.0143 59.953L47.3082 59.8887L47.6208 59.8179L48.2647 59.6603L48.9613 59.476L49.6963 59.2707L50.4583 59.0481L51.2442 58.8103L52.0454 58.5614L53.64 58.0499L55.1851 57.5315L56.5964 57.044L57.2404 56.8166L57.8232 56.6077L58.3376 56.4202L58.782 56.2552L59.1435 56.1173L59.4051 56.012C60.0349 55.7589 60.3273 55.033 60.0598 54.391C59.7923 53.7491 59.0644 53.4352 58.4346 53.6883L58.1947 53.7849L57.8602 53.915L57.4328 54.0747L56.9325 54.2591L56.3623 54.466L55.7339 54.6892L54.3393 55.174L52.8166 55.6879L51.2433 56.203L50.467 56.4506L49.7031 56.6866L48.9658 56.9079L48.2609 57.1128L48.2396 57.1188L48.4609 56.8916L49.5379 55.7319L50.0768 55.1253L50.6016 54.5123L51.1119 53.8859L51.6077 53.2462L52.0867 52.5899L52.5432 51.9189L52.9776 51.2304L53.3876 50.5215L53.766 49.7949L54.1128 49.0507L54.4248 48.2815L54.6958 47.4944L54.9286 46.6873L55.1146 45.8544L55.2499 45.0035L55.3376 44.1323L55.369 43.2352L55.3409 42.324L55.259 41.3202L55.1269 40.334L54.9492 39.3717L54.7281 38.4267L54.4622 37.5003L54.1534 36.5981L53.8062 35.7168L53.4194 34.855L52.9951 34.0183L52.535 33.203L52.0392 32.4091L51.5111 31.6413L50.9527 30.8957L50.3612 30.172L49.7416 29.4738L49.0969 28.7986L48.4234 28.1447L47.7256 27.5182L47.0069 26.9142L46.2631 26.3334L45.4993 25.7793L44.7172 25.2482L43.9143 24.7396L43.0954 24.257L42.2622 23.7995L41.4134 23.3654L40.5513 22.9577L39.6779 22.5729L38.9501 22.2782L38.8204 21.9771L38.568 21.4609L38.2867 20.9468L37.9784 20.4308L37.6378 19.9122L37.2682 19.3955L36.8716 18.8771L36.4412 18.3571L35.9807 17.8375L35.4905 17.3156L34.9664 16.7922L34.4073 16.2657L33.7919 15.7228L33.1468 15.1969L32.4805 14.6962L31.7964 14.2157L31.0929 13.7567L30.375 13.3226L29.6457 12.9113L28.9051 12.5227L28.158 12.1604L27.405 11.8217L26.647 11.5083L25.8724 11.2167L24.9254 10.9194L23.91 10.6915L22.864 10.5364L21.7946 10.4418L20.7036 10.4134L19.6082 10.4459L18.5149 10.5321L17.4285 10.6757L16.3655 10.8765L15.3296 11.1271L14.3284 11.4315L13.4145 11.7752C12.8127 12.0028 12.5214 12.6824 12.7603 13.2948C13.0018 13.9078 13.6837 14.2194 14.2851 13.9945L15.1287 13.676L15.9945 13.4132L16.9087 13.1942L17.8538 13.0174L18.8181 12.889L19.7942 12.8118L20.7664 12.7833L21.7215 12.808L22.6509 12.8901L23.5431 13.0234L24.3772 13.2114L25.1674 13.4604L25.8395 13.7143L26.5278 13.9996L27.2153 14.3094L27.8984 14.6418L28.5731 14.9947L29.2364 15.3703L29.8888 15.766L30.5237 16.1793L31.1408 16.6129L31.7377 17.0637L32.3081 17.5291L32.8564 18.0155L33.3587 18.4901L33.8301 18.9608L34.268 19.4273L34.6766 19.8889L35.0521 20.3436L35.3968 20.7944L35.674 21.1819L35.1649 21.0389L34.2432 20.8048L33.315 20.597L32.3858 20.4163L31.4558 20.2602L30.5236 20.1298L29.5931 20.027L28.6645 19.9492L27.7374 19.899L26.8173 19.8774L25.9018 19.8812L24.9906 19.9131L24.089 19.974L23.1973 20.0612L22.3136 20.1785L21.4381 20.326L20.7182 20.4817L19.9645 20.6934L19.1927 20.9569L18.4066 21.2645L17.608 21.622L16.8088 22.0233L16.0108 22.4644L15.2216 22.9495L14.4527 23.475L13.7045 24.0382L12.986 24.6419L12.3087 25.2827L11.6741 25.9595L11.0925 26.6766L10.5894 27.4082L10.3438 27.8189L10.1294 28.2211L9.93706 28.6311L9.76531 29.05L9.61642 29.481L9.4938 29.9192L9.39594 30.3656L9.32778 30.8238L9.29046 31.2858L9.28244 31.7528L9.30869 32.2283L9.37032 32.7042L9.46317 33.1812L9.59483 33.6634L9.76263 34.1407L9.96353 34.6154L10.204 35.0898L10.4951 35.5823L10.9888 36.2745L11.5812 36.9231L12.2378 37.4934L12.2275 37.4793ZM12.4729 34.2615L12.2902 33.9488L12.1247 33.6211L11.9873 33.2968L11.8751 32.9781L11.7914 32.6696L11.7309 32.361L11.6917 32.0559L11.6762 31.7575L11.6816 31.4558L11.706 31.1545L11.7517 30.8568L11.8183 30.5558L11.9028 30.2537L12.006 29.9547L12.1312 29.6539L12.2743 29.3521L12.4345 29.0544L12.6017 28.7758L13.023 28.1618L13.4938 27.5836L14.0251 27.021L14.6018 26.4755L15.2212 25.9565L15.8775 25.4655L16.5587 25.002L17.2566 24.5742L17.9657 24.1838L18.6753 23.8291L19.3762 23.5168L20.0627 23.2486L20.7254 23.0244L21.3497 22.8498L21.9347 22.7235L22.7205 22.5938L23.5246 22.4892L24.3414 22.4113L25.1684 22.357L26.0028 22.3287L26.8471 22.3266L27.6976 22.3489L28.5527 22.3966L29.4125 22.4697L30.2745 22.5651L31.137 22.6866L32.0015 22.833L32.8641 23.0025L33.7234 23.196L34.5804 23.4152L35.4329 23.6569L36.2768 23.9218L37.1146 24.2103L37.1572 24.227L37.2386 24.5324L37.3229 24.9148L37.385 25.2895L37.4259 25.6606L37.4469 26.027L37.4474 26.3845L37.4277 26.7399L37.3908 27.0911L37.3357 27.4365L37.262 27.7788L37.1722 28.1184L37.0642 28.4522L36.9371 28.7855L36.7956 29.115L36.637 29.4403L36.4718 29.744L36.0598 30.3992L35.5974 31.0144L35.0703 31.6147L34.4899 32.1965L33.8585 32.7533L33.1729 33.2872L32.4459 33.7965L31.678 34.2755L30.8705 34.7261L30.0329 35.1483L29.1701 35.5361L28.2806 35.8907L27.3738 36.2123L26.456 36.4964L25.527 36.743L24.5922 36.9531L23.6589 37.1237L22.7285 37.2537L21.8075 37.3456L20.902 37.3949L20.0147 37.4021L19.1494 37.3691L18.3174 37.2924L17.5161 37.1716L16.7506 37.0103L16.0332 36.8063L15.3614 36.5594L14.7382 36.2768L14.1762 35.9565L13.6678 35.5945L13.2129 35.2005L12.8215 34.7719L12.4687 34.2718L12.4729 34.2615Z" fill="black"/>
</g>
<defs>
<clipPath id="clip0_58_7007">
<rect width="35.4147" height="62.9594" fill="white" transform="translate(0.121094 21.4554) rotate(-36.2562)"/>
</clipPath>
</defs>
</svg>
