<svg width="64" height="76" viewBox="0 0 64 76" fill="none" xmlns="http://www.w3.org/2000/svg">
<path d="M0.474995 71.1214C0.806493 70.6525 1.4441 70.5299 1.90112 70.8515L2.34903 71.1661L2.78945 71.4473L3.23956 71.7105L3.69704 71.9559L4.16161 72.1812L4.63587 72.3885L5.11881 72.579L5.60679 72.7521L6.10446 72.9072L6.60745 73.0472L7.11678 73.1708L7.62028 73.275L8.68471 73.4488L9.7546 73.5589L10.846 73.611L11.9516 73.6123L13.0676 73.5621L14.1944 73.4628L15.3258 73.3224L16.4592 73.139L17.5915 72.9164L18.7199 72.6612L19.8399 72.374L20.9482 72.0588L22.0442 71.7193L23.1211 71.3589L24.177 70.9802L25.2112 70.5893L26.217 70.1872L27.1911 69.778L27.9659 69.4353L28.7262 69.0794L29.473 68.7088L30.2077 68.327L30.9278 67.9319L31.6357 67.5232L32.3303 67.1022L33.0116 66.669L33.6807 66.2221L34.3377 65.7639L34.9805 65.2948L35.6066 64.8151L36.224 64.3118L36.8308 63.8195L38.01 62.7725L39.1344 61.6836L40.2141 60.5563L41.243 59.3902L42.2232 58.1827L43.1592 56.9414L44.046 55.6646L44.886 54.3521L45.6846 53.0101L46.4346 51.6373L47.1396 50.2344L47.8025 48.8056L48.4186 47.3518L48.9921 45.8675L49.2553 45.1212L49.5205 44.3722L49.7631 43.6123L50.0057 42.8523L50.2271 42.0825L50.4494 41.3114L50.6507 40.5327L50.8534 39.755L51.0327 38.97L51.213 38.1838L51.3713 37.3913L51.5306 36.5975L51.6692 35.7984L51.8091 35.0004L51.9259 34.1974L52.045 33.3942L52.1424 32.587L52.2395 31.7775L52.3174 30.9661L52.3967 30.1558L52.4554 29.3425L52.5142 28.5292L52.5515 27.7144L52.5898 26.8982L52.6103 26.0812L52.631 25.2664L52.6316 24.4512L52.6321 23.6359L52.6127 22.8224L52.5931 22.0066L52.5572 21.1932L52.5203 20.3811L52.4647 19.5718L52.4092 18.7626L52.334 17.9574L52.2598 17.1509L52.1684 16.3482L52.0772 15.5478L51.9676 14.7525L51.8581 13.9572L51.7293 13.1684L51.6014 12.3782L51.4565 11.5942L51.3119 10.8125L51.1493 10.0382L50.9885 9.26957L50.6281 7.73458L50.2373 6.22314L49.8126 4.73459L49.7975 4.68694L49.7039 5.06573L49.5067 5.84976L49.4194 6.24187L49.3273 6.65371L49.2329 7.0659L49.1358 7.4761L49.0323 7.88133L48.9194 8.27726L48.7958 8.66291L48.6556 9.03797L48.4945 9.39712L48.306 9.74374L48.0723 10.0793L47.8477 10.322C47.4535 10.7409 46.8082 10.7683 46.404 10.383C45.9998 9.99774 45.9925 9.34644 46.3857 8.92885L46.5018 8.80934L46.5775 8.69939L46.6717 8.52491L46.7719 8.30199L46.8695 8.03668L46.9671 7.73097L47.0623 7.3959L47.1545 7.03514L47.2443 6.65336L47.3334 6.25623L47.4224 5.84842L47.5169 5.41719L47.7165 4.61379L47.9396 3.72846L48.4812 2.3749L48.7394 1.99649L48.7522 1.98506L48.7756 1.96256L48.8118 1.92863L48.8596 1.88228L48.9192 1.82585L48.9903 1.757L49.0743 1.67673L49.1712 1.58503L49.2572 1.50207L49.3327 1.43019L49.3987 1.36805L49.4563 1.3143L49.5087 1.26726L49.5668 1.21818L49.7089 1.11854L50.2097 0.970096L50.2123 0.972084L50.2167 0.96905L50.2193 0.971039L50.2206 0.972034L50.5191 1.0047L50.6366 1.03707L50.785 1.09098L50.9246 1.15093L51.075 1.22118L51.2383 1.30136L51.417 1.39113L51.6113 1.49285L51.8222 1.60514L52.0472 1.72603L52.2888 1.85751L52.5458 1.9986L53.0906 2.30226L53.6831 2.63805L54.3127 2.99799L54.9681 3.37547L55.6453 3.76753L56.3355 4.16951L57.0273 4.57483L57.7191 4.98016L59.0516 5.76872L60.2609 6.48655L60.8056 6.80926L61.2942 7.09756L61.7178 7.34685L61.9047 7.4556L62.0712 7.55313L62.2173 7.63709L62.3431 7.70981L62.4434 7.76733L62.5231 7.81127C63.0376 8.09809 63.2115 8.75779 62.9118 9.285C62.612 9.81221 61.9522 10.007 61.4377 9.72016L61.3491 9.67159L61.2361 9.60648L61.1028 9.53013L60.9515 9.44219L60.7811 9.34168L60.5903 9.22994L60.1651 8.97732L59.675 8.68569L59.1312 8.36164L57.924 7.64113L56.5959 6.84954L55.9095 6.43984L55.2231 6.03015L54.5396 5.62478L53.8691 5.22936L53.2217 4.84949L52.6014 4.48816L52.0208 4.15298L51.8849 4.07463L52.3169 5.59419L52.7194 7.15498L53.0881 8.73032L53.2554 9.53361L53.4221 10.3322L53.5697 11.1396L53.7184 11.9457L53.85 12.7579L53.9819 13.5724L54.0945 14.3934L54.2071 15.2143L54.3013 16.0404L54.3942 16.8655L54.4711 17.6954L54.547 18.5266L54.6043 19.3605L54.6606 20.1958L54.6982 21.0339L54.7346 21.871L54.7534 22.7096L54.7724 23.5504L54.7726 24.3918L54.7728 25.2331L54.7517 26.0752L54.7304 26.9149L54.6902 27.7551L54.6503 28.5977L54.5899 29.4373L54.5285 30.2783L54.4466 31.1165L54.3634 31.9536L54.2621 32.7875L54.1598 33.6227L54.0357 34.454L53.9116 35.2854L53.7657 36.1128L53.6209 36.939L53.4553 37.7599L53.2887 38.5821L53.1011 39.3968L52.9124 40.2128L52.7028 41.0213L52.4929 41.8274L52.2619 42.626L52.03 43.4259L51.7757 44.2173L51.5214 45.0087L51.2435 45.7905L50.9635 46.575L50.3667 48.1115L49.7192 49.6306L49.0237 51.1236L48.2837 52.5911L47.4931 54.0306L46.6535 55.4369L45.768 56.8145L44.83 58.1583L43.8412 59.4634L42.8045 60.734L41.7148 61.9662L40.5735 63.1526L39.3837 64.2999L38.1442 65.3964L37.4887 65.928L36.8451 66.4496L36.1732 66.9622L35.4911 67.4586L34.7967 67.9413L34.089 68.4118L33.3667 68.869L32.6322 69.3126L31.8844 69.7439L31.122 70.162L30.347 70.564L29.5598 70.9525L28.7567 71.3267L27.9411 71.685L26.9342 72.1074L25.8934 72.5231L24.8227 72.9265L23.7269 73.3171L22.6066 73.6911L21.4646 74.0422L20.307 74.3707L19.1318 74.671L17.9455 74.9372L16.7506 75.1715L15.5475 75.3654L14.3414 75.5145L13.135 75.621L11.9284 75.6763L10.7292 75.6736L9.53656 75.6163L8.35171 75.495L7.19921 75.307L6.60838 75.1848L6.03451 75.0459L5.4667 74.8883L4.90496 74.7119L4.34799 74.5158L3.79913 74.2983L3.25737 74.0607L2.72242 73.8007L2.19689 73.5203L1.67948 73.2184L1.1699 72.8929L0.688439 72.5548C0.231695 72.2356 0.129818 71.5948 0.46234 71.1245L0.474995 71.1214Z" fill="black"/>
</svg>
