<svg width="78" height="42" viewBox="0 0 78 42" fill="none" xmlns="http://www.w3.org/2000/svg">
<path d="M9.00117 6.09568L9.12666 6.85829L9.46052 8.27153L9.92924 9.71586L10.4895 11.1303L11.1138 12.5086L11.7838 13.8355L12.4641 15.0774L12.8103 15.6815L13.1448 16.252L13.4715 16.7952L13.7869 17.3103L14.0885 17.7931L14.3806 18.2555L15.4743 19.9204L16.6338 21.5568L17.8446 23.1413L19.1004 24.6779L20.4109 26.1634L21.769 27.5907L23.1737 28.9632L24.628 30.2762L26.1281 31.5232L27.6744 32.7099L29.2686 33.8294L30.9069 34.8753L32.5874 35.8544L34.3176 36.7595L36.0879 37.5846L37.8974 38.3331L39.7549 38.9999L41.6508 39.5791L43.5833 40.0775L45.5586 40.4856L47.5683 40.7997L49.613 41.0254L51.6986 41.1531L53.7946 41.1813L54.7237 41.1661L55.6822 41.1359L56.68 41.0874L57.7102 41.0191L58.7736 40.9275L59.8599 40.8103L60.9622 40.6657L62.0814 40.4905L63.2035 40.2814L64.3286 40.0383L65.4529 39.7551L66.5658 39.4291L67.6654 39.0618L68.7476 38.6469L69.8008 38.1797L70.825 37.6604L71.8137 37.0782L72.7523 36.4336L73.6428 35.725L74.4776 34.9398L75.2137 34.1101L75.5867 33.6281L75.9204 33.1498L76.229 32.6548L76.516 32.1439L76.7796 31.6093L77.0018 31.0944C77.3369 30.3033 76.9732 29.4038 76.1817 29.0811C75.3936 28.7592 74.4795 29.1383 74.1418 29.9252L73.9532 30.3642L73.7617 30.7496L73.5511 31.1234L73.3249 31.4863L73.0828 31.8328L72.8423 32.1433L72.2499 32.815L71.6164 33.4099L70.9155 33.9674L70.1583 34.4864L69.3501 34.9609L68.4892 35.3978L67.5859 35.7994L66.6475 36.1583L65.6746 36.4801L64.6765 36.7706L63.6621 37.0246L62.6324 37.2442L61.5971 37.4351L60.564 37.5956L59.5343 37.7277L58.5175 37.8373L57.5215 37.9226L56.5496 37.9843L55.6058 38.0289L54.7014 38.0552L53.8626 38.0675L51.8716 38.0362L49.9411 37.9097L48.0443 37.6926L46.1819 37.3961L44.3592 37.014L42.5706 36.547L40.8178 36.0027L39.1065 35.3805L37.4296 34.6789L35.7881 33.909L34.1907 33.0655L32.6295 32.1503L31.1062 31.171L29.6253 30.125L28.1854 29.0101L26.783 27.8402L25.4268 26.61L24.1121 25.3165L22.8375 23.9721L21.6095 22.573L20.426 21.1204L19.2852 19.6213L18.1929 18.075L17.135 16.4639L16.8702 16.046L16.5803 15.5823L16.2778 15.0884L15.9667 14.5706L15.6504 14.0298L15.3353 13.4765L14.6905 12.2974L14.0763 11.0762L13.511 9.82809L13.0156 8.57787L12.6197 7.35422L12.3378 6.1423L12.2822 5.79451L12.7152 6.22021L13.2536 6.75033L13.8068 7.29477L14.9321 8.39533L16.0509 9.47071L17.1074 10.4589L17.6155 10.9202L18.0921 11.3395L18.5371 11.717L18.9561 12.0521L19.3582 12.3451L19.6855 12.5498C20.4482 13.0243 21.4618 12.7883 21.9543 12.0262C22.4455 11.2619 22.2265 10.2593 21.4638 9.78489L21.2463 9.65282L20.9908 9.46829L20.6552 9.20158L20.2673 8.87365L19.8323 8.49298L19.3644 8.06832L18.3325 7.10583L17.2336 6.05324L16.1117 4.96805L15.5569 4.43049L15.012 3.90433L14.4843 3.39673L13.9753 2.90979L13.4948 2.45493L13.0455 2.03637L12.6286 1.65625L12.2515 1.32171L11.9233 1.04759L11.7508 0.911321L11.5908 0.790686L11.4256 0.676139L11.2276 0.561301L10.9241 0.42943L10.1786 0.346732L9.60998 0.455934L9.00431 0.713147L8.49765 1.03507L8.0364 1.40205L7.59377 1.81883L7.14557 2.29441L6.3205 3.27476L5.47825 4.39679L4.65463 5.56862L4.24586 6.17162L3.8509 6.76325L3.4676 7.34482L3.0977 7.90945L2.74505 8.44893L2.4101 8.95426L2.09716 9.4228L1.81313 9.84156L1.5606 10.2002L1.34475 10.4927L1.18286 10.6939L1.04382 10.8402C0.456157 11.4712 0.488465 12.4453 1.1151 13.0176C1.74173 13.5899 2.72483 13.5417 3.31249 12.9108L3.53789 12.6678L3.80599 12.3346L4.08141 11.9648L4.36977 11.558L4.67625 11.108L5.00127 10.6204L5.34227 10.1055L5.69708 9.56471L6.06526 9.00696L6.44511 8.43916L6.83144 7.86739L7.21734 7.30463L8.0073 6.19421L8.77532 5.19343L8.92168 5.0251L8.93188 5.35697L9.00635 6.0896L9.00117 6.09568Z" fill="black"/>
</svg>
