<svg width="40" height="40" viewBox="0 0 40 40" fill="none" xmlns="http://www.w3.org/2000/svg">
<path fill-rule="evenodd" clip-rule="evenodd" d="M39.4691 14.9338L36.8128 12.8961C36.7152 12.8217 36.5958 12.7813 36.4731 12.7813C36.3503 12.7813 36.231 12.8217 36.1334 12.8961L33.477 14.9338C33.4089 14.9857 33.3538 15.0527 33.3159 15.1294C33.2779 15.2062 33.2583 15.2906 33.2584 15.3762V38.9279C33.2583 39.0011 33.2727 39.0737 33.3007 39.1414C33.3287 39.2091 33.3698 39.2706 33.4216 39.3225C33.4734 39.3743 33.5349 39.4154 33.6026 39.4434C33.6703 39.4714 33.7429 39.4858 33.8162 39.4857H39.1297C39.203 39.4858 39.2756 39.4714 39.3433 39.4434C39.411 39.4154 39.4725 39.3743 39.5243 39.3225C39.5762 39.2707 39.6172 39.2091 39.6453 39.1414C39.6733 39.0737 39.6876 39.0011 39.6876 38.9279V15.3762C39.6877 15.2906 39.668 15.2062 39.6301 15.1295C39.5922 15.0527 39.5371 14.9858 39.4691 14.9338ZM29.9422 19.6079L27.2859 17.5706C27.1885 17.4957 27.0691 17.4552 26.9462 17.4552C26.8234 17.4552 26.704 17.4957 26.6065 17.5706L23.9505 19.6079C23.8826 19.6601 23.8276 19.7272 23.7897 19.8039C23.7518 19.8807 23.732 19.9652 23.7318 20.0508V38.9277C23.7318 39.0757 23.7906 39.2175 23.8952 39.3221C23.9998 39.4268 24.1417 39.4855 24.2896 39.4855H29.6031C29.6764 39.4856 29.749 39.4712 29.8167 39.4432C29.8844 39.4152 29.9459 39.3741 29.9977 39.3223C30.0495 39.2705 30.0906 39.209 30.1186 39.1413C30.1466 39.0735 30.161 39.001 30.1609 38.9277V20.051C30.1609 19.9654 30.1412 19.8809 30.1034 19.8041C30.0655 19.7272 30.0104 19.6602 29.9425 19.608L29.9422 19.6079ZM20.4169 25.227L17.7606 23.189C17.663 23.1146 17.5437 23.0743 17.421 23.0743C17.2982 23.0743 17.1789 23.1146 17.0813 23.189L14.4249 25.2271C14.3568 25.279 14.3017 25.346 14.2638 25.4227C14.2259 25.4994 14.2062 25.5839 14.2064 25.6695V38.9279C14.2064 39.0758 14.2651 39.2177 14.3697 39.3223C14.4743 39.4269 14.6162 39.4857 14.7642 39.4857H20.0776C20.2255 39.4857 20.3674 39.4269 20.472 39.3223C20.5766 39.2177 20.6354 39.0758 20.6354 38.9279V25.6695C20.6354 25.5839 20.6158 25.4995 20.5779 25.4228C20.54 25.3461 20.485 25.2791 20.417 25.2271L20.4169 25.227ZM10.8907 30.1124L8.23399 28.0751C8.13656 28.0003 8.01717 27.9597 7.89434 27.9597C7.77151 27.9597 7.65212 28.0003 7.55469 28.0751L4.89811 30.1124C4.83028 30.1646 4.77532 30.2317 4.73743 30.3085C4.69954 30.3853 4.67972 30.4697 4.67949 30.5554V38.9277C4.67949 39.0757 4.73826 39.2175 4.84287 39.3221C4.94748 39.4268 5.08937 39.4855 5.23731 39.4855H10.5507C10.624 39.4856 10.6966 39.4712 10.7643 39.4432C10.832 39.4152 10.8935 39.3741 10.9453 39.3223C10.9971 39.2705 11.0382 39.209 11.0662 39.1413C11.0942 39.0735 11.1086 39.001 11.1085 38.9277V30.5554C11.1085 30.4697 11.0888 30.3853 11.0509 30.3085C11.013 30.2317 10.958 30.1646 10.8902 30.1124H10.8907ZM35.6516 7.59686C31.3603 11.2385 26.7417 14.4758 21.8547 17.2677C16.4613 20.3594 10.5222 23.0679 4.20158 25.318C4.06217 25.3677 3.90873 25.3599 3.77502 25.2965C3.64131 25.233 3.53828 25.1191 3.4886 24.9797C3.43892 24.8402 3.44666 24.6868 3.51011 24.5531C3.57356 24.4194 3.68753 24.3164 3.82694 24.2667C15.8667 19.9817 26.3374 14.0773 34.9737 6.70814L33.052 6.60297C32.9042 6.59483 32.7657 6.52833 32.667 6.41809C32.5683 6.30785 32.5174 6.1629 32.5255 6.01514C32.5336 5.86737 32.6001 5.72889 32.7104 5.63015C32.8206 5.53142 32.9656 5.48052 33.1133 5.48866L36.4132 5.66962C36.4895 5.6739 36.564 5.69377 36.6323 5.72802C36.7005 5.76227 36.761 5.81016 36.81 5.86872C36.8591 5.92729 36.8955 5.99529 36.9172 6.06852C36.9389 6.14175 36.9453 6.21864 36.9361 6.29445L36.5336 9.56168C36.5168 9.69667 36.4513 9.82091 36.3495 9.91113C36.2477 10.0013 36.1165 10.0514 35.9804 10.0518C35.9574 10.0518 35.9345 10.0502 35.9117 10.0471C35.839 10.0382 35.7687 10.0151 35.7049 9.97902C35.641 9.94298 35.5849 9.8947 35.5398 9.83696C35.4946 9.77922 35.4613 9.71315 35.4417 9.64252C35.4221 9.57189 35.4166 9.49809 35.4255 9.42534L35.6516 7.59686ZM7.41007 8.27772C8.17779 8.27769 8.92826 8.05 9.56658 7.62346C10.2049 7.19692 10.7024 6.59067 10.9962 5.88138C11.29 5.17209 11.3668 4.39161 11.217 3.63865C11.0672 2.88568 10.6975 2.19404 10.1547 1.65118C9.6118 1.10833 8.92015 0.738641 8.16718 0.588868C7.41421 0.439095 6.63374 0.515964 5.92445 0.809754C5.21517 1.10354 4.60893 1.60106 4.1824 2.23939C3.75587 2.87772 3.5282 3.6282 3.52818 4.39592C3.52916 5.4251 3.93842 6.41184 4.66613 7.1396C5.39384 7.86736 6.38056 8.27668 7.40974 8.27772H7.41007ZM14.0183 16.8254C14.2039 16.6196 14.3422 16.3756 14.4235 16.1107C14.5049 15.8458 14.5273 15.5663 14.4891 15.2918C14.2704 13.5685 13.4306 11.9841 12.1272 10.8357C10.8238 9.68734 9.14634 9.05375 7.40921 9.05375C5.67207 9.05375 3.99458 9.68734 2.6912 10.8357C1.38781 11.9841 0.548036 13.5685 0.329294 15.2918C0.294681 15.5662 0.318842 15.8449 0.400172 16.1093C0.481501 16.3737 0.618139 16.6177 0.801015 16.8253C0.983891 17.0328 1.20882 17.199 1.46087 17.313C1.71292 17.4269 1.98633 17.486 2.26293 17.4861H12.5556C12.8329 17.4893 13.1074 17.4317 13.3601 17.3176C13.6128 17.2035 13.8374 17.0355 14.0183 16.8254Z" fill="#07B5E7"/>
</svg>
