<svg width="44" height="46" viewBox="0 0 44 46" fill="none" xmlns="http://www.w3.org/2000/svg">
<path fill-rule="evenodd" clip-rule="evenodd" d="M32.608 0.00256348C32.4652 0.00277772 32.3283 0.0596662 32.2273 0.160737C32.1264 0.261807 32.0697 0.398798 32.0697 0.541626V3.10954C31.5778 3.2294 31.1404 3.51098 30.8276 3.90912C30.5148 4.30727 30.3448 4.79892 30.3448 5.30523C30.3448 5.81154 30.5148 6.30319 30.8276 6.70134C31.1404 7.09948 31.5778 7.38106 32.0697 7.50092V10.0696C32.0697 10.2125 32.1264 10.3495 32.2273 10.4505C32.3283 10.5516 32.4652 10.6085 32.608 10.6087H35.9264C36.0692 10.6085 36.2061 10.5516 36.307 10.4505C36.4079 10.3495 36.4646 10.2125 36.4646 10.0696C36.4633 9.9135 36.4928 9.75864 36.5517 9.61399C36.6105 9.46934 36.6973 9.33778 36.8073 9.22688C36.9172 9.11599 37.048 9.02797 37.1921 8.9679C37.3363 8.90783 37.4909 8.87691 37.647 8.87691C37.8032 8.87691 37.9578 8.90783 38.1019 8.9679C38.246 9.02797 38.3768 9.11599 38.4868 9.22688C38.5967 9.33778 38.6836 9.46934 38.7424 9.61399C38.8012 9.75864 38.8308 9.9135 38.8294 10.0696C38.8295 10.1407 38.8437 10.211 38.8711 10.2766C38.8984 10.3421 38.9384 10.4016 38.9888 10.4517C39.0392 10.5018 39.099 10.5414 39.1647 10.5684C39.2304 10.5953 39.3008 10.609 39.3719 10.6087H42.6903C42.7633 10.6087 42.8356 10.5937 42.9027 10.5647C42.9697 10.5357 43.0301 10.4933 43.0802 10.4401C43.1308 10.3868 43.1701 10.3238 43.1956 10.2548C43.2211 10.1859 43.2323 10.1125 43.2285 10.0391C43.0749 7.32627 41.889 4.77505 39.9142 2.90878C37.9393 1.04251 35.3252 0.00266965 32.608 0.00256348ZM27.5224 18.4151C27.836 18.4151 28.1367 18.5397 28.3585 18.7615C28.5802 18.9832 28.7048 19.284 28.7048 19.5976C28.7048 19.9112 28.5802 20.2119 28.3585 20.4337C28.1367 20.6554 27.836 20.78 27.5224 20.78C27.3796 20.7802 27.2427 20.8371 27.1417 20.9382C27.0408 21.0393 26.9841 21.1762 26.9841 21.3191V23.822H22.1188C21.9796 23.393 21.7209 23.0125 21.3731 22.7252C20.3037 21.8289 19.4439 20.7089 18.8544 19.4441C18.265 18.1794 17.9602 16.8007 17.9616 15.4053V15.3722H20.284C20.4047 15.8634 20.6865 16.2999 21.0845 16.612C21.4825 16.9241 21.9736 17.0937 22.4794 17.0937C22.9851 17.0937 23.4763 16.9241 23.8743 16.612C24.2722 16.2999 24.5541 15.8634 24.6747 15.3722H26.9844V17.8761C26.9844 18.0189 27.0411 18.1559 27.142 18.257C27.2429 18.358 27.3798 18.4149 27.5227 18.4151H27.5224ZM31.1289 27.6439H23.9158C23.4697 27.6434 23.042 27.4659 22.7266 27.1504C22.4112 26.8348 22.2339 26.4071 22.2336 25.9609V24.9002H32.8156V25.9609C32.8144 26.4076 32.6362 26.8355 32.32 27.1509C32.0038 27.4664 31.5755 27.6437 31.1289 27.6439ZM27.5224 8.88721C27.2088 8.88721 26.908 9.01179 26.6863 9.23354C26.4645 9.45529 26.34 9.75604 26.34 10.0696C26.34 10.3832 26.4645 10.684 26.6863 10.9058C26.908 11.1275 27.2088 11.2521 27.5224 11.2521C27.5931 11.2521 27.6632 11.2661 27.7285 11.2932C27.7938 11.3203 27.8532 11.3601 27.9031 11.4101C27.9531 11.4602 27.9927 11.5196 28.0197 11.585C28.0468 11.6503 28.0606 11.7204 28.0606 11.7911V14.2941H30.3703C30.4909 13.8029 30.7727 13.3664 31.1707 13.0543C31.5687 12.7422 32.0599 12.5725 32.5656 12.5725C33.0714 12.5725 33.5625 12.7422 33.9605 13.0543C34.3585 13.3664 34.6403 13.8029 34.7609 14.2941H37.609C37.7466 14.2947 37.8789 14.3477 37.9789 14.4423C38.0788 14.5369 38.139 14.6661 38.1472 14.8035C38.1557 15.0031 38.1641 15.2053 38.1641 15.4055C38.1648 16.9582 37.8252 18.4922 37.1691 19.8995C36.5131 21.3068 35.5565 22.5532 34.3669 23.551C34.2154 23.674 34.0939 23.8299 34.0117 24.0069C33.9294 24.1838 33.8886 24.3772 33.8922 24.5723V25.9611C33.8914 26.606 33.6651 27.2303 33.2526 27.726C32.8401 28.2217 32.2674 28.5576 31.6334 28.6756C31.5037 29.6742 31.015 30.5914 30.2585 31.2561C29.502 31.9207 28.5295 32.2873 27.5225 32.2873C26.5155 32.2873 25.5429 31.9207 24.7864 31.2561C24.0299 30.5914 23.5412 29.6742 23.4116 28.6756C22.7776 28.5576 22.2048 28.2217 21.7923 27.726C21.3798 27.2303 21.1535 26.606 21.1526 25.9611V24.5722C21.1572 24.377 21.1168 24.1833 21.0345 24.0062C20.9522 23.8291 20.8302 23.6733 20.678 23.5509C19.0074 22.1464 17.8092 20.2622 17.2457 18.1537C16.6822 16.0452 16.7807 13.8144 17.5278 11.7638C18.275 9.71321 19.6347 7.94195 21.4225 6.6902C23.2104 5.43844 25.3399 4.76674 27.5224 4.76617C27.6652 4.76641 27.8021 4.82331 27.903 4.92437C28.0039 5.02544 28.0606 5.16242 28.0606 5.30523V8.34815C28.0606 8.49096 28.0039 8.62794 27.903 8.72901C27.8021 8.83008 27.6652 8.88697 27.5224 8.88721ZM18.5038 32.2915C14.571 31.527 11.6171 32.119 9.71841 34.0516C9.4144 34.3664 9.04763 34.6137 8.6419 34.7776L8.47668 34.845L10.9347 41.125L12.3586 40.4665C12.8433 40.2368 13.3791 40.1362 13.9141 40.1745C15.4398 40.269 18.029 40.8881 20.5382 41.4853C22.1699 41.8751 23.7167 42.2435 24.8822 42.4486C25.262 42.5212 25.6546 42.4842 26.0142 42.3418C32.8459 39.7557 34.8928 37.6879 38.9953 32.4371C39.4063 31.9124 39.1987 31.2666 38.8299 30.8873C38.3807 30.429 37.5586 30.1939 36.5923 30.9105C34.0701 32.7732 31.9637 34.2933 30.5059 35.3372C30.8704 35.7146 31.023 36.1056 30.9594 36.5069C30.7517 37.7838 28.548 38.055 26.7383 38.0567H26.7213C25.1745 38.0567 21.8518 37.7351 19.86 37.5422C19.3175 37.4892 18.8853 37.4477 18.6691 37.4308C18.5296 37.4158 18.4014 37.3469 18.3118 37.2389C18.2222 37.1309 18.1783 36.9922 18.1893 36.8524C18.2003 36.7125 18.2655 36.5824 18.3709 36.4898C18.4764 36.3972 18.6138 36.3493 18.7539 36.3564C18.9785 36.3744 19.415 36.4153 19.966 36.4692C21.8053 36.6471 25.2254 36.9786 26.7213 36.9786H26.7341C29.1921 36.9761 29.8617 36.4603 29.8956 36.3335C29.8999 36.2026 29.4506 35.5529 27.1537 34.7792C25.0262 34.063 22.0214 33.2492 20.0291 32.711C19.368 32.5305 18.8382 32.3876 18.5033 32.2914L18.5038 32.2915ZM8.95132 33.297C8.74834 33.5075 8.5027 33.6722 8.23087 33.7801L8.08254 33.8407L7.913 33.403C7.88693 33.3369 7.84807 33.2766 7.79866 33.2255C7.74925 33.1744 7.69025 33.1336 7.62505 33.1054C7.56045 33.077 7.49086 33.0617 7.4203 33.0604C7.34974 33.0591 7.27962 33.0718 7.21402 33.0978L1.11138 35.4855C0.978813 35.5383 0.872402 35.6413 0.815219 35.772C0.758036 35.9027 0.754691 36.0507 0.805909 36.1839L4.51843 45.6597C4.5434 45.7258 4.58141 45.7861 4.6302 45.8372C4.67899 45.8882 4.73757 45.9289 4.80243 45.9568C4.87048 45.987 4.94408 46.0025 5.0185 46.0026C5.08531 46.0027 5.15152 45.99 5.21346 45.9649L11.3163 43.5768C11.3822 43.5511 11.4425 43.5126 11.4935 43.4636C11.5446 43.4146 11.5855 43.356 11.6138 43.2912C11.6422 43.2263 11.6575 43.1565 11.6589 43.0858C11.6602 43.015 11.6476 42.9447 11.6217 42.8788L11.3293 42.1303L12.8126 41.445C13.1357 41.2901 13.4937 41.2229 13.851 41.2501C15.2795 41.3399 17.8262 41.9472 20.2885 42.5338C21.9371 42.9284 23.4967 43.3 24.6961 43.5102C24.8876 43.5451 25.0819 43.5629 25.2767 43.5632C25.6595 43.5618 26.0388 43.4897 26.3955 43.3505C33.4857 40.6669 35.6045 38.5276 39.847 33.1012C40.5293 32.229 40.4276 30.9818 39.6012 30.1354C38.8129 29.3277 37.3805 28.9854 35.948 30.0439C33.2696 32.0256 31.0573 33.6187 29.5995 34.6608C28.9294 34.2927 28.2254 33.9903 27.4971 33.7577C25.3399 33.0308 22.314 32.2124 20.3137 31.6709C19.6399 31.4873 19.1058 31.3428 18.7795 31.2486C18.7625 31.2447 18.7498 31.2401 18.7329 31.2376C14.4099 30.3931 11.1212 31.0852 8.95132 33.297Z" fill="#07B5E7"/>
</svg>
