<svg width="44" height="44" viewBox="0 0 44 44" fill="none" xmlns="http://www.w3.org/2000/svg">
<g clip-path="url(#clip0_140_4)">
<path d="M9.91806 41.7545C10.4158 41.2568 10.8107 40.6659 11.0801 40.0156C11.3495 39.3654 11.4881 38.6684 11.4882 37.9645C11.4882 37.2606 11.3496 36.5636 11.0803 35.9133C10.811 35.263 10.4162 34.6721 9.91849 34.1744C9.4208 33.6766 8.82995 33.2818 8.17966 33.0124C7.52938 32.743 6.8324 32.6043 6.12852 32.6042C5.42464 32.6042 4.72765 32.7428 4.07733 33.0121C3.42702 33.2815 2.83612 33.6762 2.33838 34.1739C0.84736 35.6641 0.257829 37.9749 0.0730632 40.0675C-0.0327777 41.2514 -0.0258717 42.4427 0.0936882 43.6253C0.125485 43.9218 0.410798 43.9888 0.459782 43.9974H0.474391C0.593844 43.9974 2.30658 44.0361 2.83423 42.3646C2.929 42.053 3.06822 41.7566 3.24759 41.4846C3.32195 41.3774 3.43034 41.2984 3.55519 41.2605C3.68004 41.2226 3.81404 41.2279 3.93548 41.2756C4.05692 41.3234 4.15869 41.4107 4.22428 41.5235C4.28988 41.6363 4.31546 41.768 4.29689 41.8971C4.21118 42.532 4.34294 43.1772 4.67072 43.7276C4.70654 43.7889 4.75992 43.838 4.82395 43.8687C4.88799 43.8993 4.95974 43.91 5.02994 43.8995C6.82431 43.6245 8.66166 43.0109 9.91806 41.7545Z" fill="#07B5E7"/>
<path d="M43.9579 4.02016C43.8282 1.77805 42.222 0.17188 39.9799 0.0421147C32.3641 -0.411635 23.8769 2.8179 17.258 9.4368L15.4928 11.202C14.8563 11.8379 14.2519 12.4904 13.6796 13.1596H8.11425C6.93261 13.2052 5.88761 13.8866 5.29636 14.887L2.02472 21.4311C1.93734 21.666 1.87624 21.9098 1.84253 22.1581C1.84768 22.5791 2.01751 22.9814 2.31564 23.2787C2.61377 23.5761 3.01649 23.7448 3.43753 23.7488H7.5694C7.03315 25.5535 7.39065 27.3298 8.53792 28.4754L15.5238 35.4613C16.6702 36.6085 18.4457 36.966 20.2503 36.4298V40.5659C20.2555 40.9862 20.4247 41.3879 20.7219 41.6851C21.0191 41.9823 21.4208 42.1515 21.841 42.1566C22.0894 42.1229 22.3332 42.0618 22.5681 41.9745L29.1122 38.7028C30.1125 38.1116 30.794 37.07 30.8396 35.8849V30.3205C31.507 29.7476 32.1596 29.1431 32.7972 28.5072L34.5624 26.742C41.1821 20.1231 44.4117 11.6359 43.9579 4.02016ZM34.6853 17.2812C33.8975 18.069 32.8937 18.6055 31.801 18.8229C30.7082 19.0403 29.5756 18.9288 28.5462 18.5024C27.5169 18.076 26.6371 17.354 26.0181 16.4276C25.3991 15.5013 25.0687 14.4121 25.0687 13.298C25.0687 12.1838 25.3991 11.0947 26.0181 10.1683C26.6371 9.24193 27.5169 8.51991 28.5462 8.09355C29.5756 7.66719 30.7082 7.55565 31.801 7.77303C32.8937 7.9904 33.8975 8.52693 34.6853 9.31477C35.7416 10.3712 36.3351 11.804 36.3351 13.298C36.3351 14.792 35.7416 16.2248 34.6853 17.2812Z" fill="#07B5E7"/>
<path d="M6.79936 8.78454C6.49231 8.47738 6.31982 8.06084 6.31982 7.62653C6.31982 7.19222 6.49231 6.77568 6.79936 6.46852L11.0412 2.22665C11.3489 1.91895 11.7663 1.74609 12.2014 1.74609C12.6365 1.74609 13.0539 1.91895 13.3616 2.22665C13.6692 2.53434 13.8421 2.95166 13.8421 3.3868C13.8421 3.82195 13.6692 4.23927 13.3616 4.54696L9.11968 8.78883C8.96722 8.94123 8.78619 9.06204 8.58695 9.14433C8.38771 9.22662 8.17419 9.26878 7.95863 9.26838C7.74306 9.26798 7.5297 9.22503 7.33077 9.142C7.13184 9.05898 6.95125 8.9375 6.79936 8.78454Z" fill="#07B5E7"/>
<path d="M0.650675 7.8126C0.344675 7.50558 0.172852 7.08978 0.172852 6.65631C0.172852 6.22284 0.344675 5.80704 0.650675 5.50002L2.82575 3.3215C3.13484 3.024 3.5483 2.85963 3.97729 2.86372C4.40627 2.86782 4.81652 3.04005 5.11987 3.3434C5.42322 3.64675 5.59545 4.057 5.59955 4.48598C5.60364 4.91497 5.43927 5.32843 5.14177 5.63752L2.96669 7.8126C2.81494 7.96525 2.63452 8.08639 2.43578 8.16906C2.23704 8.25172 2.02393 8.29428 1.80868 8.29428C1.59344 8.29428 1.38032 8.25172 1.18159 8.16906C0.98285 8.08639 0.80242 7.96525 0.650675 7.8126Z" fill="#07B5E7"/>
<path d="M35.0771 37.0614C34.9245 36.9096 34.8033 36.7292 34.7207 36.5305C34.638 36.3317 34.5955 36.1186 34.5955 35.9034C34.5955 35.6881 34.638 35.475 34.7207 35.2763C34.8033 35.0775 34.9245 34.8971 35.0771 34.7454L39.3182 30.5078C39.6253 30.2001 40.0421 30.027 40.4768 30.0266C40.9115 30.0262 41.3286 30.1985 41.6363 30.5056C41.944 30.8128 42.1171 31.2295 42.1175 31.6643C42.1179 32.099 41.9456 32.5161 41.6385 32.8238L37.3975 37.0657C37.245 37.2181 37.064 37.3389 36.8647 37.4212C36.6655 37.5035 36.452 37.5456 36.2364 37.5452C36.0208 37.5448 35.8075 37.5019 35.6086 37.4189C35.4096 37.3358 35.229 37.2144 35.0771 37.0614Z" fill="#07B5E7"/>
<path d="M36.0481 43.2102C35.7411 42.903 35.5686 42.4865 35.5686 42.0522C35.5686 41.6179 35.7411 41.2013 36.0481 40.8942L38.2232 38.7191C38.3753 38.5667 38.5559 38.4458 38.7547 38.3633C38.9535 38.2807 39.1666 38.2381 39.3819 38.2379C39.5971 38.2377 39.8103 38.2799 40.0093 38.3621C40.2082 38.4443 40.389 38.5649 40.5414 38.7169C40.6937 38.869 40.8146 39.0496 40.8972 39.2484C40.9798 39.4472 41.0224 39.6603 41.0226 39.8756C41.0228 40.0908 40.9806 40.304 40.8984 40.503C40.8162 40.7019 40.6956 40.8828 40.5435 41.0351L38.3685 43.2102C38.2163 43.363 38.0355 43.4842 37.8365 43.5669C37.6374 43.6497 37.4239 43.6922 37.2083 43.6922C36.9927 43.6922 36.7792 43.6497 36.5801 43.5669C36.381 43.4842 36.2003 43.363 36.0481 43.2102Z" fill="#07B5E7"/>
</g>
<defs>
<clipPath id="clip0_140_4">
<rect width="44" height="44" fill="white"/>
</clipPath>
</defs>
</svg>
