<svg width="128" height="42" viewBox="0 0 128 42" fill="none" xmlns="http://www.w3.org/2000/svg">
<path d="M55.8426 0L55.8471 34.0279C56.2259 37.3343 52.4701 42 49.109 42H0V6.5654C0 3.7565 4.0251 0 6.84313 0H55.8426ZM22.6651 11.5024H8.75984V13.565H14.4529V30.1696H16.972V13.565H22.6651V11.5024ZM32.6298 30.1696C31.8311 25.0064 34.9572 15.9465 26.5488 16.4915C25.9167 16.5322 23.1922 17.118 22.9047 17.602C22.7336 17.8892 23.3428 18.8368 23.3246 19.2099C23.4227 19.2982 24.4586 18.7395 24.6868 18.6626C25.9213 18.2533 28.1689 18.0271 29.1797 18.9928C29.6794 19.47 30.2019 20.8745 29.9852 21.5281C29.8779 21.847 28.4746 21.6728 28.0867 21.7067C24.7165 22.003 20.9264 23.8168 22.0148 27.8311C22.9595 31.3185 28.2852 31.2326 30.1654 28.5435L30.4392 30.1719H32.6298V30.1696ZM37.611 16.8217H34.9276L39.4044 23.2944L34.7085 30.1696H37.4467L40.6777 24.9589L40.9333 25.1398L44.1255 30.1696H46.8637L42.3617 23.2786L46.7541 16.8217H44.1255L41.004 21.8153L40.7507 21.6344L37.611 16.824V16.8217Z" fill="#1CB0E7"/>
<path d="M65.3463 10.1251C66.8842 10.0143 68.5682 10.3309 69.9304 11.0501C70.2202 11.2039 71.304 11.8666 71.3748 12.1244C71.4524 12.4093 70.7861 13.712 70.5123 13.8341C69.8323 14.1395 69.1227 13.2982 68.5066 13.0041C66.1677 11.8869 62.2248 12.3392 62.2932 15.5756C62.348 18.2284 67.0029 18.8074 68.9447 19.7346C71.8859 21.1391 72.6435 23.9389 71.409 26.8813C69.8232 30.6626 64.7986 31.2914 61.3873 29.7218C60.8945 29.4957 58.9207 28.3377 58.9093 27.8402C58.9047 27.6434 59.7604 26.3498 59.9703 26.2865C60.7484 26.0558 61.6406 27.0984 62.3388 27.4761C64.4837 28.6363 68.0913 28.6136 69.0656 25.9676C71.0781 20.5126 61.9601 22.1681 60.1278 17.8372C58.5009 13.9902 61.3645 10.4124 65.3463 10.1251Z" fill="#26B1E7"/>
<path d="M84.7484 30.2782H82.4484L82.1746 28.6498C80.3628 31.4406 74.6218 31.3004 73.9578 27.6796C73.0702 22.8443 78.2156 21.5349 82.0103 21.7067C82.1814 18.9046 80.2533 18 77.7136 18.4795C76.842 18.6446 76.1529 19.0675 75.3314 19.3185L74.9047 17.5952C78.834 15.6118 84.1209 15.8899 84.5248 21.2182C84.7484 24.1787 84.2327 27.3155 84.7461 30.2782H84.7484ZM82.1198 23.4414H80.2031C79.4866 23.4414 77.9327 23.9706 77.36 24.4207C75.8357 25.6193 76.0936 28.3536 78.1723 28.7109C79.5368 28.9461 81.02 28.2925 81.7022 27.0984C81.8049 26.9197 82.1198 26.2503 82.1198 26.101V23.4414Z" fill="#26B1E7"/>
<path d="M116.995 16.6046C117.084 16.6295 117.337 16.9597 117.401 17.0705C118.499 20.049 120.082 22.9484 121.187 25.9065C121.269 26.1282 121.337 26.3453 121.321 26.5873C121.485 26.5601 121.533 26.3882 121.593 26.2616C122.989 23.3735 123.968 19.9992 125.349 17.0682C125.387 16.9212 125.766 16.6023 125.864 16.6023H128C127.989 16.928 127.811 17.2424 127.69 17.5432C125.426 23.1587 122.695 28.6046 120.431 34.2247C120.383 34.4305 119.9 34.9438 119.733 34.9438H117.707C118.321 33.0441 119.496 31.2936 120.094 29.3803L114.583 16.9325L114.533 16.6023C115.183 16.7177 116.431 16.4463 116.997 16.6023L116.995 16.6046Z" fill="#26B1E7"/>
<path d="M89.182 16.8217L93.0154 27.6751L96.8465 16.8217H99.4204L94.1495 30.2646L91.806 30.285L86.6104 16.8217H89.182Z" fill="#26B1E7"/>
<path d="M102.98 16.8217L106.811 27.6751L110.59 16.8217H113.216L107.801 30.2872L105.454 30.2669L100.406 16.8217H102.98Z" fill="#26B1E7"/>
<path d="M32.6298 30.1696H30.4392L30.1654 28.5413C28.2852 31.2303 22.9595 31.3162 22.0148 27.8289C20.9264 23.8145 24.7165 22.0008 28.0867 21.7045C28.4746 21.6706 29.8802 21.8447 29.9852 21.5258C30.2019 20.8722 29.6771 19.4678 29.1797 18.9906C28.1688 18.0249 25.919 18.2488 24.6868 18.6604C24.4586 18.7373 23.4227 19.2959 23.3246 19.2077C23.3428 18.8345 22.7336 17.8869 22.9047 17.5997C23.1922 17.118 25.9167 16.53 26.5488 16.4893C34.9572 15.9465 31.8334 25.0064 32.6298 30.1674V30.1696ZM30.1107 23.3328H28.413C27.6942 23.3328 26.008 23.8394 25.4079 24.2623C23.4227 25.66 24.1985 28.8059 26.7633 28.7629C28.1689 28.7403 30.1084 27.3517 30.1084 25.8839V23.3328H30.1107Z" fill="white"/>
<path d="M22.6651 11.5024V13.565H16.972V30.1696H14.4529V13.565H8.75984V11.5024H22.6651Z" fill="white"/>
<path d="M37.611 16.8217L40.7507 21.6321L41.004 21.8153L44.1255 16.8217H46.7541L42.3617 23.2786L46.8637 30.1696H44.1255L40.9333 25.1398L40.6777 24.9589L37.4467 30.1696H34.7085L39.4067 23.2944L34.9276 16.8217H37.611Z" fill="white"/>
<path d="M30.1107 23.3328V25.8839C30.1107 27.3517 28.1711 28.7403 26.7655 28.7629C24.1985 28.8059 23.425 25.66 25.4102 24.2623C26.0103 23.8394 27.6942 23.3328 28.4153 23.3328H30.1129H30.1107Z" fill="#26B1E7"/>
</svg>
