<svg width="31" height="22" viewBox="0 0 31 22" fill="none" xmlns="http://www.w3.org/2000/svg">
<g clip-path="url(#clip0_43_1659)">
<path d="M30.2201 0.519045C29.3422 1.44508 28.6607 2.22302 27.9184 2.93673C24.7888 5.94678 21.6699 8.97111 18.4903 11.9259C15.88 14.3525 14.9093 14.356 12.3025 11.9223C8.47525 8.35019 4.7158 4.70672 0.929587 1.09001C0.827884 0.991876 0.745808 0.87233 0.483521 0.560084C1.18117 0.347756 1.745 0.026588 2.31061 0.0248037C11.0267 -0.0073131 19.7411 -0.0073131 28.4572 0.0230194C29.0211 0.0248037 29.5849 0.333482 30.2201 0.519045Z" fill="#666363"/>
<path d="M30.1362 21.538C29.5581 21.6914 28.9783 21.9769 28.4002 21.9787C19.7215 22.0072 11.0428 22.0072 2.36593 21.9769C1.7914 21.9751 1.21686 21.6718 0.390747 21.438C3.92359 18.0569 7.23698 14.8898 10.5789 11.6924C11.38 12.3668 12.1027 13.0217 12.8735 13.614C14.6952 15.0147 16.053 15.0307 17.8855 13.6551C18.667 13.0681 19.3878 12.4007 20.2264 11.6942C23.5291 14.8523 26.8425 18.0194 30.1559 21.1847C30.1487 21.3024 30.1416 21.4202 30.1362 21.538Z" fill="#666363"/>
<path d="M30.8232 1.47542V20.5117C27.426 17.2644 24.1947 14.1776 20.8706 11.0016C24.1626 7.8506 27.4046 4.74598 30.8232 1.47363V1.47542Z" fill="#666363"/>
<path d="M0 20.5031V1.50244C3.40081 4.75159 6.6339 7.83837 9.94015 10.9965C6.6678 14.1279 3.43828 17.2147 0 20.5031Z" fill="#666363"/>
</g>
<defs>
<clipPath id="clip0_43_1659">
<rect width="30.8232" height="22" fill="white"/>
</clipPath>
</defs>
</svg>
