<svg width="49" height="48" viewBox="0 0 49 48" fill="none" xmlns="http://www.w3.org/2000/svg">
<path d="M38.5 8.5H10.5C9.04172 8.50132 7.64354 9.08121 6.61237 10.1124C5.58121 11.1435 5.00132 12.5417 5 14V34C5 37.034 7.466 39.5 10.5 39.5H38.5C41.534 39.5 44 37.034 44 34V14C44 10.966 41.534 8.5 38.5 8.5ZM10.5 11.5H38.5C39.878 11.5 41 12.622 41 14V18.5H8V14C8 12.622 9.122 11.5 10.5 11.5ZM38.5 36.5H10.5C9.8372 36.4992 9.20178 36.2356 8.73311 35.7669C8.26444 35.2982 8.00079 34.6628 8 34V21.5H41V34C41 35.378 39.878 36.5 38.5 36.5Z" fill="#01081B"/>
<path d="M18 32C18 32.3978 17.842 32.7794 17.5607 33.0607C17.2794 33.342 16.8978 33.5 16.5 33.5H12.5C12.1022 33.5 11.7206 33.342 11.4393 33.0607C11.158 32.7794 11 32.3978 11 32C11 31.6022 11.158 31.2206 11.4393 30.9393C11.7206 30.658 12.1022 30.5 12.5 30.5H16.5C16.8978 30.5 17.2794 30.658 17.5607 30.9393C17.842 31.2206 18 31.6022 18 32ZM26.5 30.5H22.5C22.1022 30.5 21.7206 30.658 21.4393 30.9393C21.158 31.2206 21 31.6022 21 32C21 32.3978 21.158 32.7794 21.4393 33.0607C21.7206 33.342 22.1022 33.5 22.5 33.5H26.5C26.8978 33.5 27.2794 33.342 27.5607 33.0607C27.842 32.7794 28 32.3978 28 32C28 31.6022 27.842 31.2206 27.5607 30.9393C27.2794 30.658 26.8978 30.5 26.5 30.5Z" fill="#2E68FD"/>
</svg>
