<svg width="48" height="48" viewBox="0 0 48 48" fill="none" xmlns="http://www.w3.org/2000/svg">
<path d="M43.136 26.514L40.274 16.478C39.9401 15.3333 39.2449 14.3274 38.2922 13.6104C37.3395 12.8934 36.1804 12.5039 34.988 12.5H31.998C31.6002 12.5 31.2186 12.658 30.9373 12.9393C30.656 13.2206 30.498 13.6022 30.498 14C30.498 14.3978 30.656 14.7794 30.9373 15.0607C31.2186 15.342 31.6002 15.5 31.998 15.5H34.988C36.096 15.5 37.084 16.244 37.39 17.304L39.442 24.5H34C32.07 24.5 30.5 26.07 30.5 28C30.5 29.378 29.378 30.5 28 30.5H20C19.3372 30.4992 18.7018 30.2356 18.2331 29.7669C17.7644 29.2982 17.5008 28.6628 17.5 28C17.5 26.07 15.93 24.5 14 24.5H8.558L10.608 17.308C10.7594 16.7876 11.0752 16.3303 11.5082 16.0044C11.9412 15.6785 12.4681 15.5015 13.01 15.5H16C16.3978 15.5 16.7794 15.342 17.0607 15.0607C17.342 14.7794 17.5 14.3978 17.5 14C17.5 13.6022 17.342 13.2206 17.0607 12.9393C16.7794 12.658 16.3978 12.5 16 12.5H13.01C11.8171 12.504 10.6575 12.894 9.70468 13.6118C8.75186 14.3296 8.05699 15.3365 7.724 16.482L4.864 26.514C4.62238 27.3609 4.49987 28.2373 4.5 29.118V38C4.5 41.034 6.966 43.5 10 43.5H38C41.034 43.5 43.5 41.034 43.5 38V29.118C43.5 28.238 43.378 27.362 43.136 26.514ZM40.5 38C40.5 39.378 39.378 40.5 38 40.5H10C9.3372 40.4992 8.70178 40.2356 8.23311 39.7669C7.76444 39.2982 7.50079 38.6628 7.5 38V29.118C7.5 28.616 7.572 28.118 7.686 27.63C7.77151 27.5501 7.88306 27.504 8 27.5H14C14.1326 27.5 14.2598 27.5527 14.3536 27.6464C14.4473 27.7402 14.5 27.8674 14.5 28C14.5 31.034 16.966 33.5 20 33.5H28C31.034 33.5 33.5 31.034 33.5 28C33.5 27.8674 33.5527 27.7402 33.6464 27.6464C33.7402 27.5527 33.8674 27.5 34 27.5H40C40.122 27.5 40.226 27.556 40.314 27.63C40.428 28.118 40.5 28.616 40.5 29.118V38Z" fill="#01081B"/>
<path d="M29.052 18.872C28.9117 18.7335 28.7455 18.6241 28.5629 18.5499C28.3802 18.4758 28.1848 18.4384 27.9877 18.4399C27.7906 18.4414 27.5957 18.4817 27.4142 18.5586C27.2327 18.6355 27.0682 18.7474 26.93 18.888L25.498 20.342V6C25.498 5.60218 25.34 5.22064 25.0587 4.93934C24.7774 4.65804 24.3958 4.5 23.998 4.5C23.6002 4.5 23.2186 4.65804 22.9373 4.93934C22.656 5.22064 22.498 5.60218 22.498 6V20.398L21.054 18.966C20.7715 18.6857 20.3893 18.529 19.9913 18.5305C19.5934 18.532 19.2123 18.6915 18.932 18.974C18.6517 19.2565 18.495 19.6387 18.4965 20.0367C18.498 20.4346 18.6575 20.8157 18.94 21.096L22.94 25.066C23.2207 25.3449 23.6003 25.5017 23.996 25.502H24.004C24.404 25.502 24.786 25.338 25.064 25.054L29.064 20.994C29.2023 20.8537 29.3117 20.6874 29.3857 20.5048C29.4598 20.3222 29.4972 20.1268 29.4957 19.9297C29.4942 19.7326 29.4539 19.5378 29.3771 19.3563C29.3003 19.1748 29.1884 19.0102 29.048 18.872H29.052Z" fill="#2E68FD"/>
</svg>
