<svg width="48" height="48" viewBox="0 0 48 48" fill="none" xmlns="http://www.w3.org/2000/svg">
<path d="M41.386 35.426C41.2722 35.152 41.0799 34.9179 40.8332 34.7531C40.5866 34.5883 40.2966 34.5002 40 34.5H8C7.60218 34.5 7.22064 34.658 6.93934 34.9393C6.65804 35.2206 6.5 35.6022 6.5 36C6.5 36.3978 6.65804 36.7794 6.93934 37.0607C7.22064 37.342 7.60218 37.5 8 37.5H36.378L32.938 40.94C32.6646 41.2228 32.5133 41.6016 32.5165 41.9949C32.5197 42.3882 32.6773 42.7645 32.9553 43.0427C33.2333 43.321 33.6094 43.4789 34.0027 43.4825C34.396 43.4861 34.775 43.3351 35.058 43.062L41.058 37.062C41.486 36.632 41.616 35.988 41.384 35.428L41.386 35.426Z" fill="#2E68FD"/>
<path d="M38 4.5H10C8.54172 4.50132 7.14354 5.08121 6.11237 6.11237C5.08121 7.14354 4.50132 8.54172 4.5 10V26C4.5 29.034 6.966 31.5 10 31.5H38C41.034 31.5 43.5 29.034 43.5 26V10C43.5 6.966 41.034 4.5 38 4.5ZM40.5 26C40.5 27.378 39.378 28.5 38 28.5H10C9.3372 28.4992 8.70178 28.2356 8.23311 27.7669C7.76444 27.2982 7.50079 26.6628 7.5 26V10C7.5 8.622 8.622 7.5 10 7.5H38C39.378 7.5 40.5 8.622 40.5 10V26ZM15.5 12C15.5 12.3978 15.342 12.7794 15.0607 13.0607C14.7794 13.342 14.3978 13.5 14 13.5H12C11.6022 13.5 11.2206 13.342 10.9393 13.0607C10.658 12.7794 10.5 12.3978 10.5 12C10.5 11.6022 10.658 11.2206 10.9393 10.9393C11.2206 10.658 11.6022 10.5 12 10.5H14C14.3978 10.5 14.7794 10.658 15.0607 10.9393C15.342 11.2206 15.5 11.6022 15.5 12ZM37.5 24C37.5 24.3978 37.342 24.7794 37.0607 25.0607C36.7794 25.342 36.3978 25.5 36 25.5H34C33.6022 25.5 33.2206 25.342 32.9393 25.0607C32.658 24.7794 32.5 24.3978 32.5 24C32.5 23.6022 32.658 23.2206 32.9393 22.9393C33.2206 22.658 33.6022 22.5 34 22.5H36C36.3978 22.5 36.7794 22.658 37.0607 22.9393C37.342 23.2206 37.5 23.6022 37.5 24ZM24 10.5C19.864 10.5 16.5 13.864 16.5 18C16.5 22.136 19.864 25.5 24 25.5C28.136 25.5 31.5 22.136 31.5 18C31.5 13.864 28.136 10.5 24 10.5ZM24 22.5C22.8069 22.4989 21.6629 22.0245 20.8192 21.1808C19.9755 20.3371 19.5011 19.1931 19.5 18C19.5 15.518 21.518 13.5 24 13.5C26.482 13.5 28.5 15.518 28.5 18C28.5 20.482 26.482 22.5 24 22.5Z" fill="#01081B"/>
</svg>
