<svg width="54" height="54" viewBox="0 0 54 54" fill="none" xmlns="http://www.w3.org/2000/svg">
<circle cx="27" cy="27" r="26.5" fill="white" stroke="#E4E4E4"/>
<path d="M23.0328 30.6143C24.0036 31.4639 24.496 32.5488 24.496 33.8435V35.8876C24.496 37.2549 25.6084 38.3673 26.9757 38.3673H27.5508C28.9182 38.3673 30.0306 37.2549 30.0306 35.8876V35.0176C30.0306 34.9182 29.9965 34.8216 29.934 34.7446L29.0975 33.7055L29.1912 32.5604C29.6784 32.4246 30.1461 32.2307 30.5876 31.9816L31.5969 32.8378C31.7697 32.9844 32.0268 32.9743 32.1865 32.8138L33.8123 31.188C33.9728 31.0275 33.983 30.7712 33.8363 30.5983L32.9802 29.589C33.2293 29.1475 33.4231 28.6799 33.5589 28.1926L34.8776 28.0844C35.1034 28.0663 35.2777 27.8768 35.2777 27.6502V25.3512C35.2777 25.1247 35.1034 24.9359 34.8776 24.917L33.5589 24.8088C33.4231 24.3216 33.2293 23.8539 32.9802 23.4124L33.8363 22.4031C33.983 22.2303 33.9728 21.9732 33.8123 21.8135L32.1865 20.1877C32.026 20.0272 31.7697 20.017 31.5969 20.1637L30.5876 21.0198C30.1461 20.7707 29.6792 20.5769 29.1912 20.4411L29.083 19.1224C29.0648 18.8966 28.8753 18.7223 28.6488 18.7223H27.5C23.7589 18.7223 20.7149 21.7663 20.7149 25.5074C20.7149 27.4629 21.5594 29.3247 23.0328 30.6143ZM27.5516 37.496H26.9765C26.2409 37.496 25.6186 36.9993 25.4283 36.3232H29.0997C28.9087 36.9985 28.2871 37.496 27.5516 37.496ZM28.3489 20.8223C28.3641 21.0126 28.5021 21.1701 28.688 21.2115C29.2957 21.3473 29.8709 21.5862 30.3988 21.9202C30.56 22.0226 30.7684 22.0081 30.9136 21.8846L31.8547 21.0866L32.9127 22.1446L32.1146 23.0857C31.9912 23.2309 31.9767 23.44 32.079 23.6012C32.4138 24.1284 32.652 24.7035 32.7878 25.312C32.8292 25.4979 32.9874 25.6352 33.177 25.6511L34.4063 25.7521V27.2487L33.177 27.3496C32.9867 27.3648 32.8292 27.5028 32.7878 27.6887C32.652 28.2965 32.4131 28.8716 32.079 29.3995C31.9767 29.5607 31.9912 29.7691 32.1146 29.9143L32.9127 30.8554L31.8547 31.9134L30.9136 31.1154C30.7684 30.9919 30.5592 30.9774 30.398 31.0798C29.8709 31.4138 29.2957 31.6527 28.6872 31.7885C28.5014 31.8299 28.3634 31.9882 28.3481 32.1777L28.2472 33.4071H27.9357V29.9775C29.6639 29.7618 31.0058 28.2856 31.0058 26.5C31.0058 24.7144 29.6639 23.2374 27.9357 23.0225V19.5929H28.2479L28.3489 20.8223ZM27.9357 29.0981V23.9026C29.1817 24.111 30.1344 25.1959 30.1344 26.5007C30.1344 27.8056 29.1817 28.8897 27.9357 29.0981ZM28.4411 34.2784L29.16 35.1709V35.4511H25.3681V34.2784H27.5H28.4411ZM27.0643 19.6082V33.4071H25.3513C25.2468 32.0557 24.6492 30.8706 23.6072 29.9579C22.3226 28.8338 21.5863 27.2109 21.5863 25.5059C21.5863 22.3922 24.0058 19.8326 27.0643 19.6082ZM27.5 17.835C27.2596 17.835 27.0643 17.6396 27.0643 17.3993V16.578C27.0643 16.3377 27.2596 16.1423 27.5 16.1423C27.7404 16.1423 27.9357 16.3377 27.9357 16.578V17.3993C27.9357 17.6396 27.7404 17.835 27.5 17.835ZM31.8322 18.9961C31.6238 18.8755 31.5526 18.609 31.6724 18.4006L32.0834 17.689C32.2039 17.4806 32.4697 17.4094 32.6788 17.5293C32.8872 17.6498 32.9584 17.9163 32.8386 18.1247L32.4276 18.8363C32.347 18.9757 32.2003 19.0542 32.05 19.0542C31.9759 19.0542 31.9011 19.0353 31.8322 18.9961ZM36.47 21.3212C36.5906 21.5296 36.5187 21.7961 36.3103 21.9166L35.5987 22.3276C35.5297 22.3675 35.4549 22.3857 35.3815 22.3857C35.2312 22.3857 35.0845 22.3073 35.0039 22.1678C34.8834 21.9594 34.9553 21.6929 35.1637 21.5724L35.8753 21.1614C36.0837 21.0409 36.3502 21.1128 36.47 21.3212ZM36.6007 26.9357C36.3604 26.9357 36.165 26.7404 36.165 26.5C36.165 26.2596 36.3604 26.0643 36.6007 26.0643H37.422C37.6623 26.0643 37.8577 26.2596 37.8577 26.5C37.8577 26.7404 37.6623 26.9357 37.422 26.9357H36.6007ZM36.311 31.0834C36.5194 31.2039 36.5906 31.4704 36.4707 31.6788C36.3901 31.8183 36.2435 31.8967 36.0932 31.8967C36.0191 31.8967 35.9443 31.8778 35.876 31.8386L35.1644 31.4276C34.956 31.3071 34.8849 31.0406 35.0047 30.8322C35.1252 30.6238 35.3917 30.5526 35.6001 30.6724L36.311 31.0834ZM32.4276 34.1637L32.8386 34.8753C32.9591 35.0837 32.8872 35.3502 32.6788 35.4707C32.6099 35.51 32.5351 35.5288 32.4617 35.5288C32.3114 35.5288 32.1647 35.4504 32.0841 35.311L31.6731 34.5994C31.5526 34.391 31.6245 34.1245 31.8329 34.0039C32.0413 33.8841 32.3071 33.9553 32.4276 34.1637ZM23.1671 34.0039C23.3755 34.1245 23.4467 34.391 23.3269 34.5994L22.9159 35.311C22.8353 35.4504 22.6886 35.5288 22.5383 35.5288C22.4642 35.5288 22.3894 35.51 22.3212 35.4707C22.1128 35.3502 22.0416 35.0837 22.1614 34.8753L22.5724 34.1637C22.6929 33.9553 22.9587 33.8841 23.1671 34.0039ZM19.9961 30.8322C20.1166 31.0406 20.0447 31.3071 19.8363 31.4276L19.1247 31.8386C19.0564 31.8778 18.9809 31.8967 18.9076 31.8967C18.7573 31.8967 18.6106 31.8183 18.53 31.6788C18.4094 31.4704 18.4813 31.2039 18.6897 31.0834L19.4013 30.6724C19.609 30.5526 19.8755 30.6238 19.9961 30.8322ZM18.3993 26.0643C18.6396 26.0643 18.835 26.2596 18.835 26.5C18.835 26.7404 18.6396 26.9357 18.3993 26.9357H17.578C17.3377 26.9357 17.1423 26.7404 17.1423 26.5C17.1423 26.2596 17.3377 26.0643 17.578 26.0643H18.3993ZM19.9961 22.1671C19.9155 22.3065 19.7688 22.385 19.6185 22.385C19.5444 22.385 19.4696 22.3661 19.4013 22.3269L18.6897 21.9159C18.4813 21.7953 18.4102 21.5288 18.53 21.3204C18.6505 21.112 18.917 21.0409 19.1254 21.1607L19.837 21.5717C20.0447 21.6929 20.1159 21.9594 19.9961 22.1671ZM22.5724 18.8363L22.1614 18.1247C22.0409 17.9163 22.1128 17.6498 22.3212 17.5293C22.5296 17.4087 22.7961 17.4806 22.9166 17.689L23.3276 18.4006C23.4481 18.609 23.3762 18.8755 23.1678 18.9961C23.0989 19.036 23.0241 19.0542 22.9507 19.0542C22.7997 19.0542 22.653 18.9765 22.5724 18.8363ZM27.5 9C17.8503 9 10 16.8503 10 26.5C10 36.1497 17.8503 44 27.5 44C37.1497 44 45 36.1497 45 26.5C45 16.8503 37.1497 9 27.5 9ZM27.5 43.1286C18.331 43.1286 10.8714 35.669 10.8714 26.5C10.8714 17.331 18.331 9.87137 27.5 9.87137C36.669 9.87137 44.1286 17.331 44.1286 26.5C44.1286 35.669 36.669 43.1286 27.5 43.1286ZM40.2576 31.1502C40.1929 31.3267 40.0259 31.4363 39.848 31.4363C39.7987 31.4363 39.7478 31.4276 39.6984 31.4094C39.4726 31.3267 39.3564 31.0769 39.4385 30.8503C40.3375 28.3909 40.4529 25.7492 39.7725 23.2106C38.8939 19.9321 36.7917 17.1923 33.8523 15.4953C30.9129 13.7983 27.4891 13.3474 24.2106 14.226C22.0133 14.8149 20.0425 15.9622 18.4617 17.5648L19.6373 17.5031C19.877 17.4922 20.0825 17.6752 20.0955 17.9156C20.1079 18.1559 19.9234 18.3607 19.6838 18.3738L17.4502 18.4914C17.4422 18.4921 17.435 18.4921 17.427 18.4921C17.1968 18.4921 17.0044 18.312 16.992 18.0797L16.8744 15.8461C16.862 15.6057 17.0465 15.4009 17.2861 15.3879C17.5272 15.3755 17.7312 15.56 17.7443 15.8003L17.8067 16.989C19.5016 15.2579 21.6204 14.0184 23.9848 13.3852C31.2164 11.4471 38.676 15.7546 40.6141 22.9862C41.3417 25.6983 41.2183 28.5216 40.2576 31.1502ZM38.1249 37.1539C38.1372 37.3943 37.9528 37.5991 37.7132 37.6121C37.7052 37.6129 37.6979 37.6129 37.6899 37.6129C37.4598 37.6129 37.2673 37.4328 37.255 37.2004L37.1925 36.0117C35.4977 37.7428 33.3774 38.9824 31.0145 39.6156C29.8425 39.93 28.6633 40.0796 27.5036 40.0796C21.5093 40.0796 16.0095 36.0742 14.3859 30.0145C13.659 27.3017 13.7825 24.4784 14.7432 21.8498C14.8259 21.624 15.0757 21.5078 15.3023 21.5898C15.5281 21.6726 15.6443 21.9224 15.5622 22.1482C14.6633 24.6077 14.5478 27.2494 15.2282 29.788C16.7459 35.4584 21.8935 39.2075 27.5029 39.2075C28.5885 39.2075 29.6908 39.0673 30.7887 38.7732C32.9838 38.1851 34.9546 37.0363 36.5346 35.4344L35.3612 35.4962C35.1216 35.5092 34.9161 35.3241 34.903 35.0844C34.8907 34.8441 35.0751 34.6393 35.3147 34.6262L37.5483 34.5086C37.7894 34.4963 37.9935 34.6807 38.0065 34.9203L38.1249 37.1539Z" fill="black"/>
</svg>
