<svg width="54" height="54" viewBox="0 0 54 54" fill="none" xmlns="http://www.w3.org/2000/svg">
<circle cx="27" cy="27" r="26.5" fill="white" stroke="#E4E4E4"/>
<path d="M18.3478 31.9724H23.2392C23.5274 31.9724 23.8039 32.0973 24.0078 32.3197C24.2116 32.5421 24.3261 32.8437 24.3261 33.1582V33.7511H27.0435C27.3318 33.7511 27.6083 33.876 27.8121 34.0984C28.016 34.3208 28.1305 34.6224 28.1305 34.9368C28.1305 35.2513 28.016 35.5529 27.8121 35.7753C27.6083 35.9977 27.3318 36.1226 27.0435 36.1226H23.7826" stroke="black" stroke-linejoin="round"/>
<path d="M26.5 36.1226L28.1305 37.9012H33.5653C33.8536 37.9012 34.13 38.0261 34.3339 38.2485C34.5377 38.4709 34.6522 38.7725 34.6522 39.087C34.6522 39.4015 34.5377 39.7031 34.3339 39.9255C34.13 40.1478 33.8536 40.2728 33.5653 40.2728H22.1522L20.5218 38.4941H18.3478" stroke="black" stroke-linejoin="round"/>
<path d="M14 30.7866H17.2609C17.5492 30.7866 17.8256 30.9116 18.0295 31.1339C18.2333 31.3563 18.3478 31.6579 18.3478 31.9724V39.087C18.3478 39.4015 18.2333 39.7031 18.0295 39.9255C17.8256 40.1479 17.5492 40.2728 17.2609 40.2728H14V30.7866Z" stroke="black" stroke-linejoin="round"/>
<path d="M16.1739 32.5652V33.751" stroke="black" stroke-linejoin="round"/>
<path d="M37.9131 13H25.9566C25.6683 13 25.3918 13.1249 25.188 13.3473C24.9841 13.5697 24.8696 13.8713 24.8696 14.1858V27.2293C24.8696 27.5438 24.9841 27.8454 25.188 28.0678C25.3918 28.2901 25.6683 28.4151 25.9566 28.4151H31.9349V31.9724L35.1957 28.4151H37.9131C38.2014 28.4151 38.4779 28.2901 38.6817 28.0678C38.8856 27.8454 39.0001 27.5438 39.0001 27.2293V14.1858C39.0001 13.8713 38.8856 13.5697 38.6817 13.3473C38.4779 13.1249 38.2014 13 37.9131 13Z" stroke="black" stroke-linejoin="round"/>
<path d="M23.2392 15.9644H15.087C14.7987 15.9644 14.5222 16.0893 14.3184 16.3117C14.1145 16.534 14 16.8356 14 17.1501V24.2648C14 24.5793 14.1145 24.8809 14.3184 25.1032C14.5222 25.3256 14.7987 25.4506 15.087 25.4506H17.8044L19.9783 27.8221V25.4506H23.2392" stroke="black" stroke-linejoin="round"/>
<path d="M36.8262 21.8933V19.5218H35.5794C35.5055 19.2484 35.4057 18.9841 35.2816 18.7333L36.162 17.7728L34.6251 16.0961L33.7446 17.0566C33.5147 16.9212 33.2724 16.8123 33.0218 16.7317V15.3716H30.8479V16.7317C30.5973 16.8123 30.355 16.9212 30.125 17.0566L29.2446 16.0961L27.7077 17.7728L28.5881 18.7333C28.464 18.9841 28.3642 19.2484 28.2903 19.5218H27.0435V21.8933H28.2903C28.3642 22.1667 28.464 22.431 28.5881 22.6819L27.7077 23.6424L29.2446 25.319L30.125 24.3586C30.355 24.4939 30.5973 24.6028 30.8479 24.6835V26.0436H33.0218V24.6835C33.2724 24.6028 33.5147 24.4939 33.7446 24.3586L34.6251 25.319L36.162 23.6424L35.2816 22.6819C35.4057 22.431 35.5055 22.1667 35.5794 21.8933H36.8262Z" stroke="black" stroke-linejoin="round"/>
<path d="M31.9348 18.929C31.6124 18.929 31.2971 19.0333 31.029 19.2287C30.7609 19.4242 30.5519 19.7019 30.4285 20.027C30.3051 20.352 30.2728 20.7096 30.3357 21.0546C30.3986 21.3996 30.5539 21.7166 30.7819 21.9653C31.0099 22.2141 31.3005 22.3835 31.6167 22.4521C31.933 22.5207 32.2608 22.4855 32.5588 22.3509C32.8567 22.2163 33.1113 21.9883 33.2905 21.6958C33.4696 21.4033 33.5653 21.0594 33.5653 20.7076" stroke="black" stroke-linejoin="round"/>
<path d="M15.6304 18.3359H16.7174" stroke="black" stroke-linejoin="round"/>
<path d="M17.8043 18.3359H23.2391" stroke="black" stroke-linejoin="round"/>
<path d="M15.6304 20.7075H23.2392" stroke="black" stroke-linejoin="round"/>
<path d="M15.6304 23.0791H23.2392" stroke="black" stroke-linejoin="round"/>
</svg>
