<svg width="54" height="54" viewBox="0 0 54 54" fill="none" xmlns="http://www.w3.org/2000/svg">
<circle cx="27" cy="27" r="26.5" fill="white" stroke="#E4E4E4"/>
<path d="M27.2788 42.6569H16.3561C16.1161 42.6569 15.9216 42.4624 15.9216 42.2224C15.9216 41.9823 16.1161 41.7878 16.3561 41.7878H27.2788C27.5188 41.7878 27.7133 41.9823 27.7133 42.2224C27.7133 42.4624 27.5188 42.6569 27.2788 42.6569Z" fill="black"/>
<path d="M21.8019 26.756C21.6757 26.756 21.5557 26.7001 21.4729 26.6049L19.6314 24.4717C19.5632 24.3931 19.5259 24.2917 19.5259 24.1882V22.5536C19.5259 22.3136 19.7204 22.1191 19.9604 22.1191C20.2004 22.1191 20.3949 22.3136 20.3949 22.5536V24.0268L21.8019 25.6573L23.2089 24.0268V22.5536C23.2089 22.3136 23.4034 22.1191 23.6434 22.1191C23.8834 22.1191 24.0779 22.3136 24.0779 22.5536V24.1882C24.0779 24.2917 24.0407 24.3931 23.9724 24.4717L22.1309 26.6049C22.0481 26.7022 21.9281 26.756 21.8019 26.756Z" fill="black"/>
<path d="M26.5711 18.8769C26.3311 18.8769 26.1366 18.6824 26.1366 18.4424V16.5782C26.1366 14.1966 24.2 12.2517 21.8184 12.2434C21.8143 12.2434 21.8081 12.2434 21.804 12.2434C20.6639 12.2434 19.5838 12.6924 18.7645 13.5118C17.9286 14.3456 17.4671 15.4464 17.4671 16.6154V18.3928C17.4671 18.6328 17.2727 18.8273 17.0326 18.8273C16.7926 18.8273 16.5981 18.6328 16.5981 18.3928V16.6154C16.5981 15.9078 16.7388 15.2208 17.0161 14.5711C17.283 13.9442 17.6658 13.3793 18.1499 12.8972C19.1348 11.9165 20.4322 11.3765 21.804 11.3765H21.8226C23.2089 11.3806 24.5103 11.9248 25.489 12.9076C26.4677 13.8904 27.0077 15.1939 27.0077 16.5802V18.4445C27.0057 18.6824 26.8112 18.8769 26.5711 18.8769Z" fill="black"/>
<path d="M21.8019 23.5614C19.7928 23.5614 18.1582 21.9268 18.1582 19.9177V17.0107C18.1582 16.8927 18.2058 16.781 18.2907 16.6982C18.3755 16.6155 18.4893 16.572 18.6052 16.5762C18.6383 16.5762 21.9819 16.6569 23.3972 15.2437C23.482 15.1588 23.5979 15.1133 23.7158 15.1174C23.8358 15.1216 23.9476 15.1733 24.0282 15.2623L25.3359 16.7231C25.4083 16.8038 25.4476 16.9051 25.4476 17.0127V19.9177C25.4476 21.9268 23.8131 23.5614 21.8019 23.5614ZM19.0273 17.4431V19.9157C19.0273 21.4468 20.2728 22.6903 21.8019 22.6903C23.331 22.6903 24.5766 21.4447 24.5766 19.9157V17.1762L23.6641 16.1582C22.2571 17.2403 19.9873 17.4183 19.0273 17.4431Z" fill="black"/>
<path d="M16.3561 42.6569C16.1161 42.6569 15.9216 42.4624 15.9216 42.2224V29.6506C15.9216 29.4106 16.1161 29.2161 16.3561 29.2161C16.5961 29.2161 16.7906 29.4106 16.7906 29.6506V42.2224C16.7906 42.4624 16.5961 42.6569 16.3561 42.6569Z" fill="black"/>
<path d="M14.8953 40.9085C13.8504 40.9085 13 40.0581 13 39.0132V28.8912C13 28.0119 13.2752 27.1739 13.7987 26.4662C14.3201 25.7586 15.0402 25.2475 15.8802 24.9889L19.8487 23.7619C20.0784 23.6916 20.3205 23.8199 20.3929 24.0495C20.4632 24.2792 20.335 24.5213 20.1053 24.5937L16.1368 25.8207C14.7815 26.2407 13.869 27.4739 13.869 28.8933V39.0153C13.869 39.5801 14.3284 40.0415 14.8953 40.0415C15.4602 40.0415 15.9216 39.5822 15.9216 39.0153V35.1254C15.9216 34.8854 16.1161 34.6909 16.3561 34.6909C16.5961 34.6909 16.7906 34.8854 16.7906 35.1254V39.0153C16.7906 40.0581 15.9402 40.9085 14.8953 40.9085Z" fill="black"/>
<path d="M27.2788 42.6569C27.0387 42.6569 26.8443 42.4624 26.8443 42.2224V29.6506C26.8443 29.4106 27.0387 29.2161 27.2788 29.2161C27.5188 29.2161 27.7133 29.4106 27.7133 29.6506V42.2224C27.7133 42.4624 27.5188 42.6569 27.2788 42.6569Z" fill="black"/>
<path d="M28.7396 40.9085C27.6947 40.9085 26.8443 40.0581 26.8443 39.0132V35.1233C26.8443 34.8833 27.0388 34.6888 27.2788 34.6888C27.5189 34.6888 27.7133 34.8833 27.7133 35.1233V39.0132C27.7133 39.5781 28.1727 40.0395 28.7396 40.0395C29.3045 40.0395 29.7659 39.5801 29.7659 39.0132V28.8912C29.7659 27.4718 28.8555 26.2366 27.4982 25.8186L23.5296 24.5937C23.3 24.5234 23.1717 24.2792 23.242 24.0495C23.3124 23.8199 23.5565 23.6916 23.7862 23.7619L27.7547 24.9889C28.5948 25.2475 29.3148 25.7607 29.8362 26.4662C30.3576 27.1739 30.6349 28.0119 30.6349 28.8912V39.0132C30.6349 40.0581 29.7845 40.9085 28.7396 40.9085Z" fill="black"/>
<path d="M23.6103 28.0017C23.5255 28.0017 23.4386 27.9768 23.3641 27.9251L21.8102 26.8513L20.2563 27.9251C20.0722 28.0534 19.8198 28.0182 19.6749 27.8465L17.4341 25.1649C17.281 24.9808 17.3037 24.7077 17.4879 24.5525C17.672 24.3994 17.9452 24.4221 18.1004 24.6063L20.0887 26.9837L21.564 25.9636C21.713 25.8602 21.9095 25.8602 22.0585 25.9636L23.5338 26.9837L25.5222 24.6063C25.6753 24.4221 25.9505 24.3973 26.1346 24.5525C26.3188 24.7056 26.3436 24.9808 26.1884 25.1649L23.9476 27.8465C23.8566 27.9479 23.7345 28.0017 23.6103 28.0017Z" fill="black"/>
<path d="M21.8081 38.3221C21.6654 38.3221 21.5309 38.2518 21.4481 38.1318L19.8922 35.8454C19.8301 35.7523 19.8053 35.6385 19.8239 35.5289L19.8384 35.4399L20.6163 28.8126C20.6412 28.5933 20.8274 28.4277 21.0488 28.4277H22.5675C22.7868 28.4277 22.973 28.5933 22.9999 28.8105L23.7779 35.4378L23.7924 35.5289C23.7965 35.5516 23.7986 35.5764 23.7986 35.5992C23.7986 35.6861 23.7717 35.7709 23.7241 35.8434L23.4489 36.2489L22.1682 38.1297C22.0875 38.2497 21.953 38.3221 21.8081 38.3221ZM20.7074 35.4978L21.8081 37.1158L22.9089 35.4978L22.1806 29.2988H21.4357L20.7074 35.4978Z" fill="black"/>
<path d="M22.5675 29.2989H21.0488C20.8626 29.2989 20.697 29.181 20.637 29.0051L20.0784 27.3747C19.9998 27.1471 20.1218 26.9008 20.3494 26.8222C20.577 26.7436 20.8232 26.8657 20.9019 27.0933L21.3612 28.4299H22.2592L22.7185 27.0933C22.7972 26.8657 23.0434 26.7457 23.271 26.8222C23.4986 26.9008 23.6186 27.1471 23.542 27.3747L22.9834 29.0051C22.9192 29.181 22.7537 29.2989 22.5675 29.2989Z" fill="black"/>
<path d="M25.6173 20.7454H24.9718C24.7318 20.7454 24.5373 20.5509 24.5373 20.3109C24.5373 20.0708 24.7318 19.8764 24.9718 19.8764H25.6173C26.027 19.8764 26.3601 19.5432 26.3601 19.1336C26.3601 19.0342 26.3415 18.9391 26.3043 18.848C26.267 18.757 26.2132 18.6784 26.1429 18.608C26.0022 18.4673 25.816 18.3907 25.6173 18.3907H25.0111C24.7711 18.3907 24.5766 18.1963 24.5766 17.9562C24.5766 17.7162 24.7711 17.5217 25.0111 17.5217H25.6173C26.0477 17.5217 26.4533 17.6893 26.7574 17.9935C26.9085 18.1445 27.0243 18.3183 27.105 18.5149C27.1878 18.7115 27.2292 18.9204 27.2292 19.1336C27.2312 20.0233 26.5071 20.7454 25.6173 20.7454Z" fill="black"/>
<path d="M18.5535 20.7453H17.9472C17.5169 20.7453 17.1113 20.5777 16.8072 20.2735C16.6561 20.1225 16.5403 19.9487 16.4596 19.7542C16.3768 19.5576 16.3354 19.3486 16.3354 19.1355C16.3354 18.2458 17.0575 17.5237 17.9472 17.5237H18.5928C18.8328 17.5237 19.0273 17.7182 19.0273 17.9582C19.0273 18.1982 18.8328 18.3927 18.5928 18.3927H17.9472C17.5376 18.3927 17.2044 18.7258 17.2044 19.1355C17.2044 19.2348 17.2231 19.33 17.2603 19.421C17.2975 19.5121 17.3513 19.5907 17.4217 19.6611C17.5624 19.8018 17.7486 19.8783 17.9472 19.8783H18.5535C18.7935 19.8783 18.988 20.0728 18.988 20.3128C18.988 20.5528 18.7935 20.7453 18.5535 20.7453Z" fill="black"/>
<path d="M33.2957 22.798C33.1405 22.798 32.9978 22.7152 32.9191 22.5807L31.3715 19.8971H30.5542C29.6127 19.8971 28.8451 19.1315 28.8451 18.188V12.7091C28.8451 11.7676 29.6107 11 30.5542 11H39.8568C40.7982 11 41.5659 11.7656 41.5659 12.7091V18.1901C41.5659 19.1315 40.8003 19.8992 39.8568 19.8992H35.222L33.6744 22.5807C33.5957 22.7152 33.4509 22.798 33.2957 22.798ZM30.5542 11.869C30.0907 11.869 29.7141 12.2456 29.7141 12.7091V18.1901C29.7141 18.6536 30.0907 19.0301 30.5542 19.0301H31.6218C31.777 19.0301 31.9198 19.1129 31.9984 19.2474L33.2957 21.4944L34.593 19.2474C34.6717 19.1129 34.8144 19.0301 34.9696 19.0301H39.8547C40.3182 19.0301 40.6948 18.6536 40.6948 18.1901V12.7091C40.6948 12.2456 40.3182 11.869 39.8547 11.869H30.5542Z" fill="black"/>
<path d="M35.2883 17.6914C35.0482 17.6914 34.8537 17.4969 34.8537 17.2569V15.4775L34.5703 15.612C34.353 15.7154 34.0944 15.6223 33.9909 15.4051C33.8875 15.1878 33.9806 14.9292 34.1978 14.8257L35.102 14.3974C35.2365 14.3333 35.3938 14.3436 35.52 14.4222C35.6462 14.5009 35.7228 14.6395 35.7228 14.7885V17.2548C35.7228 17.4969 35.5283 17.6914 35.2883 17.6914Z" fill="black"/>
<path d="M36.0269 17.6915H34.5475C34.3075 17.6915 34.113 17.497 34.113 17.257C34.113 17.017 34.3075 16.8225 34.5475 16.8225H36.0269C36.2669 16.8225 36.4614 17.017 36.4614 17.257C36.4614 17.497 36.2669 17.6915 36.0269 17.6915Z" fill="black"/>
<path d="M35.22 14.0768C35.5011 14.0768 35.729 13.8489 35.729 13.5678C35.729 13.2867 35.5011 13.0588 35.22 13.0588C34.9389 13.0588 34.711 13.2867 34.711 13.5678C34.711 13.8489 34.9389 14.0768 35.22 14.0768Z" fill="black"/>
</svg>
