<svg width="22" height="22" viewBox="0 0 22 22" fill="none" xmlns="http://www.w3.org/2000/svg">
<g clip-path="url(#clip0_43_1651)">
<path d="M5.06915 0.000710687C5.54471 -0.0224348 5.75743 0.292858 5.96862 0.658041C6.78065 2.06117 7.61211 3.45247 8.43795 4.84737C8.76215 5.39566 8.72073 6.07922 8.23392 6.57247C7.78751 7.0251 7.26081 7.39748 6.77963 7.81718C6.55668 8.01161 6.33987 8.21991 6.15322 8.4488C5.97629 8.66636 5.98959 8.91839 6.12714 9.16991C7.42752 11.5472 9.11754 13.5753 11.3941 15.0684C11.9126 15.4084 12.4567 15.7123 13.0079 15.9958C13.1445 16.0657 13.415 16.0611 13.5198 15.9695C13.8629 15.6707 14.1595 15.3173 14.4719 14.983C14.8381 14.5921 15.1704 14.1611 15.5749 13.8165C16.0929 13.3747 16.6876 13.3608 17.2844 13.7059C18.5362 14.4306 19.7829 15.1651 21.0454 15.8703C21.8641 16.3275 22.1157 17.261 21.9515 18.0773C21.7879 18.8905 21.4698 19.6239 20.9191 20.2458C20.3167 20.9257 19.5369 21.3161 18.6886 21.5753C17.6301 21.8989 16.5475 22.0491 15.4374 21.9848C14.406 21.9246 13.4211 21.6679 12.4838 21.2498C8.88437 19.644 5.87146 17.2775 3.45327 14.1498C2.32522 12.6911 1.37564 11.1285 0.733375 9.39005C0.228157 8.02138 -0.0689396 6.61156 0.0138998 5.14517C0.0890689 3.81457 0.412756 2.55957 1.29996 1.51597C2.08182 0.596834 3.09021 0.128782 4.28013 0.0336287C4.35581 0.0274565 4.43098 0.0120262 4.50666 0.000710687C4.69433 0.000710687 4.88199 0.000710687 5.06966 0.000710687H5.06915Z" fill="#666363"/>
</g>
<defs>
<clipPath id="clip0_43_1651">
<rect width="22" height="22" fill="white"/>
</clipPath>
</defs>
</svg>
