<svg width="15" height="22" viewBox="0 0 15 22" fill="none" xmlns="http://www.w3.org/2000/svg">
<g clip-path="url(#clip0_43_1655)">
<path d="M7.20085 21.9999C6.51298 20.8344 5.84659 19.7047 5.17969 18.5749C4.14508 16.8212 3.08285 15.0834 2.08454 13.3088C1.26064 11.844 0.587601 10.3026 0.175392 8.66605C-0.174423 7.2765 0.0168502 5.91406 0.575327 4.61607C1.63705 2.14946 3.51091 0.642287 6.14475 0.138533C8.08561 -0.232762 9.91498 0.146716 11.5746 1.22378C13.0884 2.20623 14.0944 3.58452 14.6426 5.307C15.2543 7.2274 14.8482 9.01484 14.0182 10.7731C13.3134 12.266 12.4113 13.6402 11.5454 15.0369C10.1492 17.2887 8.74535 19.5364 7.34456 21.7856C7.30467 21.8496 7.2612 21.9115 7.20136 22.001L7.20085 21.9999ZM3.17542 7.23457C3.17593 9.59786 5.09224 11.5167 7.44735 11.5121C9.81014 11.5075 11.7167 9.59837 11.7224 7.23252C11.7275 4.89581 9.80861 2.97746 7.45861 2.9703C5.09735 2.96314 3.17542 4.87689 3.17593 7.23508L3.17542 7.23457Z" fill="#666363"/>
</g>
<defs>
<clipPath id="clip0_43_1655">
<rect width="14.9367" height="22" fill="white"/>
</clipPath>
</defs>
</svg>
