<svg width="36" height="36" viewBox="0 0 36 36" fill="none" xmlns="http://www.w3.org/2000/svg">
<g clip-path="url(#clip0_277_28)">
<path d="M20.25 34.875H15.75C14.5091 34.875 13.5 33.8659 13.5 32.625V31.9016C12.7598 31.6631 12.0409 31.365 11.3512 31.0129L10.8405 31.5236C9.99225 32.3719 8.5095 32.3741 7.659 31.5236L4.4775 28.3421C4.05225 27.9169 3.81825 27.3521 3.81825 26.7514C3.81825 26.1495 4.05225 25.5848 4.4775 25.1595L4.98713 24.6488C4.635 23.9591 4.33687 23.2402 4.09837 22.5H3.375C2.13412 22.5 1.125 21.4909 1.125 20.25V15.75C1.125 14.5091 2.13412 13.5 3.375 13.5H4.09837C4.33687 12.7598 4.635 12.0409 4.98713 11.3512L4.47638 10.8405C4.05225 10.4164 3.81825 9.8505 3.81825 9.24975C3.81825 8.649 4.05225 8.08425 4.4775 7.659L7.659 4.4775C8.5095 3.627 9.99225 3.627 10.8416 4.4775L11.3524 4.98713C12.042 4.635 12.7609 4.33687 13.5011 4.09837V3.375C13.5011 2.13412 14.5103 1.125 15.7511 1.125H20.2511C21.492 1.125 22.5011 2.13412 22.5011 3.375V4.09837C23.2414 4.33687 23.9602 4.635 24.6499 4.98713L25.1606 4.47638C26.0077 3.62813 27.4916 3.62588 28.3421 4.47638L31.5236 7.65788C31.9489 8.08313 32.1829 8.64787 32.1829 9.24862C32.1829 9.8505 31.9489 10.4152 31.5236 10.8405L31.014 11.3512C31.3661 12.0409 31.6642 12.7598 31.9028 13.5H32.625C33.8659 13.5 34.875 14.5091 34.875 15.75V20.25C34.875 21.4909 33.8659 22.5 32.625 22.5H31.9016C31.6631 23.2402 31.365 23.9591 31.0129 24.6488L31.5236 25.1595C31.9478 25.5836 32.1818 26.1484 32.1818 26.7502C32.1818 27.351 31.9478 27.9157 31.5225 28.341L28.341 31.5225C27.4905 32.373 26.0078 32.373 25.1584 31.5225L24.6476 31.0129C23.958 31.365 23.2391 31.6631 22.4989 31.9016V32.625C22.5 33.8659 21.4909 34.875 20.25 34.875ZM10.9744 28.2083L11.7247 28.6515C12.7148 29.2365 13.7846 29.6786 14.9062 29.9678L15.75 30.186V32.625H20.25V30.186L21.0938 29.9689C22.2154 29.6798 23.2852 29.2365 24.2752 28.6526L25.0256 28.2094L26.7502 29.9329L29.9318 26.7514L28.2083 25.0268L28.6515 24.2764C29.2365 23.2864 29.6786 22.2165 29.9678 21.0949L30.186 20.25H32.625V15.75H30.186L29.9689 14.9062C29.6798 13.7846 29.2365 12.7148 28.6526 11.7247L28.2094 10.9744L29.9329 9.24975L26.7514 6.06825L25.0268 7.79175L24.2764 7.3485C23.2864 6.7635 22.2165 6.32137 21.0949 6.03225L20.25 5.814V3.375H15.75V5.814L14.9062 6.03113C13.7846 6.32025 12.7148 6.7635 11.7247 7.34737L10.9744 7.79175L9.24975 6.06825L6.06825 9.24975L7.79175 10.9744L7.3485 11.7247C6.7635 12.7148 6.32137 13.7846 6.03225 14.9062L5.814 15.75H3.375V20.25H5.814L6.03113 21.0938C6.32025 22.2154 6.7635 23.2852 7.34737 24.2752L7.79063 25.0256L6.06713 26.7502L9.24862 29.9318L10.9744 28.2083Z" fill="black"/>
<path d="M18 25.875C13.6575 25.875 10.125 22.3425 10.125 18C10.125 13.6575 13.6575 10.125 18 10.125C22.3425 10.125 25.875 13.6575 25.875 18C25.875 22.3425 22.3425 25.875 18 25.875ZM18 12.375C14.8984 12.375 12.375 14.8984 12.375 18C12.375 21.1016 14.8984 23.625 18 23.625C21.1016 23.625 23.625 21.1016 23.625 18C23.625 14.8984 21.1016 12.375 18 12.375Z" fill="black"/>
<path d="M18 21.375C17.379 21.375 16.875 20.871 16.875 20.25V15.75C16.875 15.129 17.379 14.625 18 14.625C18.621 14.625 19.125 15.129 19.125 15.75V20.25C19.125 20.871 18.621 21.375 18 21.375Z" fill="black"/>
<path d="M20.25 19.125H15.75C15.129 19.125 14.625 18.621 14.625 18C14.625 17.379 15.129 16.875 15.75 16.875H20.25C20.871 16.875 21.375 17.379 21.375 18C21.375 18.621 20.871 19.125 20.25 19.125Z" fill="black"/>
</g>
<defs>
<clipPath id="clip0_277_28">
<rect width="36" height="36" fill="white"/>
</clipPath>
</defs>
</svg>
