<svg width="48" height="48" viewBox="0 0 48 48" fill="none" xmlns="http://www.w3.org/2000/svg">
<path fill-rule="evenodd" clip-rule="evenodd" d="M4 6C4 4.89544 4.89544 4 6 4H23.1594V8H8V40H40V25H44V42C44 43.1046 43.1046 44 42 44H6C4.89544 44 4 43.1046 4 42V6Z" fill="black"/>
<path fill-rule="evenodd" clip-rule="evenodd" d="M17.6357 27.4853L25.6859 19.4351L28.5143 22.2635L20.4641 30.3137L17.6357 27.4853Z" fill="black"/>
<path fill-rule="evenodd" clip-rule="evenodd" d="M21.0498 26.8995H28.9494V30.8995H19.0498C17.9452 30.8995 17.0498 30.0041 17.0498 28.8995V19H21.0498V26.8995Z" fill="black"/>
<path fill-rule="evenodd" clip-rule="evenodd" d="M28 6C28 4.89544 28.8954 4 30 4H42C43.1046 4 44 4.89544 44 6V18C44 19.1046 43.1046 20 42 20H30C28.8954 20 28 19.1046 28 18V6ZM32 8V16H40V8H32Z" fill="black"/>
</svg>
