<svg width="46" height="46" viewBox="0 0 46 46" fill="none" xmlns="http://www.w3.org/2000/svg">
<g clip-path="url(#clip0_277_20)">
<path fill-rule="evenodd" clip-rule="evenodd" d="M23.9775 41.2679H27.8727C28.2712 41.2679 28.5942 41.5909 28.5942 41.9895V44.647C28.5942 45.0455 28.2712 45.3686 27.8727 45.3686H1.3534C0.954918 45.3686 0.631836 45.0455 0.631836 44.647V41.9895C0.631836 41.5909 0.954918 41.2679 1.3534 41.2679H5.24861L4.90893 38.5749H2.47283C2.26799 38.5749 2.0729 38.488 1.93607 38.3357C1.79915 38.1833 1.73349 37.98 1.75541 37.7763C1.99605 35.5355 2.80845 33.4658 4.04395 31.7163L3.95024 30.9737L3.95015 30.9729C3.89576 30.5375 4.01662 30.1439 4.30543 29.8132C4.59532 29.4813 4.97739 29.3083 5.41854 29.3083H6.24582C7.64251 28.1216 9.29445 27.2263 11.1077 26.7166C9.0824 25.513 7.72044 23.3016 7.72044 20.7829C7.72044 16.9856 10.8159 13.8869 14.613 13.8869C18.4138 13.8869 21.5089 16.9858 21.5089 20.7829C21.5089 23.3017 20.1469 25.5132 18.1205 26.7168C19.9341 27.2265 21.5861 28.1217 22.9827 29.3083H23.8075C24.247 29.3083 24.6243 29.4787 24.9172 29.8093C24.9184 29.8106 24.9195 29.8119 24.9206 29.8132C25.2095 30.1439 25.3303 30.5375 25.2759 30.9729L25.2758 30.9737L25.1825 31.7136C26.4187 33.4638 27.2312 35.5346 27.4708 37.7767C27.4925 37.9803 27.4267 38.1835 27.2899 38.3357C27.1531 38.488 26.958 38.5749 26.7533 38.5749H24.3171L23.9775 41.2679ZM5.38219 30.7938L6.69545 41.2071H22.5306L23.8439 30.7938L23.844 30.7931C23.8451 30.7825 23.8419 30.7728 23.8348 30.764C23.8273 30.7563 23.8184 30.7514 23.8075 30.7514C23.8075 30.7514 5.38201 30.7923 5.38219 30.7938ZM4.33565 34.0295C3.85238 34.994 3.50079 36.036 3.30453 37.1318H4.72692L4.33565 34.0295ZM14.613 27.6787C12.4558 27.6787 10.4374 28.2737 8.71286 29.3083H20.5156C18.7906 28.2736 16.7714 27.6787 14.613 27.6787ZM14.613 26.2356C17.6184 26.2356 20.0658 23.7853 20.0658 20.7829C20.0658 17.7804 17.6184 15.3301 14.613 15.3301C11.6107 15.3301 9.16357 17.7805 9.16357 20.7829C9.16357 23.7852 11.6107 26.2356 14.613 26.2356ZM24.8908 34.0266L24.4992 37.1318H25.922C25.7261 36.0349 25.3744 34.9919 24.8908 34.0266ZM2.07497 43.9255H27.1511V42.7111H2.07497V43.9255ZM12.1503 36.0108C12.1502 36.0007 12.1501 35.9906 12.1501 35.9804C12.1501 34.6243 13.2569 33.5176 14.613 33.5176C15.9691 33.5176 17.0759 34.6243 17.0759 35.9804C17.0759 35.9906 17.0758 36.0007 17.0758 36.0108C17.0758 36.0209 17.0759 36.031 17.0759 36.0412C17.0759 37.3973 15.9691 38.504 14.613 38.504C13.2569 38.504 12.1501 37.3973 12.1501 36.0412C12.1501 36.031 12.1502 36.0209 12.1503 36.0108ZM15.6323 36.0108C15.6161 35.4632 15.1643 35.0214 14.613 35.0214C14.0618 35.0214 13.61 35.4632 13.5937 36.0108C13.61 36.5583 14.0618 37.0001 14.613 37.0001C15.1643 37.0001 15.6161 36.5583 15.6323 36.0108ZM39.8349 41.9399C39.615 42.7401 39.1559 43.4795 38.4919 44.0715C37.5638 44.8989 36.3067 45.3686 34.9941 45.3686C33.6816 45.3686 32.4245 44.8989 31.4964 44.0715C30.5368 43.2161 30.005 42.0525 30.005 40.8429V36.5601C30.005 36.0595 30.2208 35.5759 30.618 35.2219C30.9837 34.8958 31.4779 34.7077 31.9951 34.7077H37.9931C38.5104 34.7077 39.0046 34.8958 39.3702 35.2219C39.6875 35.5047 39.8891 35.8702 39.9573 36.2611H41.7406C42.5386 36.2611 43.2113 36.9303 43.2113 37.7861V40.4149C43.2113 41.2706 42.5386 41.9399 41.7406 41.9399H39.8349ZM38.5401 40.8429V36.5601C38.5401 36.4609 38.4887 36.3693 38.41 36.2991C38.2999 36.201 38.1488 36.1508 37.9931 36.1508H31.9951C31.8395 36.1508 31.6883 36.201 31.5783 36.2991C31.4996 36.3693 31.4481 36.4609 31.4481 36.5601V40.8429C31.4481 41.6511 31.8156 42.4227 32.4567 42.9942C33.1291 43.5936 34.0431 43.9255 34.9941 43.9255C35.9451 43.9255 36.8591 43.5936 37.5316 42.9942C38.0931 42.4938 38.4446 41.8398 38.5233 41.1421C38.5236 41.1393 38.5239 41.1364 38.5242 41.1335C38.5348 41.0374 38.5401 40.9404 38.5401 40.8429ZM39.9832 40.4968H41.7406C41.7732 40.4968 41.7682 40.4498 41.7682 40.4149V37.7861C41.7682 37.7512 41.7732 37.7042 41.7406 37.7042H39.9832V40.4968ZM33.9168 32.1812C34.1867 32.4741 34.1682 32.9309 33.8753 33.2009C33.5825 33.4708 33.1257 33.4523 32.8557 33.1595C32.2736 32.528 32.3027 31.7547 32.5637 30.9343C32.6669 30.6097 32.804 30.2769 32.8923 29.9513C32.9629 29.6908 33.0358 29.4334 32.8468 29.2207C32.5824 28.9231 32.6093 28.4666 32.907 28.202C33.2047 27.9376 33.6612 27.9646 33.9256 28.2622C34.5128 28.9231 34.4821 29.7081 34.2284 30.523C34.1254 30.8539 33.9871 31.1896 33.8961 31.5139C33.8281 31.7568 33.7426 31.9923 33.9168 32.1812ZM37.0035 32.1812C37.2734 32.4741 37.2549 32.9309 36.962 33.2009C36.6692 33.4708 36.2124 33.4523 35.9424 33.1595C35.3603 32.528 35.3894 31.7547 35.6504 30.9343C35.7536 30.6097 35.8906 30.2769 35.979 29.9513C36.0496 29.6908 36.1225 29.4334 35.9335 29.2207C35.669 28.9231 35.6959 28.4666 35.9937 28.202C36.2914 27.9376 36.7479 27.9646 37.0123 28.2622C37.5995 28.9231 37.5688 29.7081 37.3151 30.523C37.212 30.8539 37.0738 31.1896 36.9828 31.5139C36.9148 31.7568 36.8293 31.9923 37.0035 32.1812ZM31.4401 13.889C30.8407 14.3823 30.0678 14.6802 29.2242 14.6802C27.3131 14.6802 25.7693 13.1539 25.7693 11.2836C25.7693 9.83775 26.6913 8.59819 27.9932 8.10941C27.9925 8.07487 27.9923 8.04032 27.9923 8.0056C27.9923 3.9742 31.8529 0.631348 36.6807 0.631348C41.5084 0.631348 45.3691 3.9742 45.3691 8.0056C45.3691 12.037 41.5084 15.3799 36.6807 15.3799C34.7091 15.3799 32.8925 14.8216 31.4401 13.889ZM31.7915 12.3772C33.0875 13.3499 34.8028 13.9368 36.6807 13.9368C40.6473 13.9368 43.926 11.318 43.926 8.0056C43.926 4.69324 40.6473 2.07448 36.6807 2.07448C32.714 2.07448 29.4354 4.69324 29.4354 8.0056C29.4354 8.19474 29.4463 8.38172 29.4675 8.56617C29.5113 8.9467 29.2501 9.29522 28.8724 9.35989C27.9331 9.52071 27.2124 10.3186 27.2124 11.2836C27.2124 12.366 28.1181 13.2371 29.2242 13.2371C29.8611 13.2371 30.4302 12.949 30.8001 12.4972C31.045 12.198 31.4822 12.1451 31.7915 12.3772ZM35.9696 4.33218V4.08225C35.9696 3.68403 36.2929 3.36068 36.6911 3.36068C37.0894 3.36068 37.4127 3.68403 37.4127 4.08225V4.32461C38.1518 4.50996 38.8268 4.999 39.1812 5.84207C39.3355 6.20916 39.1628 6.63254 38.7956 6.78687C38.4285 6.9412 38.0051 6.76847 37.8508 6.40137C37.5522 5.69081 36.7538 5.55272 36.1823 5.77776C35.8706 5.90042 35.6128 6.14594 35.6304 6.51195C35.6441 6.79111 35.8318 6.94516 36.0472 7.05042C36.2834 7.16587 36.5567 7.22955 36.8135 7.27185C37.9654 7.46036 39.2186 7.99947 39.3858 9.369L39.3859 9.37C39.5445 10.6838 38.5219 11.4671 37.4127 11.6998V11.9289C37.4127 12.3273 37.0894 12.6505 36.6911 12.6505C36.2929 12.6505 35.9696 12.3273 35.9696 11.9289V11.6892C35.0412 11.4731 34.251 10.8446 34.0027 9.84731C33.9065 9.46091 34.1421 9.06901 34.5286 8.97277C34.915 8.87662 35.3069 9.11221 35.4031 9.4987C35.5526 10.0993 36.168 10.3435 36.7548 10.3296C37.0214 10.3234 37.3115 10.2672 37.5566 10.1471C37.7912 10.0321 37.9897 9.8474 37.9533 9.54344C37.9133 9.21783 37.6847 9.0443 37.4267 8.92722C37.1621 8.80717 36.8615 8.74205 36.5806 8.69605L36.5798 8.69596C35.4485 8.50971 34.2546 7.92713 34.1889 6.58212L34.1888 6.58176C34.1389 5.54595 34.7718 4.78208 35.6536 4.43492C35.7561 4.3946 35.8617 4.36032 35.9696 4.33218ZM22.6511 12.2941C23.956 12.2941 25.0154 13.3535 25.0154 14.6584C25.0154 15.9632 23.956 17.0226 22.6511 17.0226C21.3463 17.0226 20.2869 15.9632 20.2869 14.6584C20.2869 13.3535 21.3463 12.2941 22.6511 12.2941ZM22.6511 13.7372C22.1428 13.7372 21.7301 14.1499 21.7301 14.6584C21.7301 15.1667 22.1428 15.5795 22.6511 15.5795C23.1595 15.5795 23.5722 15.1667 23.5722 14.6584C23.5722 14.1499 23.1595 13.7372 22.6511 13.7372Z" fill="black"/>
</g>
<defs>
<clipPath id="clip0_277_20">
<rect width="46" height="46" fill="white"/>
</clipPath>
</defs>
</svg>
