<svg width="39" height="39" viewBox="0 0 39 39" fill="none" xmlns="http://www.w3.org/2000/svg">
<g clip-path="url(#clip0_272_1986)">
<path d="M29.7832 18.4964C29.7832 17.1535 29.7832 6.93581 29.7832 5.71289C29.7832 5.08179 29.2717 4.57031 28.6406 4.57031H20.6426V1.14258C20.6426 0.511482 20.1311 0 19.5 0H10.3594C9.72828 0 9.2168 0.511482 9.2168 1.14258V4.57031H1.14258C0.511482 4.57031 0 5.08179 0 5.71289V28.7168C0 29.3479 0.511482 29.8594 1.14258 29.8594H18.4214C18.9915 34.9938 23.3568 39 28.6406 39C34.3529 39 39 34.3868 39 28.7168C39 23.43 34.9596 19.0629 29.7832 18.4964ZM11.502 2.28516H18.3574V4.57031H11.502V2.28516ZM27.498 6.85547V11.784L17.1018 13.8633H12.757L2.28516 11.7828V6.85547H27.498ZM13.7871 16.1484H16.0723V18.4336H13.7871V16.1484ZM2.28516 14.1126L11.502 15.9437V19.5762C11.502 20.2073 12.0134 20.7188 12.6445 20.7188H17.2148C17.8459 20.7188 18.3574 20.2073 18.3574 19.5762V15.9425L27.498 14.1144V18.4976C22.7388 19.026 18.9498 22.815 18.4214 27.5742H2.28516V14.1126ZM20.6426 28.7168C20.6426 24.6946 23.6273 21.357 27.498 20.8006V23.2003C26.168 23.6722 25.2129 24.9421 25.2129 26.4316C25.2129 28.3217 26.7506 29.8594 28.6406 29.8594C29.2705 29.8594 29.7832 30.372 29.7832 31.002C29.7832 31.6319 29.2705 32.1445 28.6406 32.1445C28.0107 32.1445 27.498 31.6319 27.498 31.002C27.498 30.3709 26.9866 29.8594 26.3555 29.8594C25.7244 29.8594 25.2129 30.3709 25.2129 31.002C25.2129 32.4915 26.168 33.7614 27.498 34.2333V36.633C23.6273 36.0766 20.6426 32.739 20.6426 28.7168ZM29.7832 36.6345V34.2333C31.1132 33.7614 32.0684 32.4915 32.0684 31.002C32.0684 29.1119 30.5306 27.5742 28.6406 27.5742C28.0107 27.5742 27.498 27.0615 27.498 26.4316C27.498 25.8017 28.0107 25.2891 28.6406 25.2891C29.2705 25.2891 29.7832 25.8017 29.7832 26.4316C29.7832 27.0627 30.2947 27.5742 30.9258 27.5742C31.5569 27.5742 32.0684 27.0627 32.0684 26.4316C32.0684 24.9421 31.1132 23.6722 29.7832 23.2003V20.7991C33.6962 21.3507 36.7148 24.6907 36.7148 28.7168C36.7148 32.7429 33.6962 36.0829 29.7832 36.6345Z" fill="black"/>
</g>
<defs>
<clipPath id="clip0_272_1986">
<rect width="39" height="39" fill="white"/>
</clipPath>
</defs>
</svg>
