<svg width="17" height="20" viewBox="0 0 17 20" fill="none" xmlns="http://www.w3.org/2000/svg">
<path d="M10.556 20L6.384 13.756C6.23467 13.5133 6.06667 13.3173 5.88 13.168C5.69333 13 5.488 12.8787 5.264 12.804C5.04 12.7107 4.788 12.664 4.508 12.664H0.588V9.332H5.796C6.76667 9.332 7.504 9.14533 8.008 8.772C8.53067 8.38 8.932 7.848 9.212 7.176L9.8 7.484H0.588V4.74H9.8L9.156 5.16C8.988 4.46933 8.652 3.93733 8.148 3.564C7.644 3.19067 6.87867 3.004 5.852 3.004H0.588V0.259999H16.268V3.004H12.208L12.572 2.556C13.0387 2.85467 13.3933 3.256 13.636 3.76C13.8787 4.24533 14.028 4.796 14.084 5.412L13.244 4.74H16.268V7.484H13.328L14.14 6.616C14.1027 7.792 13.804 8.828 13.244 9.724C12.684 10.6013 11.9 11.2827 10.892 11.768C9.90267 12.2347 8.72667 12.468 7.364 12.468V12.132H8.54C9.52933 12.132 10.3507 12.3 11.004 12.636C11.6573 12.9533 12.2547 13.4947 12.796 14.26L16.772 20H10.556Z" fill="#636564"/>
</svg>
