<svg width="42" height="42" viewBox="0 0 42 42" fill="none" xmlns="http://www.w3.org/2000/svg">
<circle cx="21" cy="21" r="20.5" fill="white" stroke="#F3F3F1"/>
<circle cx="21" cy="21" r="15" fill="#05B4E9"/>
<path d="M25.6032 13.8125H16.397C15.8813 13.8125 15.4595 14.2344 15.4595 14.75V27.25C15.4595 27.7656 15.8813 28.1875 16.397 28.1875H23.1501C23.322 28.1875 23.4626 28.0469 23.4626 27.875C23.4626 27.7031 23.322 27.5625 23.1501 27.5625H16.397C16.2251 27.5625 16.0845 27.4219 16.0845 27.25V14.75C16.0845 14.5781 16.2251 14.4375 16.397 14.4375H23.1688V16.6094C23.1688 17.125 23.5907 17.5469 24.1063 17.5469H25.9157V23.8219C25.9157 23.9937 26.0563 24.1344 26.2282 24.1344C26.4001 24.1344 26.5407 23.9937 26.5407 23.8219V14.75C26.5407 14.2344 26.1188 13.8125 25.6032 13.8125ZM24.1063 16.9219C23.9345 16.9219 23.7938 16.7813 23.7938 16.6094V14.4375H25.6032C25.7751 14.4375 25.9157 14.5781 25.9157 14.75V16.9219H24.1063Z" fill="white"/>
<path d="M25.0249 18.8312H16.9468C16.7749 18.8312 16.6343 18.9719 16.6343 19.1437C16.6343 19.3156 16.7749 19.4562 16.9468 19.4562H25.0249C25.1968 19.4562 25.3374 19.3156 25.3374 19.1437C25.3374 18.9719 25.1968 18.8312 25.0249 18.8312Z" fill="white"/>
<path d="M25.0249 20.0438H16.9468C16.7749 20.0438 16.6343 20.1844 16.6343 20.3563C16.6343 20.5281 16.7749 20.6688 16.9468 20.6688H25.0249C25.1968 20.6688 25.3374 20.5281 25.3374 20.3563C25.3374 20.1844 25.1968 20.0438 25.0249 20.0438Z" fill="white"/>
<path d="M25.0249 21.2531H16.9468C16.7749 21.2531 16.6343 21.3937 16.6343 21.5656C16.6343 21.7375 16.7749 21.8781 16.9468 21.8781H25.0249C25.1968 21.8781 25.3374 21.7375 25.3374 21.5656C25.3374 21.3937 25.1968 21.2531 25.0249 21.2531Z" fill="white"/>
<path d="M25.0249 22.4656H16.9468C16.7749 22.4656 16.6343 22.6063 16.6343 22.7781C16.6343 22.95 16.7749 23.0906 16.9468 23.0906H25.0249C25.1968 23.0906 25.3374 22.95 25.3374 22.7781C25.3374 22.6063 25.1968 22.4656 25.0249 22.4656Z" fill="white"/>
<path d="M21.6874 23.675H16.9468C16.7749 23.675 16.6343 23.8156 16.6343 23.9875C16.6343 24.1594 16.7749 24.3 16.9468 24.3H21.6874C21.8593 24.3 21.9999 24.1594 21.9999 23.9875C21.9999 23.8156 21.8593 23.675 21.6874 23.675Z" fill="white"/>
<path d="M21.6874 24.8875H16.9468C16.7749 24.8875 16.6343 25.0281 16.6343 25.2C16.6343 25.3719 16.7749 25.5125 16.9468 25.5125H21.6874C21.8593 25.5125 21.9999 25.3719 21.9999 25.2C21.9999 25.0281 21.8593 24.8875 21.6874 24.8875Z" fill="white"/>
<path d="M21.6874 26.0969H16.9468C16.7749 26.0969 16.6343 26.2375 16.6343 26.4094C16.6343 26.5812 16.7749 26.7219 16.9468 26.7219H21.6874C21.8593 26.7219 21.9999 26.5812 21.9999 26.4094C21.9999 26.2375 21.8593 26.0969 21.6874 26.0969Z" fill="white"/>
<path d="M23.7938 26.9281H22.9751C22.8032 26.9281 22.6626 26.7875 22.6626 26.6156C22.6626 26.4437 22.8032 26.3031 22.9751 26.3031H23.7938C23.9657 26.3031 24.1063 26.4437 24.1063 26.6156C24.1063 26.7875 23.9657 26.9281 23.7938 26.9281Z" fill="white"/>
<path d="M25.6784 23.4562C23.944 23.4562 22.5347 24.8656 22.5347 26.6C22.5347 28.3344 23.944 29.7437 25.6784 29.7437C27.4128 29.7437 28.8222 28.3344 28.8222 26.6C28.8222 24.8656 27.4128 23.4562 25.6784 23.4562ZM25.9909 29.1V28.5C25.9909 28.3281 25.8503 28.1875 25.6784 28.1875C25.5065 28.1875 25.3659 28.3281 25.3659 28.5V29.1C24.1253 28.9469 23.1597 27.8844 23.1597 26.6031C23.1597 25.3219 24.1253 24.2594 25.3659 24.1062V24.7344C25.3659 24.9062 25.5065 25.0469 25.6784 25.0469C25.8503 25.0469 25.9909 24.9062 25.9909 24.7344V24.1062C27.1347 24.25 28.044 25.1594 28.1784 26.3062H27.5628C27.3909 26.3062 27.2503 26.4469 27.2503 26.6187C27.2503 26.7906 27.3909 26.9312 27.5628 26.9312H28.1753C28.0284 28.0625 27.1253 28.9625 25.9909 29.1031V29.1Z" fill="white"/>
<path d="M26.3161 26.8938C26.3505 26.8219 26.3724 26.7438 26.3786 26.6625C26.3849 26.5844 26.3786 26.5094 26.3599 26.4375L27.4036 25.5563C27.5349 25.4438 27.5536 25.2469 27.4411 25.1156C27.3286 24.9844 27.1318 24.9656 27.0005 25.0781L25.9568 25.9594C25.888 25.9313 25.8161 25.9094 25.738 25.9031C25.5505 25.8875 25.3693 25.9438 25.2255 26.0656C25.0818 26.1875 24.9943 26.3563 24.9786 26.5438C24.963 26.7313 25.0193 26.9125 25.1411 27.0563C25.263 27.2 25.4318 27.2875 25.6193 27.3031H25.6818C25.7318 27.3031 25.7818 27.2969 25.8318 27.2844L26.3068 27.85C26.3693 27.925 26.4568 27.9625 26.5474 27.9625C26.6193 27.9625 26.6911 27.9375 26.7474 27.8906C26.8786 27.7781 26.8974 27.5813 26.7849 27.45L26.3161 26.8938ZM25.6286 26.5438C25.6474 26.5281 25.663 26.525 25.6786 26.525H25.6849C25.7005 26.525 25.7193 26.5313 25.738 26.5531C25.7568 26.5719 25.7568 26.5938 25.7568 26.6094C25.7568 26.625 25.7505 26.6438 25.7286 26.6625C25.7068 26.6813 25.6849 26.6813 25.6724 26.6813C25.6568 26.6813 25.638 26.675 25.6193 26.6531C25.6005 26.6344 25.6005 26.6125 25.6005 26.5969C25.6005 26.5813 25.6068 26.5625 25.6286 26.5438Z" fill="white"/>
<path d="M18.4876 16.1187C18.6157 16.1187 18.722 16.0125 18.722 15.8843C18.722 15.7562 18.6157 15.65 18.4876 15.65H16.6313C16.5032 15.65 16.397 15.7562 16.397 15.8843C16.397 16.0125 16.5032 16.1187 16.6313 16.1187H17.3251V17.875C17.3251 18.0031 17.4313 18.1093 17.5595 18.1093C17.6876 18.1093 17.7938 18.0031 17.7938 17.875V16.1187H18.4876Z" fill="white"/>
<path d="M19.4438 15.7781C19.4126 15.6812 19.3251 15.6125 19.222 15.6125C19.1157 15.6031 19.0282 15.6781 18.997 15.775L18.3345 17.8031C18.2938 17.925 18.3626 18.0594 18.4845 18.1C18.5095 18.1094 18.5345 18.1125 18.5563 18.1125C18.6563 18.1125 18.747 18.05 18.7782 17.95L18.897 17.5875H19.5095L19.6188 17.9469C19.6563 18.0719 19.7876 18.1406 19.9126 18.1031C20.0376 18.0656 20.1063 17.9344 20.0688 17.8094L19.4438 15.7812V15.7781ZM19.0501 17.1156L19.2126 16.6219L19.3657 17.1156H19.0501Z" fill="white"/>
<path d="M21.3437 16.875L21.9343 16.0563C22.0093 15.95 21.9875 15.8063 21.8812 15.7281C21.775 15.6531 21.6281 15.675 21.5531 15.7813L21.0562 16.4719L20.5593 15.7813C20.4843 15.675 20.3375 15.6531 20.2312 15.7281C20.125 15.8031 20.1031 15.95 20.1781 16.0563L20.7687 16.875L20.1781 17.6938C20.1031 17.8 20.125 17.9438 20.2312 18.0219C20.2718 18.0531 20.3218 18.0656 20.3687 18.0656C20.4406 18.0656 20.5125 18.0313 20.5593 17.9688L21.0562 17.2781L21.5531 17.9688C21.6 18.0313 21.6718 18.0656 21.7437 18.0656C21.7906 18.0656 21.8375 18.05 21.8812 18.0219C21.9875 17.9469 22.0093 17.8 21.9343 17.6938L21.3437 16.875Z" fill="white"/>
</svg>
