<svg width="42" height="42" viewBox="0 0 42 42" fill="none" xmlns="http://www.w3.org/2000/svg">
<circle cx="21" cy="21" r="20.5" fill="white" stroke="#F3F3F1"/>
<circle cx="21" cy="21" r="15" fill="#05B4E9"/>
<path d="M28.4199 25.1564V18.2029C28.4231 18.1782 28.4253 18.1532 28.4253 18.1276C28.4253 18.102 28.4231 18.077 28.4199 18.0523V15.8065C28.4199 14.5312 27.3824 13.4937 26.1071 13.4937H25.6135V13.0156C25.6135 12.692 25.3512 12.4297 25.0276 12.4297C24.704 12.4297 24.4416 12.692 24.4416 13.0156V13.4937H21.512V13.0156C21.512 12.692 21.2496 12.4297 20.926 12.4297C20.6024 12.4297 20.3401 12.692 20.3401 13.0156V13.4937H17.4104V13.0156C17.4104 12.692 17.1481 12.4297 16.8245 12.4297C16.5009 12.4297 16.2386 12.692 16.2386 13.0156V13.4937H15.7395C14.4643 13.4937 13.4268 14.5312 13.4268 15.8065V26.9772C13.4268 28.2524 14.4643 29.29 15.7395 29.29H24.115C24.5496 30.6125 25.7955 31.5703 27.2614 31.5703C29.0876 31.5703 30.5732 30.0847 30.5732 28.2586C30.5732 26.8398 29.6763 25.6271 28.4199 25.1564ZM15.7395 14.6656H16.2385V15.1436C16.2385 15.4672 16.5009 15.7296 16.8245 15.7296C17.148 15.7296 17.4104 15.4672 17.4104 15.1436V14.6656H20.34V15.1436C20.34 15.4672 20.6024 15.7296 20.926 15.7296C21.2496 15.7296 21.5119 15.4672 21.5119 15.1436V14.6656H24.4416V15.1436C24.4416 15.4672 24.7039 15.7296 25.0275 15.7296C25.3511 15.7296 25.6135 15.4672 25.6135 15.1436V14.6656H26.1071C26.7362 14.6656 27.248 15.1774 27.248 15.8065V17.5417H14.5986V15.8065C14.5986 15.1774 15.1105 14.6656 15.7395 14.6656ZM14.5986 26.9772V18.7136H27.248V24.9471C25.4752 24.9543 24.027 26.3614 23.9533 28.1181H15.7395C15.1105 28.1181 14.5986 27.6063 14.5986 26.9772ZM27.2614 30.3984C26.0815 30.3984 25.1216 29.4385 25.1216 28.2586C25.1216 27.0786 26.0815 26.1187 27.2614 26.1187C28.4414 26.1187 29.4013 27.0786 29.4013 28.2586C29.4013 29.4385 28.4414 30.3984 27.2614 30.3984ZM17.9088 20.3004C17.9088 20.6239 17.6465 20.8863 17.3229 20.8863H16.2358C15.9122 20.8863 15.6498 20.6239 15.6498 20.3004C15.6498 19.9768 15.9122 19.7144 16.2358 19.7144H17.3229C17.6465 19.7144 17.9088 19.9768 17.9088 20.3004ZM20.6733 20.3004C20.6733 20.6239 20.4109 20.8863 20.0873 20.8863H19.0002C18.6766 20.8863 18.4143 20.6239 18.4143 20.3004C18.4143 19.9768 18.6766 19.7144 19.0002 19.7144H20.0873C20.4109 19.7144 20.6733 19.9768 20.6733 20.3004ZM23.4378 20.3004C23.4378 20.6239 23.1754 20.8863 22.8518 20.8863H21.7647C21.4411 20.8863 21.1788 20.6239 21.1788 20.3004C21.1788 19.9768 21.4411 19.7144 21.7647 19.7144H22.8518C23.1754 19.7144 23.4378 19.9768 23.4378 20.3004ZM23.9432 20.3004C23.9432 19.9768 24.2056 19.7144 24.5292 19.7144H25.6163C25.9399 19.7144 26.2022 19.9768 26.2022 20.3004C26.2022 20.6239 25.9399 20.8863 25.6163 20.8863H24.5292C24.2056 20.8863 23.9432 20.6239 23.9432 20.3004ZM17.9088 22.3423C17.9088 22.6659 17.6465 22.9282 17.3229 22.9282H16.2358C15.9122 22.9282 15.6498 22.6659 15.6498 22.3423C15.6498 22.0187 15.9122 21.7564 16.2358 21.7564H17.3229C17.6465 21.7564 17.9088 22.0187 17.9088 22.3423ZM20.6733 22.3423C20.6733 22.6659 20.4109 22.9282 20.0873 22.9282H19.0002C18.6766 22.9282 18.4143 22.6659 18.4143 22.3423C18.4143 22.0187 18.6766 21.7564 19.0002 21.7564H20.0873C20.4109 21.7564 20.6733 22.0187 20.6733 22.3423ZM23.4378 22.3423C23.4378 22.6659 23.1754 22.9282 22.8518 22.9282H21.7647C21.4411 22.9282 21.1788 22.6659 21.1788 22.3423C21.1788 22.0187 21.4411 21.7564 21.7647 21.7564H22.8518C23.1754 21.7564 23.4378 22.0187 23.4378 22.3423ZM23.9432 22.3423C23.9432 22.0187 24.2056 21.7564 24.5292 21.7564H25.6163C25.9399 21.7564 26.2022 22.0187 26.2022 22.3423C26.2022 22.6659 25.9399 22.9282 25.6163 22.9282H24.5292C24.2056 22.9282 23.9432 22.6659 23.9432 22.3423ZM17.9088 24.3843C17.9088 24.7079 17.6465 24.9702 17.3229 24.9702H16.2358C15.9122 24.9702 15.6498 24.7079 15.6498 24.3843C15.6498 24.0607 15.9122 23.7983 16.2358 23.7983H17.3229C17.6465 23.7983 17.9088 24.0607 17.9088 24.3843ZM20.6733 24.3843C20.6733 24.7079 20.4109 24.9702 20.0873 24.9702H19.0002C18.6766 24.9702 18.4143 24.7079 18.4143 24.3843C18.4143 24.0607 18.6766 23.7983 19.0002 23.7983H20.0873C20.4109 23.7983 20.6733 24.0607 20.6733 24.3843ZM23.4378 24.3843C23.4378 24.7079 23.1754 24.9702 22.8518 24.9702H21.7647C21.4411 24.9702 21.1788 24.7079 21.1788 24.3843C21.1788 24.0607 21.4411 23.7983 21.7647 23.7983H22.8518C23.1754 23.7983 23.4378 24.0607 23.4378 24.3843ZM23.9432 24.3843C23.9432 24.0607 24.2056 23.7983 24.5292 23.7983H25.6163C25.9399 23.7983 26.2022 24.0607 26.2022 24.3843C26.2022 24.7079 25.9399 24.9702 25.6163 24.9702H24.5292C24.2056 24.9702 23.9432 24.7079 23.9432 24.3843ZM17.9088 26.4262C17.9088 26.7498 17.6465 27.0121 17.3229 27.0121H16.2358C15.9122 27.0121 15.6498 26.7498 15.6498 26.4262C15.6498 26.1026 15.9122 25.8403 16.2358 25.8403H17.3229C17.6465 25.8403 17.9088 26.1026 17.9088 26.4262ZM20.6733 26.4262C20.6733 26.7498 20.4109 27.0121 20.0873 27.0121H19.0002C18.6766 27.0121 18.4143 26.7498 18.4143 26.4262C18.4143 26.1026 18.6766 25.8403 19.0002 25.8403H20.0873C20.4109 25.8403 20.6733 26.1026 20.6733 26.4262ZM23.4378 26.4262C23.4378 26.7498 23.1754 27.0121 22.8518 27.0121H21.7647C21.4411 27.0121 21.1788 26.7498 21.1788 26.4262C21.1788 26.1026 21.4411 25.8403 21.7647 25.8403H22.8518C23.1754 25.8403 23.4378 26.1026 23.4378 26.4262ZM28.5643 27.7189C28.6498 27.5074 28.6068 27.2561 28.4354 27.0846C28.2639 26.9132 28.0126 26.8702 27.8011 26.9557C27.712 26.7457 27.5039 26.5984 27.2614 26.5984C27.0189 26.5984 26.8109 26.7457 26.7218 26.9557C26.5103 26.8702 26.259 26.9132 26.0875 27.0846C25.9161 27.2561 25.8731 27.5074 25.9586 27.7189C25.7486 27.808 25.6013 28.0161 25.6013 28.2586C25.6013 28.5011 25.7486 28.7091 25.9586 28.7982C25.8731 29.0097 25.9161 29.261 26.0875 29.4325C26.202 29.5469 26.3519 29.6041 26.5018 29.6041C26.5766 29.6041 26.6514 29.5899 26.7218 29.5614C26.8109 29.7714 27.0189 29.9187 27.2614 29.9187C27.5039 29.9187 27.712 29.7714 27.801 29.5614C27.8714 29.5899 27.9462 29.6041 28.021 29.6041C28.1709 29.6041 28.3209 29.5469 28.4353 29.4325C28.6068 29.261 28.6497 29.0097 28.5642 28.7982C28.7742 28.7091 28.9215 28.5011 28.9215 28.2586C28.9216 28.0161 28.7743 27.808 28.5643 27.7189ZM27.2614 28.4412C27.1607 28.4412 27.0788 28.3593 27.0788 28.2586C27.0788 28.1579 27.1607 28.0759 27.2614 28.0759C27.3621 28.0759 27.4441 28.1579 27.4441 28.2586C27.4441 28.3593 27.3621 28.4412 27.2614 28.4412Z" fill="white"/>
</svg>
