<svg width="42" height="42" viewBox="0 0 42 42" fill="none" xmlns="http://www.w3.org/2000/svg">
<circle cx="21" cy="21" r="20.5" fill="white" stroke="#F3F3F1"/>
<circle cx="21" cy="21" r="15" fill="#05B4E9"/>
<path d="M25.3379 14.1079C22.9222 14.1079 20.957 16.0731 20.957 18.4888C20.957 20.9045 22.9222 22.8697 25.3379 22.8697C27.7535 22.8697 29.7188 20.9045 29.7188 18.4888C29.7188 16.0731 27.7535 14.1079 25.3379 14.1079ZM25.3379 22.3072C23.2324 22.3072 21.5195 20.5942 21.5195 18.4888C21.5195 16.3834 23.2324 14.6704 25.3379 14.6704C27.4434 14.6704 29.1562 16.3833 29.1562 18.4888C29.1562 20.5943 27.4433 22.3072 25.3379 22.3072ZM25.3379 15.0146C23.4222 15.0146 21.8637 16.5731 21.8637 18.4888C21.8637 20.4045 23.4222 21.963 25.3379 21.963C27.2535 21.963 28.812 20.4045 28.812 18.4888C28.812 16.5731 27.2535 15.0146 25.3379 15.0146ZM25.3379 21.4005C23.7323 21.4005 22.4262 20.0943 22.4262 18.4888C22.4262 16.8832 23.7323 15.5771 25.3379 15.5771C26.9434 15.5771 28.2495 16.8832 28.2495 18.4888C28.2495 20.0943 26.9434 21.4005 25.3379 21.4005ZM26.388 19.0951C26.3359 19.1853 26.2413 19.2357 26.1441 19.2357C26.0964 19.2357 26.0481 19.2236 26.0038 19.198L25.1972 18.7323C25.1102 18.6821 25.0566 18.5893 25.0566 18.4888V17.2808C25.0566 17.1254 25.1825 16.9995 25.3379 16.9995C25.4932 16.9995 25.6191 17.1254 25.6191 17.2808V18.3264L26.285 18.7109C26.4195 18.7885 26.4657 18.9606 26.388 19.0951ZM25.0566 16.2221V15.9466C25.0566 15.7913 25.1825 15.6653 25.3379 15.6653C25.4932 15.6653 25.6191 15.7913 25.6191 15.9466V16.2221C25.6191 16.3775 25.4932 16.5034 25.3379 16.5034C25.1825 16.5034 25.0566 16.3775 25.0566 16.2221ZM26.7417 17.0849C26.6319 16.975 26.6319 16.797 26.7417 16.6871L26.9366 16.4923C27.0464 16.3825 27.2245 16.3826 27.3343 16.4923C27.4441 16.6022 27.4441 16.7802 27.3343 16.8901L27.1394 17.0849C27.0845 17.1398 27.0125 17.1673 26.9406 17.1673C26.8686 17.1673 26.7966 17.1398 26.7417 17.0849ZM27.3343 20.0875C27.4442 20.1973 27.4442 20.3754 27.3343 20.4852C27.2794 20.5401 27.2075 20.5676 27.1355 20.5676C27.0635 20.5676 26.9915 20.5401 26.9366 20.4852L26.7417 20.2903C26.6319 20.1805 26.6319 20.0025 26.7417 19.8926C26.8516 19.7828 27.0296 19.7828 27.1395 19.8926L27.3343 20.0875ZM23.934 19.8926C24.0438 20.0025 24.0438 20.1805 23.934 20.2903L23.7391 20.4852C23.6842 20.5401 23.6123 20.5676 23.5403 20.5676C23.4683 20.5676 23.3963 20.5401 23.3414 20.4852C23.2315 20.3754 23.2315 20.1973 23.3414 20.0875L23.5362 19.8926C23.6461 19.7828 23.8241 19.7828 23.934 19.8926ZM23.3414 16.8901C23.2315 16.7802 23.2315 16.6022 23.3414 16.4923C23.4512 16.3825 23.6293 16.3825 23.7391 16.4923L23.934 16.6871C24.0438 16.797 24.0438 16.975 23.934 17.0849C23.8791 17.1398 23.8071 17.1673 23.7351 17.1673C23.6631 17.1673 23.5912 17.1399 23.5363 17.0849L23.3414 16.8901ZM28.1613 18.4888C28.1613 18.6441 28.0354 18.77 27.88 18.77H27.6045C27.4491 18.77 27.3232 18.6441 27.3232 18.4888C27.3232 18.3334 27.4491 18.2075 27.6045 18.2075H27.88C28.0354 18.2075 28.1613 18.3334 28.1613 18.4888ZM25.6191 20.7554V21.031C25.6191 21.1863 25.4932 21.3122 25.3379 21.3122C25.1825 21.3122 25.0566 21.1863 25.0566 21.031V20.7554C25.0566 20.6001 25.1825 20.4741 25.3379 20.4741C25.4932 20.4741 25.6191 20.6001 25.6191 20.7554ZM23.0712 18.77H22.7957C22.6404 18.77 22.5144 18.6441 22.5144 18.4888C22.5144 18.3334 22.6404 18.2075 22.7957 18.2075H23.0712C23.2266 18.2075 23.3525 18.3334 23.3525 18.4888C23.3525 18.6441 23.2266 18.77 23.0712 18.77ZM24.5833 25.0007H14.7243C14.675 25.0007 14.6265 25.0137 14.5837 25.0384L12.5669 26.2029C12.4798 26.2531 12.4262 26.3459 12.4262 26.4464C12.4262 26.5469 12.4798 26.6397 12.5669 26.69L14.5837 27.8544C14.6265 27.8791 14.675 27.8921 14.7243 27.8921H24.5833C25.2734 27.8921 25.8349 27.3306 25.8349 26.6405V26.2524C25.8348 25.5622 25.2734 25.0007 24.5833 25.0007ZM14.4431 25.7691V27.1237L13.27 26.4464L14.4431 25.7691ZM25.2723 26.6405C25.2723 27.0205 24.9632 27.3296 24.5832 27.3296H15.0056V25.5633H24.5833C24.9632 25.5633 25.2724 25.8724 25.2724 26.2524V26.6405H25.2723ZM20.1622 24.3453C20.3175 24.3453 20.4434 24.2194 20.4434 24.0641V20.6123C20.4434 19.7486 19.7787 19.0884 18.6197 18.801C18.0932 18.6703 17.5674 18.5849 17.0438 18.5445C17.8071 18.1904 18.3535 17.259 18.3535 16.1685C18.3535 14.8975 17.5905 14.1079 16.3623 14.1079C15.1341 14.1079 14.3711 14.8975 14.3711 16.1685C14.3711 17.2567 14.9153 18.1866 15.6761 18.5424C15.147 18.5818 14.6218 18.668 14.1025 18.8016C12.9281 19.1034 12.2812 19.7465 12.2812 20.6123V24.0641C12.2812 24.2194 12.4072 24.3453 12.5625 24.3453H20.1622ZM14.9336 16.1685C14.9336 14.865 15.8287 14.6704 16.3623 14.6704C16.8959 14.6704 17.791 14.865 17.791 16.1685C17.791 17.2527 17.1501 18.1347 16.3623 18.1347C15.5745 18.1347 14.9336 17.2527 14.9336 16.1685ZM12.8438 20.6123C12.8438 19.8631 13.6045 19.5103 14.2426 19.3463C15.6239 18.9911 17.051 18.9913 18.4843 19.3469C19.0059 19.4763 19.8809 19.8127 19.8809 20.6123V23.7828H18.7167V21.4058C18.7167 21.2505 18.5908 21.1245 18.4355 21.1245C18.2801 21.1245 18.1542 21.2505 18.1542 21.4058V23.7828H14.5704V21.4058C14.5704 21.2505 14.4444 21.1245 14.2891 21.1245C14.1338 21.1245 14.0079 21.2505 14.0079 21.4058V23.7828H12.8438V20.6123Z" fill="white"/>
</svg>
