<svg width="42" height="42" viewBox="0 0 42 42" fill="none" xmlns="http://www.w3.org/2000/svg">
<circle cx="21" cy="21" r="20.5" fill="white" stroke="#F3F3F1"/>
<circle cx="21" cy="21" r="15" fill="#05B4E9"/>
<path d="M20.9979 17.2924C21.9686 17.2924 22.762 16.5031 22.762 15.5325C22.762 14.5575 21.9686 13.764 20.9979 13.764C20.0272 13.764 19.238 14.5575 19.238 15.5325C19.238 16.5031 20.0272 17.2924 20.9979 17.2924ZM20.9979 14.1903C21.7364 14.1903 22.3357 14.7938 22.3357 15.5325C22.3357 16.2667 21.7364 16.8661 20.9979 16.8661C20.2635 16.8661 19.6642 16.2667 19.6642 15.5325C19.6642 14.7939 20.2635 14.1903 20.9979 14.1903ZM17.8916 16.2202H18.3517C18.4149 16.4609 18.5121 16.6887 18.6386 16.9082L18.3137 17.2332C18.2714 17.2712 18.2503 17.3261 18.2503 17.381C18.2503 17.4401 18.2714 17.495 18.3137 17.5329L18.9932 18.2125C19.0733 18.2968 19.2084 18.2968 19.2928 18.2125L19.6178 17.8917C19.833 18.014 20.0609 18.111 20.3057 18.1744V18.6345C20.3057 18.7526 20.3986 18.8456 20.5167 18.8456H21.479C21.5971 18.8456 21.6942 18.7526 21.6942 18.6345V18.1744C21.9348 18.111 22.1669 18.0141 22.3779 17.8917L22.7029 18.2125C22.7831 18.2968 22.9181 18.2968 23.0025 18.2125L23.682 17.5329C23.7201 17.495 23.7453 17.4401 23.7453 17.3852C23.7453 17.3261 23.7201 17.2712 23.682 17.2332L23.357 16.9082C23.4879 16.6887 23.5807 16.4609 23.6441 16.2202H24.0998C24.218 16.2202 24.3151 16.1275 24.3151 16.0094V15.0513C24.3151 14.9332 24.218 14.8361 24.0998 14.8361H23.6441C23.5807 14.5996 23.4879 14.3676 23.357 14.148L23.682 13.8232C23.7201 13.7851 23.7453 13.7303 23.7453 13.6755C23.7453 13.6163 23.7201 13.5615 23.682 13.5234L23.0025 12.8439C22.9181 12.7595 22.7831 12.7595 22.7029 12.8439L22.3779 13.1648C22.1669 13.0424 21.9348 12.9495 21.6942 12.8819V12.4262C21.6942 12.308 21.5971 12.2109 21.479 12.2109H20.5167C20.3986 12.2109 20.3057 12.308 20.3057 12.4262V12.8819C20.0609 12.9495 19.833 13.0424 19.6178 13.1689L19.2928 12.8439C19.2084 12.7595 19.0733 12.7595 18.9932 12.8439L18.3137 13.5234C18.2714 13.5615 18.2503 13.6162 18.2503 13.6754C18.2503 13.7303 18.2714 13.7851 18.3137 13.8232L18.6386 14.148C18.5121 14.3675 18.4149 14.5955 18.3517 14.836H17.8916C17.7735 14.836 17.6805 14.9332 17.6805 15.0512V16.0093C17.6806 16.1275 17.7735 16.2202 17.8916 16.2202ZM18.1069 15.2624H18.5205C18.6218 15.2624 18.7104 15.1905 18.7314 15.0893C18.7906 14.7896 18.9087 14.4984 19.086 14.2367C19.1451 14.1524 19.1324 14.0384 19.0606 13.9666L18.7653 13.6711L19.1409 13.2956L19.4405 13.591C19.5123 13.6586 19.6262 13.6711 19.7106 13.6121C19.9597 13.4433 20.2467 13.3251 20.559 13.2618C20.6602 13.2407 20.732 13.1562 20.732 13.0549V12.6371H21.268V13.0549C21.268 13.1562 21.3397 13.2407 21.4368 13.2618C21.7491 13.3251 22.0361 13.4433 22.2892 13.6121C22.3737 13.6711 22.4877 13.6586 22.5595 13.5868L22.8506 13.2956L23.2305 13.6755L22.9393 13.9666C22.8676 14.0384 22.8549 14.1524 22.9097 14.2367C23.087 14.5026 23.2052 14.7896 23.2642 15.0893C23.2811 15.1905 23.3697 15.2624 23.471 15.2624H23.8889V15.7941H23.471C23.3697 15.7941 23.2811 15.8658 23.2642 15.9671C23.2052 16.2667 23.087 16.5538 22.9097 16.8239C22.8548 16.9082 22.8676 17.018 22.9393 17.0897L23.2305 17.3852L22.8506 17.7609L22.5595 17.4695C22.4877 17.3978 22.3737 17.3852 22.2892 17.4442C22.0361 17.6131 21.7491 17.7313 21.4368 17.7946C21.3397 17.8157 21.268 17.9042 21.268 18.0055V18.4192H20.732V18.0055C20.732 17.9042 20.6602 17.8157 20.559 17.7946C20.2467 17.7312 19.9597 17.6131 19.7106 17.4442C19.6263 17.3852 19.5123 17.3978 19.4405 17.4695L19.1409 17.7609L18.7653 17.3852L19.0606 17.0939C19.1324 17.0223 19.1451 16.9082 19.086 16.8239C18.9087 16.558 18.7906 16.2709 18.7314 15.9671C18.7104 15.8658 18.6218 15.7941 18.5205 15.7941H18.1069V15.2624ZM28.6157 21.2089H27.5479V20.141C27.5479 20.0229 27.4509 19.9258 27.3327 19.9258H21.2131V19.2337C21.2131 19.1156 21.116 19.0185 20.9979 19.0185C20.8797 19.0185 20.7868 19.1156 20.7868 19.2337V19.9258H14.663C14.5449 19.9258 14.452 20.023 14.452 20.1411V21.2089H13.3799C13.2618 21.2089 13.1689 21.306 13.1689 21.4242V23.9943C13.1689 24.1126 13.2618 24.2053 13.3799 24.2053H15.9502C16.0684 24.2053 16.1655 24.1126 16.1655 23.9943V21.4242C16.1655 21.306 16.0684 21.2089 15.9502 21.2089H14.8782V20.3521H20.7868V21.2089H19.7149C19.5967 21.2089 19.5038 21.306 19.5038 21.4242V23.9943C19.5038 24.1126 19.5967 24.2053 19.7149 24.2053H22.2809C22.399 24.2053 22.4961 24.1126 22.4961 23.9943V21.4242C22.4961 21.306 22.399 21.2089 22.2809 21.2089H21.2131V20.3521H27.1218V21.2089H26.0455C25.9274 21.2089 25.8344 21.306 25.8344 21.4242V23.9943C25.8344 24.1126 25.9274 24.2053 26.0455 24.2053H28.6157C28.7338 24.2053 28.8309 24.1126 28.8309 23.9943V21.4242C28.831 21.3059 28.7339 21.2089 28.6157 21.2089ZM15.7391 21.6351V23.7792H13.5952V21.6351H15.7391ZM22.0699 21.6351V23.7792H19.9301V21.6351H22.0699ZM28.4047 23.7792H26.2607V21.6351H28.4047V23.7792H28.4047ZM26.4338 26.7926H25.3617V25.7248C25.3617 25.6066 25.2647 25.5095 25.1466 25.5095H21.2131V24.8174C21.2131 24.6992 21.116 24.6021 20.9979 24.6021C20.8797 24.6021 20.7868 24.6992 20.7868 24.8174V25.5095H16.8449C16.7268 25.5095 16.6339 25.6066 16.6339 25.7248V26.7926H15.562C15.4438 26.7926 15.3509 26.8895 15.3509 27.0078V29.5779C15.3509 29.6961 15.4438 29.7891 15.562 29.7891H18.1322C18.2503 29.7891 18.3474 29.6961 18.3474 29.5779V27.0078C18.3474 26.8895 18.2504 26.7926 18.1322 26.7926H17.0602V25.9357H20.7868V26.7926H19.7149C19.5967 26.7926 19.5038 26.8895 19.5038 27.0078V29.5779C19.5038 29.6961 19.5967 29.7891 19.7149 29.7891H22.2809C22.399 29.7891 22.4961 29.6961 22.4961 29.5779V27.0078C22.4961 26.8895 22.399 26.7926 22.2809 26.7926H21.2131V25.9357H24.9356V26.7926H23.8635C23.7454 26.7926 23.6525 26.8895 23.6525 27.0078V29.5779C23.6525 29.6961 23.7454 29.7891 23.8635 29.7891H26.4338C26.5519 29.7891 26.649 29.6961 26.649 29.5779V27.0078C26.649 26.8895 26.5519 26.7926 26.4338 26.7926ZM17.9212 27.2188V29.3627H15.7772V27.2188H17.9212ZM22.0699 27.2188V29.3627H19.9301V27.2188H22.0699ZM26.2227 29.3627H24.0787V27.2188H26.2227V29.3627Z" fill="white"/>
</svg>
