<svg width="42" height="42" viewBox="0 0 42 42" fill="none" xmlns="http://www.w3.org/2000/svg">
<circle cx="21" cy="21" r="20.5" fill="white" stroke="#F3F3F1"/>
<circle cx="21" cy="21" r="15" fill="#05B4E9"/>
<g clip-path="url(#clip0_150_4399)">
<path d="M17.8235 16.0294C17.8235 14.275 19.2455 12.853 21 12.853C22.7544 12.853 24.1765 14.2749 24.1765 16.0294C24.1765 17.7839 22.7545 19.2059 21 19.2059C19.2456 19.2059 17.8235 17.784 17.8235 16.0294ZM22.0758 14.2049C21.7605 14.0187 21.3928 13.9118 21 13.9118C19.8303 13.9118 18.8824 14.8598 18.8824 16.0294C18.8824 16.4222 18.9892 16.79 19.1755 17.1052L22.0758 14.2049ZM22.8245 14.9536L19.9242 17.8539C20.2395 18.0402 20.6072 18.1471 21 18.1471C22.1697 18.1471 23.1176 17.1991 23.1176 16.0294C23.1176 15.6367 23.0108 15.2689 22.8245 14.9536ZM20.0552 21.1617C20.2597 21.3706 20.2562 21.7058 20.0473 21.9103C19.8384 22.1149 19.5032 22.1113 19.2986 21.9024C18.2193 20.8001 17.1149 20.2647 15.9706 20.2647C14.3625 20.2647 13.0588 21.5684 13.0588 23.1765C13.0588 24.7846 14.3625 26.0883 15.9706 26.0883C17.5651 26.0883 19.0948 25.0416 20.5619 22.8793C22.2078 20.4534 24.0311 19.2059 26.0294 19.2059C28.2223 19.2059 30 20.9836 30 23.1765C30 25.3694 28.2223 27.1471 26.0294 27.1471C24.5778 27.1471 23.2114 26.4848 21.9452 25.1917C21.7406 24.9828 21.7441 24.6476 21.953 24.443C22.162 24.2385 22.4972 24.242 22.7017 24.4509C23.7809 25.553 24.8852 26.0883 26.0294 26.0883C27.6375 26.0883 28.9412 24.7846 28.9412 23.1765C28.9412 21.5684 27.6375 20.2647 26.0294 20.2647C24.4349 20.2647 22.9052 21.3113 21.4381 23.4737C19.7922 25.8996 17.9689 27.1471 15.9706 27.1471C13.7777 27.1471 12 25.3694 12 23.1765C12 20.9836 13.7777 19.2059 15.9706 19.2059C17.4224 19.2059 18.7889 19.8684 20.0552 21.1617Z" fill="white"/>
</g>
<defs>
<clipPath id="clip0_150_4399">
<rect width="18" height="18" fill="white" transform="translate(12 11)"/>
</clipPath>
</defs>
</svg>
