<svg width="42" height="42" viewBox="0 0 42 42" fill="none" xmlns="http://www.w3.org/2000/svg">
<circle cx="21" cy="21" r="20.5" fill="white" stroke="#F3F3F1"/>
<circle cx="21" cy="21" r="15" fill="#05B4E9"/>
<g clip-path="url(#clip0_150_4405)">
<path d="M24.3235 22.5684C24.3235 22.7065 24.2115 22.8184 24.0735 22.8184H16.27C16.132 22.8184 16.02 22.7065 16.02 22.5684C16.02 22.4303 16.132 22.3184 16.27 22.3184H24.0735C24.2115 22.3184 24.3235 22.4303 24.3235 22.5684ZM16.27 21.4598H22.6535C22.7915 21.4598 22.9035 21.3479 22.9035 21.2098C22.9035 21.0717 22.7915 20.9598 22.6535 20.9598H16.27C16.1319 20.9598 16.02 21.0717 16.02 21.2098C16.02 21.3479 16.1319 21.4598 16.27 21.4598ZM16.27 20.0978H24.0735C24.2115 20.0978 24.3235 19.9859 24.3235 19.8478C24.3235 19.7098 24.2115 19.5978 24.0735 19.5978H16.27C16.132 19.5978 16.02 19.7098 16.02 19.8478C16.02 19.9859 16.132 20.0978 16.27 20.0978ZM23.136 23.6804H16.27C16.132 23.6804 16.02 23.7923 16.02 23.9304C16.02 24.0684 16.132 24.1804 16.27 24.1804H23.136C23.274 24.1804 23.386 24.0684 23.386 23.9304C23.386 23.7923 23.274 23.6804 23.136 23.6804ZM16.0597 18.3357V17.6397C16.0597 17.0388 16.4841 16.5286 17.0688 16.3542C16.9916 16.1982 16.9479 16.0227 16.9479 15.8372C16.9479 15.1923 17.4726 14.6676 18.1175 14.6676C18.7624 14.6676 19.2871 15.1923 19.2871 15.8372C19.2871 16.0227 19.2435 16.1982 19.1662 16.3542C19.7508 16.5286 20.1753 17.0388 20.1753 17.6397V18.3357C20.1753 18.4738 20.0634 18.5857 19.9253 18.5857H16.3097C16.1716 18.5857 16.0597 18.4738 16.0597 18.3357ZM17.4479 15.8371C17.4479 16.2063 17.7483 16.5067 18.1175 16.5067C18.4867 16.5067 18.7871 16.2063 18.7871 15.8371C18.7871 15.4679 18.4867 15.1675 18.1175 15.1675C17.7483 15.1675 17.4479 15.4679 17.4479 15.8371ZM16.5597 18.0857H19.6753V17.6397C19.6753 17.1914 19.2845 16.8233 18.7912 16.7923C18.6006 16.9271 18.3682 17.0067 18.1175 17.0067C17.8668 17.0067 17.6344 16.9271 17.4438 16.7923C16.9505 16.8233 16.5597 17.1913 16.5597 17.6397V18.0857ZM28.8752 26.8862C28.2914 27.47 27.5246 27.7618 26.7577 27.7618C26.6015 27.7618 26.4452 27.7491 26.2906 27.7248V28.5C26.2906 28.638 26.1786 28.75 26.0406 28.75H17.6774C17.669 28.75 17.6606 28.7495 17.6524 28.7487C17.6463 28.7481 17.6404 28.7471 17.6345 28.7461C17.6324 28.7457 17.6303 28.7455 17.6281 28.7451C17.6211 28.7437 17.6143 28.7419 17.6075 28.7399C17.6065 28.7396 17.6055 28.7394 17.6045 28.7392C17.5976 28.7371 17.591 28.7346 17.5844 28.732C17.5834 28.7316 17.5824 28.7313 17.5815 28.7309C17.5754 28.7284 17.5694 28.7255 17.5636 28.7224C17.5622 28.7217 17.5607 28.7211 17.5593 28.7204C17.5541 28.7176 17.5491 28.7144 17.5441 28.7113C17.5421 28.71 17.5401 28.709 17.5383 28.7078C17.534 28.7048 17.5299 28.7016 17.5258 28.6985C17.5234 28.6967 17.5209 28.695 17.5186 28.6931C17.5151 28.6902 17.5118 28.687 17.5084 28.6839C17.5058 28.6815 17.5031 28.6793 17.5006 28.6768L14.3222 25.4984C14.3197 25.4959 14.3175 25.4932 14.3151 25.4906C14.312 25.4873 14.3088 25.484 14.3059 25.4804C14.304 25.4781 14.3023 25.4756 14.3005 25.4733C14.2974 25.4691 14.2941 25.4651 14.2913 25.4607C14.29 25.4589 14.289 25.4569 14.2878 25.455C14.2846 25.45 14.2815 25.4449 14.2786 25.4397C14.2779 25.4383 14.2773 25.4368 14.2766 25.4354C14.2736 25.4296 14.2707 25.4237 14.2681 25.4175C14.2677 25.4166 14.2674 25.4156 14.2671 25.4146C14.2644 25.4081 14.2619 25.4014 14.2599 25.3945C14.2596 25.3936 14.2594 25.3926 14.2591 25.3916C14.2571 25.3848 14.2553 25.3779 14.2539 25.3709C14.2535 25.3688 14.2533 25.3666 14.2529 25.3645C14.2519 25.3586 14.2509 25.3527 14.2503 25.3467C14.2495 25.3384 14.249 25.3301 14.249 25.3217V13.5C14.249 13.3619 14.361 13.25 14.499 13.25H26.0406C26.1786 13.25 26.2906 13.3619 26.2906 13.5V21.8125C27.2045 21.6693 28.1725 21.9484 28.8752 22.6512C30.0428 23.8188 30.0428 25.7186 28.8752 26.8862ZM17.4274 25.5717H15.1026L17.4274 27.8965V25.5717ZM25.7906 27.602C25.37 27.4592 24.9749 27.2209 24.6402 26.8862C23.4727 25.7186 23.4727 23.8188 24.6402 22.6512C24.9749 22.3164 25.37 22.0782 25.7906 21.9354V13.75H14.749V25.0717H17.6774C17.8154 25.0717 17.9274 25.1836 17.9274 25.3217V28.25H25.7906V27.602ZM28.5217 23.0047C27.8729 22.3559 26.9527 22.1405 26.1231 22.3574C26.1113 22.3615 26.0992 22.3648 26.0866 22.3672C25.6862 22.4784 25.3081 22.6905 24.9938 23.0047C24.0211 23.9773 24.0211 25.56 24.9938 26.5326C25.3081 26.8469 25.6863 27.0591 26.0869 27.1702C26.0993 27.1725 26.1113 27.1758 26.123 27.1799C26.9526 27.3969 27.8729 27.1815 28.5217 26.5326C29.4944 25.56 29.4944 23.9773 28.5217 23.0047H28.5217ZM26.7577 23.5093C27.036 23.5093 27.2624 23.7357 27.2624 24.014C27.2624 24.1521 27.3743 24.264 27.5124 24.264C27.6505 24.264 27.7624 24.1521 27.7624 24.014C27.7624 23.5463 27.4411 23.1523 27.0077 23.0408V22.894C27.0077 22.7559 26.8958 22.644 26.7577 22.644C26.6197 22.644 26.5077 22.7559 26.5077 22.894V23.0408C26.18 23.1251 25.9166 23.3711 25.8076 23.6882C25.805 23.6951 25.8026 23.7021 25.8005 23.7093C25.7698 23.8054 25.7531 23.9078 25.7531 24.014C25.7531 24.1202 25.7698 24.2226 25.8005 24.3188C25.8025 24.3258 25.8049 24.3327 25.8075 24.3395C25.9431 24.7342 26.3177 25.0186 26.7577 25.0186C27.036 25.0186 27.2624 25.245 27.2624 25.5233C27.2624 25.8016 27.036 26.0279 26.7577 26.0279C26.4795 26.0279 26.2531 25.8015 26.2531 25.5233C26.2531 25.3852 26.1412 25.2733 26.0031 25.2733C25.8651 25.2733 25.7531 25.3852 25.7531 25.5233C25.7531 25.991 26.0743 26.385 26.5077 26.4964V26.6433C26.5077 26.7813 26.6197 26.8933 26.7577 26.8933C26.8958 26.8933 27.0077 26.7813 27.0077 26.6433V26.4964C27.4412 26.385 27.7624 25.9909 27.7624 25.5233C27.7624 24.9693 27.3117 24.5186 26.7577 24.5186C26.5467 24.5186 26.3658 24.3883 26.2906 24.2041V23.8238C26.3658 23.6396 26.5467 23.5093 26.7577 23.5093V23.5093Z" fill="white"/>
</g>
<defs>
<clipPath id="clip0_150_4405">
<rect width="16" height="16" fill="white" transform="translate(14 13)"/>
</clipPath>
</defs>
</svg>
