<svg width="108" height="108" viewBox="0 0 108 108" fill="none" xmlns="http://www.w3.org/2000/svg">
<rect width="108" height="108" rx="35" fill="#06B5EE"/>
<g clip-path="url(#clip0_78_26)">
<path d="M85.0625 79.125H83.6875V46.3125C83.6875 46.0639 83.5887 45.8254 83.4129 45.6496C83.2371 45.4738 82.9986 45.375 82.75 45.375H71.765C72.2121 43.7673 72.4384 42.1062 72.4375 40.4375C72.4375 30.2712 64.1663 22 54 22C43.8337 22 35.5625 30.2712 35.5625 40.4375C35.5616 42.1062 35.7879 43.7673 36.235 45.375H25.25C25.0014 45.375 24.7629 45.4738 24.5871 45.6496C24.4113 45.8254 24.3125 46.0639 24.3125 46.3125V79.125H22.9375C22.6889 79.125 22.4504 79.2238 22.2746 79.3996C22.0988 79.5754 22 79.8139 22 80.0625V85.0625C22 85.3111 22.0988 85.5496 22.2746 85.7254C22.4504 85.9012 22.6889 86 22.9375 86H85.0625C85.3111 86 85.5496 85.9012 85.7254 85.7254C85.9012 85.5496 86 85.3111 86 85.0625V80.0625C86 79.8139 85.9012 79.5754 85.7254 79.3996C85.5496 79.2238 85.3111 79.125 85.0625 79.125ZM81.8125 47.25V79.125H72.9613C72.6787 77.8312 71.8112 76.655 70.4487 75.75C68.88 74.7038 66.8112 74.125 64.625 74.125C64.475 74.125 64.3212 74.125 64.1662 74.1338C62.455 72.35 59.8 71.0938 56.8125 70.6037V67.625H62.125C63.6991 67.623 65.2082 66.9968 66.3213 65.8838C67.4343 64.7707 68.0605 63.2616 68.0625 61.6875C68.0625 61.4389 67.9637 61.2004 67.7879 61.0246C67.6121 60.8488 67.3736 60.75 67.125 60.75H60.875C59.3644 60.7491 57.9107 61.3265 56.8125 62.3638V58.6613C59.9844 58.1652 62.9725 56.8523 65.4833 54.8515C67.994 52.8508 69.9409 50.2311 71.1325 47.25H81.8125ZM53.0625 58.8512C53.3725 58.8671 53.685 58.875 54 58.875C54.315 58.875 54.6275 58.8671 54.9375 58.8512V70.4012C54.6263 70.385 54.3125 70.375 54 70.375C53.6875 70.375 53.375 70.385 53.0625 70.4012V58.8512ZM54 72.25C57.7612 72.25 61.2337 73.5737 63.0612 75.7062C63.1569 75.8181 63.2776 75.9058 63.4136 75.9621C63.5496 76.0183 63.697 76.0416 63.8438 76.03C64.1113 76.01 64.3737 76 64.625 76C67.6625 76 70.2962 77.3575 71 79.125H37C37.705 77.3575 40.3387 76 43.375 76C43.625 76 43.8888 76.01 44.1562 76.03C44.303 76.0414 44.4503 76.018 44.5863 75.9618C44.7222 75.9055 44.843 75.818 44.9387 75.7062C46.7662 73.5737 50.2388 72.25 54 72.25ZM56.9212 65.75C57.1335 64.8607 57.639 64.0689 58.3563 63.5019C59.0735 62.935 59.9608 62.6261 60.875 62.625H66.0788C65.8665 63.5143 65.361 64.3061 64.6437 64.8731C63.9265 65.44 63.0392 65.7489 62.125 65.75H56.9212ZM54 23.875C63.1325 23.875 70.5625 31.305 70.5625 40.4375C70.5625 49.57 63.1325 57 54 57C44.8675 57 37.4375 49.57 37.4375 40.4375C37.4375 31.305 44.8675 23.875 54 23.875ZM26.1875 47.25H36.8675C38.0591 50.2311 40.006 52.8508 42.5167 54.8515C45.0274 56.8523 48.0156 58.1652 51.1875 58.6613V62.3638C50.0893 61.3265 48.6356 60.7491 47.125 60.75H40.875C40.6264 60.75 40.3879 60.8488 40.2121 61.0246C40.0363 61.2004 39.9375 61.4389 39.9375 61.6875C39.9395 63.2616 40.5657 64.7707 41.6787 65.8838C42.7918 66.9968 44.3009 67.623 45.875 67.625H51.1875V70.6037C48.2 71.0938 45.545 72.3538 43.8337 74.1338C43.6787 74.1275 43.525 74.125 43.375 74.125C41.1887 74.125 39.125 74.7012 37.5513 75.75C36.1888 76.6575 35.3212 77.8338 35.0387 79.125H26.1875V47.25ZM51.0788 65.75H45.875C44.9608 65.7489 44.0735 65.44 43.3563 64.8731C42.639 64.3061 42.1335 63.5143 41.9212 62.625H47.125C48.0392 62.6261 48.9265 62.935 49.6437 63.5019C50.361 64.0689 50.8665 64.8607 51.0788 65.75ZM84.125 84.125H23.875V81H84.125V84.125Z" fill="white"/>
<path d="M54 55.125C56.9049 55.125 59.7446 54.2636 62.1599 52.6497C64.5753 51.0358 66.4578 48.742 67.5695 46.0582C68.6811 43.3744 68.972 40.4212 68.4053 37.5721C67.8386 34.723 66.4397 32.106 64.3856 30.0519C62.3315 27.9978 59.7145 26.5989 56.8654 26.0322C54.0163 25.4655 51.0631 25.7564 48.3793 26.868C45.6955 27.9797 43.4017 29.8622 41.7878 32.2776C40.1739 34.6929 39.3125 37.5326 39.3125 40.4375C39.3168 44.3316 40.8656 48.0649 43.6191 50.8184C46.3726 53.5719 50.106 55.1207 54 55.125ZM54 27.625C56.5341 27.625 59.0112 28.3764 61.1182 29.7843C63.2252 31.1922 64.8675 33.1932 65.8372 35.5344C66.807 37.8756 67.0607 40.4517 66.5663 42.9371C66.0719 45.4225 64.8517 47.7055 63.0598 49.4973C61.2679 51.2892 58.985 52.5094 56.4996 53.0038C54.0142 53.4982 51.438 53.2445 49.0969 52.2747C46.7557 51.305 44.7547 49.6628 43.3468 47.5557C41.9389 45.4487 41.1875 42.9716 41.1875 40.4375C41.1911 37.0405 42.5422 33.7837 44.9442 31.3817C47.3462 28.9797 50.603 27.6286 54 27.625Z" fill="white"/>
<path d="M52.6725 41.375H55.3275C56.1463 41.375 56.8125 42.0763 56.8125 42.9375C56.8125 43.7987 56.1463 44.5 55.3275 44.5H51C50.7514 44.5 50.5129 44.5988 50.3371 44.7746C50.1613 44.9504 50.0625 45.1889 50.0625 45.4375C50.0625 45.6861 50.1613 45.9246 50.3371 46.1004C50.5129 46.2762 50.7514 46.375 51 46.375H51.5V47.9375C51.5 48.1861 51.5988 48.4246 51.7746 48.6004C51.9504 48.7762 52.1889 48.875 52.4375 48.875C52.6862 48.875 52.9246 48.7762 53.1005 48.6004C53.2763 48.4246 53.375 48.1861 53.375 47.9375V46.375H54.625V47.9375C54.625 48.1861 54.7238 48.4246 54.8996 48.6004C55.0754 48.7762 55.3139 48.875 55.5625 48.875C55.8112 48.875 56.0496 48.7762 56.2255 48.6004C56.4013 48.4246 56.5 48.1861 56.5 47.9375V46.1588C57.1473 45.9055 57.7027 45.4623 58.0932 44.8873C58.4837 44.3123 58.6909 43.6325 58.6875 42.9375C58.6875 41.0425 57.18 39.5 55.3275 39.5H52.6725C51.8538 39.5 51.1875 38.7987 51.1875 37.9375C51.1875 37.0763 51.8538 36.375 52.6725 36.375H57C57.2487 36.375 57.4871 36.2762 57.663 36.1004C57.8388 35.9246 57.9375 35.6861 57.9375 35.4375C57.9375 35.1889 57.8388 34.9504 57.663 34.7746C57.4871 34.5988 57.2487 34.5 57 34.5H56.5V32.9375C56.5 32.6889 56.4013 32.4504 56.2255 32.2746C56.0496 32.0988 55.8112 32 55.5625 32C55.3139 32 55.0754 32.0988 54.8996 32.2746C54.7238 32.4504 54.625 32.6889 54.625 32.9375V34.5H53.375V32.9375C53.375 32.6889 53.2763 32.4504 53.1005 32.2746C52.9246 32.0988 52.6862 32 52.4375 32C52.1889 32 51.9504 32.0988 51.7746 32.2746C51.5988 32.4504 51.5 32.6889 51.5 32.9375V34.7163C50.8528 34.9695 50.2973 35.4127 49.9069 35.9877C49.5164 36.5627 49.3092 37.2425 49.3125 37.9375C49.3125 39.8325 50.82 41.375 52.6725 41.375Z" fill="white"/>
<path d="M61.5 41.375H64C64.2486 41.375 64.4871 41.2762 64.6629 41.1004C64.8387 40.9246 64.9375 40.6861 64.9375 40.4375C64.9375 40.1889 64.8387 39.9504 64.6629 39.7746C64.4871 39.5988 64.2486 39.5 64 39.5H61.5C61.2514 39.5 61.0129 39.5988 60.8371 39.7746C60.6613 39.9504 60.5625 40.1889 60.5625 40.4375C60.5625 40.6861 60.6613 40.9246 60.8371 41.1004C61.0129 41.2762 61.2514 41.375 61.5 41.375Z" fill="white"/>
<path d="M47.4375 40.4375C47.4375 40.1889 47.3387 39.9504 47.1629 39.7746C46.9871 39.5988 46.7486 39.5 46.5 39.5H44C43.7514 39.5 43.5129 39.5988 43.3371 39.7746C43.1613 39.9504 43.0625 40.1889 43.0625 40.4375C43.0625 40.6861 43.1613 40.9246 43.3371 41.1004C43.5129 41.2762 43.7514 41.375 44 41.375H46.5C46.7486 41.375 46.9871 41.2762 47.1629 41.1004C47.3387 40.9246 47.4375 40.6861 47.4375 40.4375Z" fill="white"/>
</g>
<defs>
<clipPath id="clip0_78_26">
<rect width="64" height="64" fill="white" transform="translate(22 22)"/>
</clipPath>
</defs>
</svg>
