<svg width="108" height="108" viewBox="0 0 108 108" fill="none" xmlns="http://www.w3.org/2000/svg">
<rect width="108" height="108" rx="35" fill="#06B5EE"/>
<path d="M59.4688 77.5157H79.3312C80.1455 77.5244 80.9299 77.2097 81.5122 76.6407C82.0946 76.0716 82.4274 75.2947 82.4375 74.4805V33.5196C82.4274 32.7054 82.0946 31.9285 81.5122 31.3594C80.9299 30.7904 80.1455 30.4757 79.3312 30.4844H59.4688C59.1787 30.4844 58.9005 30.5997 58.6954 30.8048C58.4902 31.0099 58.375 31.2881 58.375 31.5782C58.375 31.8683 58.4902 32.1465 58.6954 32.3516C58.9005 32.5567 59.1787 32.6719 59.4688 32.6719H79.3312C79.5653 32.663 79.7934 32.7472 79.9656 32.9061C80.1378 33.0649 80.24 33.2855 80.25 33.5196V74.4805C80.24 74.7146 80.1378 74.9352 79.9656 75.094C79.7934 75.2529 79.5653 75.3371 79.3312 75.3282H59.4688C59.1787 75.3282 58.9005 75.4434 58.6954 75.6485C58.4902 75.8537 58.375 76.1319 58.375 76.4219C58.375 76.712 58.4902 76.9902 58.6954 77.1953C58.9005 77.4004 59.1787 77.5157 59.4688 77.5157Z" fill="white"/>
<path d="M77.5156 36.5C77.5156 36.2099 77.4004 35.9317 77.1953 35.7266C76.9902 35.5215 76.712 35.4062 76.4219 35.4062H59.4688C59.1787 35.4062 58.9005 35.5215 58.6954 35.7266C58.4902 35.9317 58.375 36.2099 58.375 36.5V50.1719C58.375 50.462 58.4902 50.7402 58.6954 50.9453C58.9005 51.1504 59.1787 51.2656 59.4688 51.2656H76.4219C76.712 51.2656 76.9902 51.1504 77.1953 50.9453C77.4004 50.7402 77.5156 50.462 77.5156 50.1719V36.5ZM75.3281 49.0781H60.5625V37.5938H75.3281V49.0781Z" fill="white"/>
<path d="M62.2031 53.4531H59.4688C59.1787 53.4531 58.9005 53.5684 58.6954 53.7735C58.4902 53.9786 58.375 54.2568 58.375 54.5469V57.2812C58.375 57.5713 58.4902 57.8495 58.6954 58.0546C58.9005 58.2598 59.1787 58.375 59.4688 58.375C59.7588 58.375 60.037 58.2598 60.2421 58.0546C60.4473 57.8495 60.5625 57.5713 60.5625 57.2812V55.6406H62.2031C62.4932 55.6406 62.7714 55.5254 62.9765 55.3203C63.1816 55.1152 63.2969 54.837 63.2969 54.5469C63.2969 54.2568 63.1816 53.9786 62.9765 53.7735C62.7714 53.5684 62.4932 53.4531 62.2031 53.4531Z" fill="white"/>
<path d="M69.3125 53.4531H66.5781C66.288 53.4531 66.0098 53.5684 65.8047 53.7735C65.5996 53.9786 65.4844 54.2568 65.4844 54.5469V57.2812C65.4844 57.5713 65.5996 57.8495 65.8047 58.0546C66.0098 58.2598 66.288 58.375 66.5781 58.375C66.8682 58.375 67.1464 58.2598 67.3515 58.0546C67.5566 57.8495 67.6719 57.5713 67.6719 57.2812V55.6406H69.3125C69.6026 55.6406 69.8808 55.5254 70.0859 55.3203C70.291 55.1152 70.4062 54.837 70.4062 54.5469C70.4062 54.2568 70.291 53.9786 70.0859 53.7735C69.8808 53.5684 69.6026 53.4531 69.3125 53.4531Z" fill="white"/>
<path d="M76.4219 53.4531H73.6875C73.3974 53.4531 73.1192 53.5684 72.9141 53.7735C72.709 53.9786 72.5938 54.2568 72.5938 54.5469V57.2812C72.5938 57.5713 72.709 57.8495 72.9141 58.0546C73.1192 58.2598 73.3974 58.375 73.6875 58.375C73.9776 58.375 74.2558 58.2598 74.4609 58.0546C74.666 57.8495 74.7812 57.5713 74.7812 57.2812V55.6406H76.4219C76.712 55.6406 76.9902 55.5254 77.1953 55.3203C77.4004 55.1152 77.5156 54.837 77.5156 54.5469C77.5156 54.2568 77.4004 53.9786 77.1953 53.7735C76.9902 53.5684 76.712 53.4531 76.4219 53.4531Z" fill="white"/>
<path d="M62.2031 60.5625H59.4688C59.1787 60.5625 58.9005 60.6777 58.6954 60.8829C58.4902 61.088 58.375 61.3662 58.375 61.6562V64.3906C58.375 64.6807 58.4902 64.9589 58.6954 65.164C58.9005 65.3691 59.1787 65.4844 59.4688 65.4844C59.7588 65.4844 60.037 65.3691 60.2421 65.164C60.4473 64.9589 60.5625 64.6807 60.5625 64.3906V62.75H62.2031C62.4932 62.75 62.7714 62.6348 62.9765 62.4296C63.1816 62.2245 63.2969 61.9463 63.2969 61.6562C63.2969 61.3662 63.1816 61.088 62.9765 60.8829C62.7714 60.6777 62.4932 60.5625 62.2031 60.5625Z" fill="white"/>
<path d="M69.3125 60.5625H66.5781C66.288 60.5625 66.0098 60.6777 65.8047 60.8829C65.5996 61.088 65.4844 61.3662 65.4844 61.6562V64.3906C65.4844 64.6807 65.5996 64.9589 65.8047 65.164C66.0098 65.3691 66.288 65.4844 66.5781 65.4844C66.8682 65.4844 67.1464 65.3691 67.3515 65.164C67.5566 64.9589 67.6719 64.6807 67.6719 64.3906V62.75H69.3125C69.6026 62.75 69.8808 62.6348 70.0859 62.4296C70.291 62.2245 70.4062 61.9463 70.4062 61.6562C70.4062 61.3662 70.291 61.088 70.0859 60.8829C69.8808 60.6777 69.6026 60.5625 69.3125 60.5625Z" fill="white"/>
<path d="M76.4219 60.5625H73.6875C73.3974 60.5625 73.1192 60.6777 72.9141 60.8829C72.709 61.088 72.5938 61.3662 72.5938 61.6562V64.3906C72.5938 64.6807 72.709 64.9589 72.9141 65.164C73.1192 65.3691 73.3974 65.4844 73.6875 65.4844C73.9776 65.4844 74.2558 65.3691 74.4609 65.164C74.666 64.9589 74.7812 64.6807 74.7812 64.3906V62.75H76.4219C76.712 62.75 76.9902 62.6348 77.1953 62.4296C77.4004 62.2245 77.5156 61.9463 77.5156 61.6562C77.5156 61.3662 77.4004 61.088 77.1953 60.8829C76.9902 60.6777 76.712 60.5625 76.4219 60.5625Z" fill="white"/>
<path d="M62.2031 67.6719H59.4688C59.1787 67.6719 58.9005 67.7871 58.6954 67.9922C58.4902 68.1973 58.375 68.4755 58.375 68.7656V71.5C58.375 71.7901 58.4902 72.0683 58.6954 72.2734C58.9005 72.4785 59.1787 72.5938 59.4688 72.5938C59.7588 72.5938 60.037 72.4785 60.2421 72.2734C60.4473 72.0683 60.5625 71.7901 60.5625 71.5V69.8594H62.2031C62.4932 69.8594 62.7714 69.7441 62.9765 69.539C63.1816 69.3339 63.2969 69.0557 63.2969 68.7656C63.2969 68.4755 63.1816 68.1973 62.9765 67.9922C62.7714 67.7871 62.4932 67.6719 62.2031 67.6719Z" fill="white"/>
<path d="M69.3125 67.6719H66.5781C66.288 67.6719 66.0098 67.7871 65.8047 67.9922C65.5996 68.1973 65.4844 68.4755 65.4844 68.7656V71.5C65.4844 71.7901 65.5996 72.0683 65.8047 72.2734C66.0098 72.4785 66.288 72.5938 66.5781 72.5938C66.8682 72.5938 67.1464 72.4785 67.3515 72.2734C67.5566 72.0683 67.6719 71.7901 67.6719 71.5V69.8594H69.3125C69.6026 69.8594 69.8808 69.7441 70.0859 69.539C70.291 69.3339 70.4062 69.0557 70.4062 68.7656C70.4062 68.4755 70.291 68.1973 70.0859 67.9922C69.8808 67.7871 69.6026 67.6719 69.3125 67.6719Z" fill="white"/>
<path d="M76.4219 67.6719H73.6875C73.3974 67.6719 73.1192 67.7871 72.9141 67.9922C72.709 68.1973 72.5938 68.4755 72.5938 68.7656V71.5C72.5938 71.7901 72.709 72.0683 72.9141 72.2734C73.1192 72.4785 73.3974 72.5938 73.6875 72.5938C73.9776 72.5938 74.2558 72.4785 74.4609 72.2734C74.666 72.0683 74.7812 71.7901 74.7812 71.5V69.8594H76.4219C76.712 69.8594 76.9902 69.7441 77.1953 69.539C77.4004 69.3339 77.5156 69.0557 77.5156 68.7656C77.5156 68.4755 77.4004 68.1973 77.1953 67.9922C76.9902 67.7871 76.712 67.6719 76.4219 67.6719Z" fill="white"/>
<path d="M66.4735 46.568C66.5751 46.6697 66.6957 46.7504 66.8285 46.8054C66.9613 46.8605 67.1036 46.8888 67.2473 46.8888C67.3911 46.8888 67.5334 46.8605 67.6662 46.8054C67.799 46.7504 67.9196 46.6697 68.0212 46.568L72.9923 41.575C73.1804 41.3666 73.2812 41.0939 73.2738 40.8132C73.2664 40.5325 73.1514 40.2655 72.9525 40.0673C72.7536 39.8691 72.4861 39.755 72.2054 39.7486C71.9247 39.7422 71.6523 39.8439 71.4446 40.0328L67.2446 44.2492L65.0571 42.0617C64.8457 41.8962 64.5807 41.8142 64.3127 41.8314C64.0448 41.8486 63.7925 41.9638 63.6039 42.155C63.4154 42.3463 63.3038 42.6002 63.2904 42.8684C63.277 43.1366 63.3628 43.4003 63.5313 43.6094L66.4735 46.568Z" fill="white"/>
<path d="M30.0422 81.1742C34.0825 81.8922 38.1776 82.2582 42.2812 82.2679C44.0203 82.2679 53.5086 81.6828 53.7656 79.0906C53.8986 77.3647 53.8602 75.63 53.6508 73.9117C53.5469 72.7195 53.4266 71.3961 53.3555 69.6843C54.0156 69.4742 54.5923 69.0605 55.003 68.5025C55.4136 67.9445 55.6371 67.2709 55.6414 66.5781V60.0156C55.6406 59.2513 55.373 58.5112 54.8847 57.9232C54.3965 57.3351 53.7183 56.9359 52.9672 56.7945C53.1859 54.7383 54.0609 52.9664 54.9195 51.0797C56.3961 47.9734 56.1063 39.8633 55.9859 37.4515C55.7344 32.5297 55.3625 30.8398 53.525 29.7023C53.0334 29.3694 52.4703 29.1568 51.8812 29.0817C51.2922 29.0066 50.6938 29.0713 50.1344 29.2703C49.7734 28.2312 49.0734 27.0062 47.7172 26.5359C46.5699 26.1767 45.3284 26.2727 44.25 26.8039C43.8815 26.1652 43.355 25.6321 42.721 25.2557C42.087 24.8793 41.3668 24.6723 40.6297 24.6547C39.9659 24.668 39.313 24.8255 38.7161 25.1164C38.1193 25.4072 37.5929 25.8244 37.1734 26.339C36.435 25.7526 35.5128 25.4465 34.5703 25.475C32.9297 25.5351 30.8352 26.257 30.3594 29.3633C29.3852 29.4083 28.447 29.7453 27.6668 30.3304C26.8866 30.9156 26.3004 31.7219 25.9844 32.6445C24.8469 35.4828 23.168 41.05 23.168 43.9922C23.168 46.5133 24.1961 51.8945 28.0898 54.2242C30.8242 55.8648 30.8242 56.264 30.8242 57.1172C30.8242 57.8883 29.8453 71.2265 29.1836 80.0039C29.1589 80.2702 29.2326 80.5363 29.3908 80.752C29.549 80.9676 29.7807 81.1178 30.0422 81.1742ZM32.7383 61.1094H40.1922V65.4844H32.4266C32.5414 63.8929 32.6727 62.389 32.7383 61.1094ZM51.6164 78.5547C50.6211 79.1015 46.5961 80.1023 42.2812 80.1023C38.6412 80.0792 35.0083 79.7757 31.4148 79.1945C31.5789 77.007 31.9344 72.2383 32.268 67.6719H40.5203C40.7463 68.311 41.1647 68.8644 41.7179 69.2561C42.2712 69.6479 42.9323 69.8586 43.6102 69.8594H51.1625C51.2445 71.5984 51.3648 72.982 51.4633 74.125C51.641 75.5944 51.6923 77.0764 51.6164 78.5547ZM53.4539 60.0156V66.5781C53.4539 66.8682 53.3387 67.1464 53.1336 67.3515C52.9284 67.5566 52.6502 67.6719 52.3602 67.6719H43.6102C43.3201 67.6719 43.0419 67.5566 42.8368 67.3515C42.6316 67.1464 42.5164 66.8682 42.5164 66.5781V60.0156C42.5164 59.7255 42.6316 59.4473 42.8368 59.2422C43.0419 59.0371 43.3201 58.9219 43.6102 58.9219H52.3602C52.6502 58.9219 52.9284 59.0371 53.1336 59.2422C53.3387 59.4473 53.4539 59.7255 53.4539 60.0156ZM29.1727 52.3594C26.3563 50.6695 25.3445 46.4312 25.3445 44.0031C25.3445 41.575 26.9195 36.1828 28.0023 33.4703C28.153 32.9649 28.45 32.5154 28.8558 32.1786C29.2617 31.8418 29.7583 31.6329 30.2828 31.5781C30.3758 33.7656 30.7969 36.2922 30.7969 37.4242C30.7969 37.4898 30.7969 39.0648 29.7031 39.0648C29.413 39.0648 29.1348 39.1801 28.9297 39.3852C28.7246 39.5903 28.6094 39.8685 28.6094 40.1586C28.6094 40.4486 28.7246 40.7268 28.9297 40.932C29.1348 41.1371 29.413 41.2523 29.7031 41.2523C31.8578 41.2523 32.9844 39.3218 32.9844 37.4242C32.9844 35.6578 32.2297 31.7367 32.5086 29.7679C32.7219 28.3078 33.318 27.7226 34.6469 27.6789H34.707C35.0367 27.7025 35.3564 27.8021 35.6411 27.9701C35.9257 28.138 36.1676 28.3697 36.3477 28.6469C36.449 28.8165 36.5945 28.9556 36.7686 29.0492C36.9426 29.1429 37.1389 29.1876 37.3363 29.1786C37.5338 29.1696 37.7251 29.1073 37.89 28.9983C38.0549 28.8892 38.1871 28.7375 38.2727 28.5594C38.2727 28.5594 39.1148 26.8586 40.6078 26.8586C42.1008 26.8586 42.757 28.6961 42.7625 28.7125C42.8209 28.8787 42.9185 29.0283 43.0471 29.1486C43.1756 29.269 43.3314 29.3565 43.5011 29.4038C43.6707 29.451 43.8493 29.4566 44.0216 29.42C44.1939 29.3835 44.3548 29.3058 44.4906 29.1937C44.4906 29.1937 45.7266 28.2039 47.0008 28.6469C47.832 28.9258 48.2367 30.4515 48.3023 31.1461C48.322 31.3586 48.4035 31.5607 48.5367 31.7276C48.6698 31.8944 48.8489 32.0186 49.0518 32.0848C49.2547 32.1511 49.4726 32.1566 49.6785 32.1005C49.8845 32.0445 50.0696 31.9294 50.2109 31.7695C50.4782 31.4712 50.8488 31.2855 51.2478 31.25C51.6468 31.2144 52.0443 31.3317 52.3602 31.5781C53.1805 32.0867 53.5414 32.7703 53.7875 37.5937C54.0883 43.4125 53.7437 48.4656 52.9344 50.1719C51.9773 52.1898 50.9875 54.2679 50.7469 56.7672H43.6102C42.9323 56.7679 42.2712 56.9787 41.7179 57.3704C41.1647 57.7621 40.7463 58.3155 40.5203 58.9547H32.8641C32.9297 57.9867 32.9625 57.314 32.9625 57.1664C32.9844 54.8859 31.825 53.9562 29.1727 52.3594Z" fill="white"/>
</svg>
