<svg width="108" height="108" viewBox="0 0 108 108" fill="none" xmlns="http://www.w3.org/2000/svg">
<rect width="108" height="108" rx="35" fill="#06B5EE"/>
<path d="M58.6113 49.3193C58.1973 49.3193 57.8613 49.6553 57.8613 50.0693V67.9971C57.8613 68.0449 57.8413 68.0889 57.8052 68.1201L54.6968 70.8105C54.6353 70.8633 54.543 70.8633 54.4824 70.8105L51.3833 68.1201C51.3481 68.0898 51.3281 68.0449 51.3281 67.998L51.3286 67.1631L52.5771 66.2471C52.9712 65.9582 52.9879 65.3761 52.6113 65.0645L51.3286 64.0059V62.4863L52.5737 61.584C52.9745 61.2925 52.9858 60.7074 52.6113 60.3984L51.3286 59.3398V57.8184L52.5771 56.9023C52.9712 56.6143 52.9888 56.029 52.6084 55.7168L51.3286 54.6719L51.3281 50.0732C51.3281 49.6592 50.9922 49.3232 50.5781 49.3232C50.1641 49.3232 49.8281 49.6592 49.8281 50.0732L49.8286 55.043C49.8286 55.2822 49.979 55.5234 50.1782 55.6689L50.9102 56.2666L50.251 56.751C49.9927 56.877 49.8286 57.1387 49.8286 57.4258V59.709C49.8286 59.9473 49.9775 60.1875 50.1763 60.333L50.9092 60.9385L50.2407 61.4229C49.9878 61.5508 49.8286 61.8096 49.8286 62.0928V64.375C49.8286 64.6133 49.9775 64.8535 50.1763 64.999L50.9136 65.6074L50.2407 66.1016C49.9883 66.2295 49.8286 66.4883 49.8286 66.7715L49.8281 67.998C49.8281 68.4814 50.0376 68.9395 50.4014 69.2539L53.5 71.9443C54.1167 72.4777 55.054 72.4836 55.6777 71.9453L58.7861 69.2549C59.1519 68.9395 59.3613 68.4805 59.3613 67.9971V50.0693C59.3613 49.6553 59.0254 49.3193 58.6113 49.3193Z" fill="white"/>
<path d="M65.0464 38.915C65.0464 33.1523 60.3579 28.4639 54.5952 28.4639C48.8325 28.4639 44.1445 33.1523 44.1445 38.915C44.1445 44.6777 48.8325 49.3662 54.5952 49.3662C60.3579 49.3662 65.0464 44.6777 65.0464 38.915ZM54.5952 47.8662C49.6597 47.8662 45.6445 43.8506 45.6445 38.915C45.6445 33.9795 49.6597 29.9639 54.5952 29.9639C59.5308 29.9639 63.5464 33.9795 63.5464 38.915C63.5464 43.8506 59.5308 47.8662 54.5952 47.8662Z" fill="white"/>
<path d="M75.5215 66.1504C75.1074 66.1504 74.7715 66.4863 74.7715 66.9004V79.8877C74.7715 81.8486 73.1763 83.4443 71.2153 83.4443H37.9121C35.9512 83.4443 34.3555 81.8486 34.3555 79.8877V69.3223C34.3555 68.9082 34.0195 68.5723 33.6055 68.5723C33.1914 68.5723 32.8555 68.9082 32.8555 69.3223V79.8877C32.8555 82.6758 35.124 84.9443 37.9121 84.9443H71.2153C74.0034 84.9443 76.2715 82.6758 76.2715 79.8877V66.9004C76.2715 66.4863 75.9355 66.1504 75.5215 66.1504Z" fill="white"/>
<path d="M75.5215 44.5547C75.9355 44.5547 76.2715 44.2188 76.2715 43.8047V29.0557C76.2715 26.2676 74.0034 24 71.2153 24H37.9121C35.124 24 32.8555 26.2676 32.8555 29.0557V49.626C32.8555 50.04 33.1914 50.376 33.6055 50.376C34.0195 50.376 34.3555 50.04 34.3555 49.626V29.0557C34.3555 27.0947 35.9512 25.5 37.9121 25.5H71.2153C73.1763 25.5 74.7715 27.0947 74.7715 29.0557V43.8047C74.7715 44.2188 75.1074 44.5547 75.5215 44.5547Z" fill="white"/>
<path d="M52.6328 37.1523C52.5146 36.8369 52.5395 36.4717 52.7021 36.125C53.3702 34.699 55.7794 35.0269 56.8491 35.9756C57.1592 36.251 57.6333 36.2217 57.9077 35.9131C58.1831 35.6035 58.1548 35.1299 57.8452 34.8545C57.1908 34.2734 56.283 33.8793 55.352 33.7286V32.584C55.352 32.1699 55.0161 31.834 54.602 31.834C54.188 31.834 53.852 32.1699 53.852 32.584V33.7168C51.6542 34.05 50.6227 36.0586 51.2275 37.6768C52.0904 39.9927 55.138 39.2626 56.5102 40.3701C57.247 40.9645 56.7436 42.0911 56.0181 42.5674C54.9046 43.2973 52.9576 42.7361 52.1294 41.7861C51.8555 41.4766 51.3823 41.4443 51.0708 41.7197C50.7598 41.9932 50.73 42.4668 51.0034 42.7783C51.737 43.607 52.855 44.1402 53.9277 44.3262V45.2461C53.9277 45.6602 54.2637 45.9961 54.6777 45.9961C55.0918 45.9961 55.4277 45.6602 55.4277 45.2461V44.3479C58.0547 43.9389 59.3961 40.7697 57.4516 39.2021C55.7191 37.8061 53.1117 38.4399 52.6328 37.1523Z" fill="white"/>
<path d="M35.1206 62.249C35.3232 62.249 35.4883 62.4141 35.4883 62.6172V65.3174C35.4883 66.3477 36.3257 67.1855 37.3555 67.1855H45.7373C46.1514 67.1855 46.4873 66.8496 46.4873 66.4355C46.4873 66.0215 46.1514 65.6855 45.7373 65.6855H37.3555C37.1528 65.6855 36.9883 65.5205 36.9883 65.3174V62.6172C36.9883 61.5869 36.1504 60.749 35.1206 60.749H26.0668C25.8362 59.5735 24.8004 58.6836 23.5586 58.6836C22.1479 58.6836 21 59.8311 21 61.2422C21 62.6533 22.1479 63.8008 23.5586 63.8008C24.6118 63.8008 25.5173 63.1604 25.909 62.249H35.1206ZM23.5586 62.3008C22.9751 62.3008 22.5 61.8262 22.5 61.2422C22.5 60.6582 22.9751 60.1836 23.5586 60.1836C24.1421 60.1836 24.6167 60.6582 24.6167 61.2422C24.6167 61.8262 24.1421 62.3008 23.5586 62.3008Z" fill="white"/>
<path d="M27.0938 55.873H47.0229C47.437 55.873 47.7729 55.5371 47.7729 55.123C47.7729 54.709 47.437 54.373 47.0229 54.373H27.0938C26.8911 54.373 26.7266 54.208 26.7266 54.0049V49.6794C27.7698 49.3566 28.5347 48.3943 28.5347 47.2461C28.5347 45.8359 27.3872 44.6885 25.9766 44.6885C24.5659 44.6885 23.418 45.8359 23.418 47.2461C23.418 48.3944 24.1833 49.3566 25.2266 49.6794V54.0049C25.2266 55.0352 26.064 55.873 27.0938 55.873ZM25.9766 46.1885C26.5601 46.1885 27.0347 46.6631 27.0347 47.2461C27.0347 47.8301 26.5601 48.3047 25.9766 48.3047C25.3931 48.3047 24.918 47.8301 24.918 47.2461C24.918 46.6631 25.3931 46.1885 25.9766 46.1885Z" fill="white"/>
<path d="M83.1816 65.1661V63.2764C83.1816 62.2471 82.3442 61.4092 81.3149 61.4092L62.1099 61.4014C61.6958 61.4014 61.3594 61.7373 61.3594 62.1514C61.3594 62.5654 61.6948 62.9014 62.1089 62.9014L81.3145 62.9092C81.5171 62.9092 81.6816 63.0742 81.6816 63.2764V65.1661C80.6384 65.489 79.8735 66.4512 79.8735 67.5996C79.8735 69.0098 81.021 70.1572 82.4316 70.1572C83.8423 70.1572 84.9902 69.0098 84.9902 67.5996C84.9902 66.4512 84.2249 65.489 83.1816 65.1661ZM82.4316 68.6572C81.8481 68.6572 81.3735 68.1826 81.3735 67.5996C81.3735 67.0156 81.8481 66.541 82.4316 66.541C83.0151 66.541 83.4902 67.0156 83.4902 67.5996C83.4902 68.1826 83.0151 68.6572 82.4316 68.6572Z" fill="white"/>
<path d="M83.9414 47.0674C82.7934 47.0674 81.8312 47.8323 81.5084 48.876H73.7515C72.7217 48.876 71.8843 49.7139 71.8843 50.7432V53.4434C71.8843 53.6465 71.7192 53.8115 71.5166 53.8115H61.7383C61.3242 53.8115 60.9883 54.1475 60.9883 54.5615C60.9883 54.9756 61.3242 55.3115 61.7383 55.3115H71.5166C72.5464 55.3115 73.3843 54.4736 73.3843 53.4434V50.7432C73.3843 50.541 73.5488 50.376 73.7515 50.376H81.5085C81.8315 51.4187 82.7936 52.1836 83.9414 52.1836C85.3521 52.1836 86.4995 51.0361 86.4995 49.626C86.4995 48.2148 85.3521 47.0674 83.9414 47.0674ZM83.9414 50.6836C83.3579 50.6836 82.8833 50.209 82.8833 49.626C82.8833 49.042 83.3579 48.5674 83.9414 48.5674C84.5249 48.5674 84.9995 49.042 84.9995 49.626C84.9995 50.209 84.5249 50.6836 83.9414 50.6836Z" fill="white"/>
<path d="M44.5195 76.1084C44.5195 76.5225 44.8555 76.8584 45.2695 76.8584H64.2969C64.7109 76.8584 65.0469 76.5225 65.0469 76.1084C65.0469 75.6943 64.7109 75.3584 64.2969 75.3584H45.2695C44.8555 75.3584 44.5195 75.6943 44.5195 76.1084Z" fill="white"/>
</svg>
