<svg width="108" height="108" viewBox="0 0 108 108" fill="none" xmlns="http://www.w3.org/2000/svg">
<rect width="108" height="108" rx="35" fill="#06B5EE"/>
<path d="M83.5927 32.0075H79.852V29.7987C79.852 28.8287 79.4667 27.8984 78.7808 27.2125C78.0949 26.5266 77.1646 26.1412 76.1945 26.1412H64.747C60.693 26.143 56.8041 27.7481 53.9289 30.6062C51.1175 28.0736 47.4648 26.6768 43.6808 26.6875H31.8058C30.852 26.6872 29.9358 27.0594 29.2526 27.7249C28.5693 28.3904 28.1731 29.2965 28.1483 30.25V31.96H24.4077C23.9244 31.96 23.4458 32.0557 22.9997 32.2418C22.5536 32.4278 22.1489 32.7004 21.8088 33.0438C21.4687 33.3872 21.2 33.7946 21.0183 34.2425C20.8366 34.6904 20.7455 35.1698 20.7502 35.6531V75.4581C20.7502 76.4281 21.1355 77.3584 21.8214 78.0444C22.5073 78.7303 23.4376 79.1156 24.4077 79.1156H49.1433C49.5075 79.12 49.8647 79.2158 50.1822 79.3942C50.4996 79.5727 50.7672 79.828 50.9602 80.1369C51.2834 80.6568 51.732 81.0873 52.2649 81.3889C52.7977 81.6904 53.3977 81.8534 54.0099 81.8629C54.6221 81.8723 55.2268 81.728 55.7687 81.443C56.3106 81.158 56.7723 80.7416 57.1114 80.2319C57.3008 79.8967 57.5748 79.6171 57.9062 79.4212C58.2376 79.2253 58.6146 79.1199 58.9995 79.1156H83.5927C84.5627 79.1156 85.493 78.7303 86.1789 78.0444C86.8648 77.3584 87.2502 76.4281 87.2502 75.4581V35.6531C87.247 34.6851 86.8603 33.7579 86.1747 33.0745C85.4892 32.3912 84.5606 32.0075 83.5927 32.0075ZM64.747 28.5162H76.1945C76.5347 28.5162 76.8609 28.6514 77.1014 28.8919C77.3419 29.1324 77.477 29.4586 77.477 29.7987V66.7894C77.477 67.1295 77.3419 67.4557 77.1014 67.6962C76.8609 67.9367 76.5347 68.0719 76.1945 68.0719H64.747C61.2936 68.0862 57.9461 69.2662 55.247 71.4206V32.625C57.7482 30.0565 61.1625 28.5798 64.747 28.5162ZM30.5233 30.25C30.5473 29.9266 30.693 29.6243 30.9309 29.4039C31.1689 29.1836 31.4815 29.0616 31.8058 29.0625H43.6808C46.8354 29.0624 49.8794 30.2251 52.2308 32.3281C52.4059 32.4913 52.6015 32.6311 52.8127 32.7437V71.6225C50.1803 69.6417 46.9752 68.5706 43.6808 68.5706H31.8058C31.6379 68.5722 31.4714 68.5405 31.3159 68.4773C31.1604 68.4142 31.0189 68.3208 30.8996 68.2027C30.7804 68.0845 30.6857 67.9439 30.6211 67.789C30.5565 67.6341 30.5233 67.4678 30.5233 67.3V30.25ZM84.8752 75.4581C84.8752 75.7982 84.7401 76.1245 84.4995 76.365C84.259 76.6055 83.9328 76.7406 83.5927 76.7406H58.9995C58.2463 76.7332 57.5032 76.914 56.8376 77.2665C56.1719 77.619 55.6048 78.1321 55.1877 78.7594C55.0728 78.9754 54.902 79.1566 54.6931 79.2841C54.4842 79.4115 54.2449 79.4805 54.0002 79.4837C53.7829 79.4857 53.5689 79.4308 53.3793 79.3246C53.1898 79.2184 53.0313 79.0645 52.9195 78.8781C52.5118 78.2278 51.9465 77.6909 51.276 77.3173C50.6055 76.9436 49.8515 76.7453 49.0839 76.7406H24.4077C24.0675 76.7406 23.7413 76.6055 23.5008 76.365C23.2603 76.1245 23.1252 75.7982 23.1252 75.4581V35.6531C23.1252 35.4852 23.1584 35.319 23.223 35.1641C23.2876 35.0092 23.3823 34.8686 23.5015 34.7504C23.6208 34.6323 23.7622 34.5389 23.9178 34.4758C24.0733 34.4126 24.2398 34.3809 24.4077 34.3825H28.1483V67.3C28.1514 68.268 28.5382 69.1952 29.2237 69.8786C29.9093 70.5619 30.8378 70.9456 31.8058 70.9456H43.6808C46.8323 70.939 49.8759 72.0931 52.2308 74.1875C52.4642 74.423 52.7444 74.607 53.0532 74.7276C53.362 74.8483 53.6927 74.903 54.0239 74.8881C54.6388 74.8689 55.224 74.6188 55.6627 74.1875C56.8532 72.9911 58.269 72.0425 59.8282 71.3964C61.3875 70.7503 63.0592 70.4195 64.747 70.4231H76.1945C77.1646 70.4231 78.0949 70.0378 78.7808 69.3519C79.4667 68.6659 79.852 67.7356 79.852 66.7656V34.3825H83.5927C83.7605 34.3809 83.927 34.4126 84.0826 34.4758C84.2381 34.5389 84.3796 34.6323 84.4988 34.7504C84.6181 34.8686 84.7127 35.0092 84.7773 35.1641C84.8419 35.319 84.8752 35.4852 84.8752 35.6531V75.4581ZM35.0002 33.7175C35.3151 33.7175 35.6172 33.8426 35.8399 34.0653C36.0626 34.288 36.1877 34.59 36.1877 34.905C36.1877 35.2199 36.0626 35.522 35.8399 35.7447C35.6172 35.9674 35.3151 36.0925 35.0002 36.0925C34.6852 36.0925 34.3832 35.9674 34.1605 35.7447C33.9378 35.522 33.8127 35.2199 33.8127 34.905C33.8127 34.59 33.9378 34.288 34.1605 34.0653C34.3832 33.8426 34.6852 33.7175 35.0002 33.7175ZM39.7502 33.7175C40.0651 33.7175 40.3672 33.8426 40.5899 34.0653C40.8126 34.288 40.9377 34.59 40.9377 34.905C40.9377 35.2199 40.8126 35.522 40.5899 35.7447C40.3672 35.9674 40.0651 36.0925 39.7502 36.0925C39.4352 36.0925 39.1332 35.9674 38.9105 35.7447C38.6878 35.522 38.5627 35.2199 38.5627 34.905C38.5627 34.59 38.6878 34.288 38.9105 34.0653C39.1332 33.8426 39.4352 33.7175 39.7502 33.7175ZM49.2502 33.7175C49.5651 33.7175 49.8672 33.8426 50.0899 34.0653C50.3126 34.288 50.4377 34.59 50.4377 34.905C50.4377 35.2199 50.3126 35.522 50.0899 35.7447C49.8672 35.9674 49.5651 36.0925 49.2502 36.0925C48.9352 36.0925 48.6332 35.9674 48.4105 35.7447C48.1878 35.522 48.0627 35.2199 48.0627 34.905C48.0627 34.59 48.1878 34.288 48.4105 34.0653C48.6332 33.8426 48.9352 33.7175 49.2502 33.7175ZM35.0002 38.3487C35.3151 38.3487 35.6172 38.4738 35.8399 38.6965C36.0626 38.9192 36.1877 39.2213 36.1877 39.5362C36.1877 39.8512 36.0626 40.1532 35.8399 40.3759C35.6172 40.5986 35.3151 40.7237 35.0002 40.7237C34.6852 40.7237 34.3832 40.5986 34.1605 40.3759C33.9378 40.1532 33.8127 39.8512 33.8127 39.5362C33.8127 39.2213 33.9378 38.9192 34.1605 38.6965C34.3832 38.4738 34.6852 38.3487 35.0002 38.3487ZM49.2502 38.3487C49.5651 38.3487 49.8672 38.4738 50.0899 38.6965C50.3126 38.9192 50.4377 39.2213 50.4377 39.5362C50.4377 39.8512 50.3126 40.1532 50.0899 40.3759C49.8672 40.5986 49.5651 40.7237 49.2502 40.7237C48.9352 40.7237 48.6332 40.5986 48.4105 40.3759C48.1878 40.1532 48.0627 39.8512 48.0627 39.5362C48.0627 39.2213 48.1878 38.9192 48.4105 38.6965C48.6332 38.4738 48.9352 38.3487 49.2502 38.3487ZM35.0002 42.98C35.3151 42.98 35.6172 43.1051 35.8399 43.3278C36.0626 43.5505 36.1877 43.8525 36.1877 44.1675C36.1877 44.4824 36.0626 44.7845 35.8399 45.0072C35.6172 45.2299 35.3151 45.355 35.0002 45.355C34.6852 45.355 34.3832 45.2299 34.1605 45.0072C33.9378 44.7845 33.8127 44.4824 33.8127 44.1675C33.8127 43.8525 33.9378 43.5505 34.1605 43.3278C34.3832 43.1051 34.6852 42.98 35.0002 42.98ZM39.7502 42.98C40.0651 42.98 40.3672 43.1051 40.5899 43.3278C40.8126 43.5505 40.9377 43.8525 40.9377 44.1675C40.9377 44.4824 40.8126 44.7845 40.5899 45.0072C40.3672 45.2299 40.0651 45.355 39.7502 45.355C39.4352 45.355 39.1332 45.2299 38.9105 45.0072C38.6878 44.7845 38.5627 44.4824 38.5627 44.1675C38.5627 43.8525 38.6878 43.5505 38.9105 43.3278C39.1332 43.1051 39.4352 42.98 39.7502 42.98ZM44.5002 42.98C44.8151 42.98 45.1172 43.1051 45.3399 43.3278C45.5626 43.5505 45.6877 43.8525 45.6877 44.1675C45.6877 44.4824 45.5626 44.7845 45.3399 45.0072C45.1172 45.2299 44.8151 45.355 44.5002 45.355C44.1852 45.355 43.8832 45.2299 43.6605 45.0072C43.4378 44.7845 43.3127 44.4824 43.3127 44.1675C43.3127 43.8525 43.4378 43.5505 43.6605 43.3278C43.8832 43.1051 44.1852 42.98 44.5002 42.98ZM49.2502 42.98C49.5651 42.98 49.8672 43.1051 50.0899 43.3278C50.3126 43.5505 50.4377 43.8525 50.4377 44.1675C50.4377 44.4824 50.3126 44.7845 50.0899 45.0072C49.8672 45.2299 49.5651 45.355 49.2502 45.355C48.9352 45.355 48.6332 45.2299 48.4105 45.0072C48.1878 44.7845 48.0627 44.4824 48.0627 44.1675C48.0627 43.8525 48.1878 43.5505 48.4105 43.3278C48.6332 43.1051 48.9352 42.98 49.2502 42.98ZM35.0002 47.6112C35.3151 47.6112 35.6172 47.7363 35.8399 47.959C36.0626 48.1817 36.1877 48.4838 36.1877 48.7987C36.1877 49.1137 36.0626 49.4157 35.8399 49.6384C35.6172 49.8611 35.3151 49.9862 35.0002 49.9862C34.6852 49.9862 34.3832 49.8611 34.1605 49.6384C33.9378 49.4157 33.8127 49.1137 33.8127 48.7987C33.8127 48.4838 33.9378 48.1817 34.1605 47.959C34.3832 47.7363 34.6852 47.6112 35.0002 47.6112ZM39.7502 47.6112C40.0651 47.6112 40.3672 47.7363 40.5899 47.959C40.8126 48.1817 40.9377 48.4838 40.9377 48.7987C40.9377 49.1137 40.8126 49.4157 40.5899 49.6384C40.3672 49.8611 40.0651 49.9862 39.7502 49.9862C39.4352 49.9862 39.1332 49.8611 38.9105 49.6384C38.6878 49.4157 38.5627 49.1137 38.5627 48.7987C38.5627 48.4838 38.6878 48.1817 38.9105 47.959C39.1332 47.7363 39.4352 47.6112 39.7502 47.6112ZM44.5002 52.2425C44.8151 52.2425 45.1172 52.3676 45.3399 52.5903C45.5626 52.813 45.6877 53.115 45.6877 53.43C45.6877 53.7449 45.5626 54.047 45.3399 54.2697C45.1172 54.4924 44.8151 54.6175 44.5002 54.6175C44.1852 54.6175 43.8832 54.4924 43.6605 54.2697C43.4378 54.047 43.3127 53.7449 43.3127 53.43C43.3127 53.115 43.4378 52.813 43.6605 52.5903C43.8832 52.3676 44.1852 52.2425 44.5002 52.2425ZM49.2502 52.2425C49.5651 52.2425 49.8672 52.3676 50.0899 52.5903C50.3126 52.813 50.4377 53.115 50.4377 53.43C50.4377 53.7449 50.3126 54.047 50.0899 54.2697C49.8672 54.4924 49.5651 54.6175 49.2502 54.6175C48.9352 54.6175 48.6332 54.4924 48.4105 54.2697C48.1878 54.047 48.0627 53.7449 48.0627 53.43C48.0627 53.115 48.1878 52.813 48.4105 52.5903C48.6332 52.3676 48.9352 52.2425 49.2502 52.2425ZM35.0002 56.8737C35.3151 56.8737 35.6172 56.9988 35.8399 57.2215C36.0626 57.4442 36.1877 57.7463 36.1877 58.0612C36.1877 58.3762 36.0626 58.6782 35.8399 58.9009C35.6172 59.1236 35.3151 59.2487 35.0002 59.2487C34.6852 59.2487 34.3832 59.1236 34.1605 58.9009C33.9378 58.6782 33.8127 58.3762 33.8127 58.0612C33.8127 57.7463 33.9378 57.4442 34.1605 57.2215C34.3832 56.9988 34.6852 56.8737 35.0002 56.8737ZM39.7502 56.8737C40.0651 56.8737 40.3672 56.9988 40.5899 57.2215C40.8126 57.4442 40.9377 57.7463 40.9377 58.0612C40.9377 58.3762 40.8126 58.6782 40.5899 58.9009C40.3672 59.1236 40.0651 59.2487 39.7502 59.2487C39.4352 59.2487 39.1332 59.1236 38.9105 58.9009C38.6878 58.6782 38.5627 58.3762 38.5627 58.0612C38.5627 57.7463 38.6878 57.4442 38.9105 57.2215C39.1332 56.9988 39.4352 56.8737 39.7502 56.8737ZM49.2502 56.8737C49.5651 56.8737 49.8672 56.9988 50.0899 57.2215C50.3126 57.4442 50.4377 57.7463 50.4377 58.0612C50.4377 58.3762 50.3126 58.6782 50.0899 58.9009C49.8672 59.1236 49.5651 59.2487 49.2502 59.2487C48.9352 59.2487 48.6332 59.1236 48.4105 58.9009C48.1878 58.6782 48.0627 58.3762 48.0627 58.0612C48.0627 57.7463 48.1878 57.4442 48.4105 57.2215C48.6332 56.9988 48.9352 56.8737 49.2502 56.8737ZM35.0002 61.505C35.3151 61.505 35.6172 61.6301 35.8399 61.8528C36.0626 62.0755 36.1877 62.3775 36.1877 62.6925C36.1877 63.0074 36.0626 63.3095 35.8399 63.5322C35.6172 63.7549 35.3151 63.88 35.0002 63.88C34.6852 63.88 34.3832 63.7549 34.1605 63.5322C33.9378 63.3095 33.8127 63.0074 33.8127 62.6925C33.8127 62.3775 33.9378 62.0755 34.1605 61.8528C34.3832 61.6301 34.6852 61.505 35.0002 61.505ZM44.5002 61.505C44.8151 61.505 45.1172 61.6301 45.3399 61.8528C45.5626 62.0755 45.6877 62.3775 45.6877 62.6925C45.6877 63.0074 45.5626 63.3095 45.3399 63.5322C45.1172 63.7549 44.8151 63.88 44.5002 63.88C44.1852 63.88 43.8832 63.7549 43.6605 63.5322C43.4378 63.3095 43.3127 63.0074 43.3127 62.6925C43.3127 62.3775 43.4378 62.0755 43.6605 61.8528C43.8832 61.6301 44.1852 61.505 44.5002 61.505ZM49.2502 61.505C49.5651 61.505 49.8672 61.6301 50.0899 61.8528C50.3126 62.0755 50.4377 62.3775 50.4377 62.6925C50.4377 63.0074 50.3126 63.3095 50.0899 63.5322C49.8672 63.7549 49.5651 63.88 49.2502 63.88C48.9352 63.88 48.6332 63.7549 48.4105 63.5322C48.1878 63.3095 48.0627 63.0074 48.0627 62.6925C48.0627 62.3775 48.1878 62.0755 48.4105 61.8528C48.6332 61.6301 48.9352 61.505 49.2502 61.505ZM58.7502 33.7175C59.0651 33.7175 59.3672 33.8426 59.5899 34.0653C59.8126 34.288 59.9377 34.59 59.9377 34.905C59.9377 35.2199 59.8126 35.522 59.5899 35.7447C59.3672 35.9674 59.0651 36.0925 58.7502 36.0925C58.4352 36.0925 58.1332 35.9674 57.9105 35.7447C57.6878 35.522 57.5627 35.2199 57.5627 34.905C57.5627 34.59 57.6878 34.288 57.9105 34.0653C58.1332 33.8426 58.4352 33.7175 58.7502 33.7175ZM63.5002 33.7175C63.8151 33.7175 64.1172 33.8426 64.3399 34.0653C64.5626 34.288 64.6877 34.59 64.6877 34.905C64.6877 35.2199 64.5626 35.522 64.3399 35.7447C64.1172 35.9674 63.8151 36.0925 63.5002 36.0925C63.1852 36.0925 62.8832 35.9674 62.6605 35.7447C62.4378 35.522 62.3127 35.2199 62.3127 34.905C62.3127 34.59 62.4378 34.288 62.6605 34.0653C62.8832 33.8426 63.1852 33.7175 63.5002 33.7175ZM73.0002 33.7175C73.3151 33.7175 73.6172 33.8426 73.8399 34.0653C74.0626 34.288 74.1877 34.59 74.1877 34.905C74.1877 35.2199 74.0626 35.522 73.8399 35.7447C73.6172 35.9674 73.3151 36.0925 73.0002 36.0925C72.6852 36.0925 72.3832 35.9674 72.1605 35.7447C71.9378 35.522 71.8127 35.2199 71.8127 34.905C71.8127 34.59 71.9378 34.288 72.1605 34.0653C72.3832 33.8426 72.6852 33.7175 73.0002 33.7175ZM68.2502 38.3487C68.5651 38.3487 68.8672 38.4738 69.0899 38.6965C69.3126 38.9192 69.4377 39.2213 69.4377 39.5362C69.4377 39.8512 69.3126 40.1532 69.0899 40.3759C68.8672 40.5986 68.5651 40.7237 68.2502 40.7237C67.9352 40.7237 67.6332 40.5986 67.4105 40.3759C67.1878 40.1532 67.0627 39.8512 67.0627 39.5362C67.0627 39.2213 67.1878 38.9192 67.4105 38.6965C67.6332 38.4738 67.9352 38.3487 68.2502 38.3487ZM73.0002 38.3487C73.3151 38.3487 73.6172 38.4738 73.8399 38.6965C74.0626 38.9192 74.1877 39.2213 74.1877 39.5362C74.1877 39.8512 74.0626 40.1532 73.8399 40.3759C73.6172 40.5986 73.3151 40.7237 73.0002 40.7237C72.6852 40.7237 72.3832 40.5986 72.1605 40.3759C71.9378 40.1532 71.8127 39.8512 71.8127 39.5362C71.8127 39.2213 71.9378 38.9192 72.1605 38.6965C72.3832 38.4738 72.6852 38.3487 73.0002 38.3487ZM58.7502 42.98C59.0651 42.98 59.3672 43.1051 59.5899 43.3278C59.8126 43.5505 59.9377 43.8525 59.9377 44.1675C59.9377 44.4824 59.8126 44.7845 59.5899 45.0072C59.3672 45.2299 59.0651 45.355 58.7502 45.355C58.4352 45.355 58.1332 45.2299 57.9105 45.0072C57.6878 44.7845 57.5627 44.4824 57.5627 44.1675C57.5627 43.8525 57.6878 43.5505 57.9105 43.3278C58.1332 43.1051 58.4352 42.98 58.7502 42.98ZM63.5002 42.98C63.8151 42.98 64.1172 43.1051 64.3399 43.3278C64.5626 43.5505 64.6877 43.8525 64.6877 44.1675C64.6877 44.4824 64.5626 44.7845 64.3399 45.0072C64.1172 45.2299 63.8151 45.355 63.5002 45.355C63.1852 45.355 62.8832 45.2299 62.6605 45.0072C62.4378 44.7845 62.3127 44.4824 62.3127 44.1675C62.3127 43.8525 62.4378 43.5505 62.6605 43.3278C62.8832 43.1051 63.1852 42.98 63.5002 42.98ZM58.7502 47.6112C59.0651 47.6112 59.3672 47.7363 59.5899 47.959C59.8126 48.1817 59.9377 48.4838 59.9377 48.7987C59.9377 49.1137 59.8126 49.4157 59.5899 49.6384C59.3672 49.8611 59.0651 49.9862 58.7502 49.9862C58.4352 49.9862 58.1332 49.8611 57.9105 49.6384C57.6878 49.4157 57.5627 49.1137 57.5627 48.7987C57.5627 48.4838 57.6878 48.1817 57.9105 47.959C58.1332 47.7363 58.4352 47.6112 58.7502 47.6112ZM68.2502 47.6112C68.5651 47.6112 68.8672 47.7363 69.0899 47.959C69.3126 48.1817 69.4377 48.4838 69.4377 48.7987C69.4377 49.1137 69.3126 49.4157 69.0899 49.6384C68.8672 49.8611 68.5651 49.9862 68.2502 49.9862C67.9352 49.9862 67.6332 49.8611 67.4105 49.6384C67.1878 49.4157 67.0627 49.1137 67.0627 48.7987C67.0627 48.4838 67.1878 48.1817 67.4105 47.959C67.6332 47.7363 67.9352 47.6112 68.2502 47.6112ZM73.0002 47.6112C73.3151 47.6112 73.6172 47.7363 73.8399 47.959C74.0626 48.1817 74.1877 48.4838 74.1877 48.7987C74.1877 49.1137 74.0626 49.4157 73.8399 49.6384C73.6172 49.8611 73.3151 49.9862 73.0002 49.9862C72.6852 49.9862 72.3832 49.8611 72.1605 49.6384C71.9378 49.4157 71.8127 49.1137 71.8127 48.7987C71.8127 48.4838 71.9378 48.1817 72.1605 47.959C72.3832 47.7363 72.6852 47.6112 73.0002 47.6112ZM58.7502 52.2425C59.0651 52.2425 59.3672 52.3676 59.5899 52.5903C59.8126 52.813 59.9377 53.115 59.9377 53.43C59.9377 53.7449 59.8126 54.047 59.5899 54.2697C59.3672 54.4924 59.0651 54.6175 58.7502 54.6175C58.4352 54.6175 58.1332 54.4924 57.9105 54.2697C57.6878 54.047 57.5627 53.7449 57.5627 53.43C57.5627 53.115 57.6878 52.813 57.9105 52.5903C58.1332 52.3676 58.4352 52.2425 58.7502 52.2425ZM63.5002 52.2425C63.8151 52.2425 64.1172 52.3676 64.3399 52.5903C64.5626 52.813 64.6877 53.115 64.6877 53.43C64.6877 53.7449 64.5626 54.047 64.3399 54.2697C64.1172 54.4924 63.8151 54.6175 63.5002 54.6175C63.1852 54.6175 62.8832 54.4924 62.6605 54.2697C62.4378 54.047 62.3127 53.7449 62.3127 53.43C62.3127 53.115 62.4378 52.813 62.6605 52.5903C62.8832 52.3676 63.1852 52.2425 63.5002 52.2425ZM73.0002 52.2425C73.3151 52.2425 73.6172 52.3676 73.8399 52.5903C74.0626 52.813 74.1877 53.115 74.1877 53.43C74.1877 53.7449 74.0626 54.047 73.8399 54.2697C73.6172 54.4924 73.3151 54.6175 73.0002 54.6175C72.6852 54.6175 72.3832 54.4924 72.1605 54.2697C71.9378 54.047 71.8127 53.7449 71.8127 53.43C71.8127 53.115 71.9378 52.813 72.1605 52.5903C72.3832 52.3676 72.6852 52.2425 73.0002 52.2425ZM68.2502 56.8737C68.5651 56.8737 68.8672 56.9988 69.0899 57.2215C69.3126 57.4442 69.4377 57.7463 69.4377 58.0612C69.4377 58.3762 69.3126 58.6782 69.0899 58.9009C68.8672 59.1236 68.5651 59.2487 68.2502 59.2487C67.9352 59.2487 67.6332 59.1236 67.4105 58.9009C67.1878 58.6782 67.0627 58.3762 67.0627 58.0612C67.0627 57.7463 67.1878 57.4442 67.4105 57.2215C67.6332 56.9988 67.9352 56.8737 68.2502 56.8737ZM73.0002 56.8737C73.3151 56.8737 73.6172 56.9988 73.8399 57.2215C74.0626 57.4442 74.1877 57.7463 74.1877 58.0612C74.1877 58.3762 74.0626 58.6782 73.8399 58.9009C73.6172 59.1236 73.3151 59.2487 73.0002 59.2487C72.6852 59.2487 72.3832 59.1236 72.1605 58.9009C71.9378 58.6782 71.8127 58.3762 71.8127 58.0612C71.8127 57.7463 71.9378 57.4442 72.1605 57.2215C72.3832 56.9988 72.6852 56.8737 73.0002 56.8737ZM58.7502 61.505C59.0651 61.505 59.3672 61.6301 59.5899 61.8528C59.8126 62.0755 59.9377 62.3775 59.9377 62.6925C59.9377 63.0074 59.8126 63.3095 59.5899 63.5322C59.3672 63.7549 59.0651 63.88 58.7502 63.88C58.4352 63.88 58.1332 63.7549 57.9105 63.5322C57.6878 63.3095 57.5627 63.0074 57.5627 62.6925C57.5627 62.3775 57.6878 62.0755 57.9105 61.8528C58.1332 61.6301 58.4352 61.505 58.7502 61.505ZM63.5002 61.505C63.8151 61.505 64.1172 61.6301 64.3399 61.8528C64.5626 62.0755 64.6877 62.3775 64.6877 62.6925C64.6877 63.0074 64.5626 63.3095 64.3399 63.5322C64.1172 63.7549 63.8151 63.88 63.5002 63.88C63.1852 63.88 62.8832 63.7549 62.6605 63.5322C62.4378 63.3095 62.3127 63.0074 62.3127 62.6925C62.3127 62.3775 62.4378 62.0755 62.6605 61.8528C62.8832 61.6301 63.1852 61.505 63.5002 61.505ZM73.0002 61.505C73.3151 61.505 73.6172 61.6301 73.8399 61.8528C74.0626 62.0755 74.1877 62.3775 74.1877 62.6925C74.1877 63.0074 74.0626 63.3095 73.8399 63.5322C73.6172 63.7549 73.3151 63.88 73.0002 63.88C72.6852 63.88 72.3832 63.7549 72.1605 63.5322C71.9378 63.3095 71.8127 63.0074 71.8127 62.6925C71.8127 62.3775 71.9378 62.0755 72.1605 61.8528C72.3832 61.6301 72.6852 61.505 73.0002 61.505Z" fill="white"/>
</svg>
