<svg width="22" height="21" viewBox="0 0 22 21" fill="none" xmlns="http://www.w3.org/2000/svg">
<path d="M21.597 10.5516C17.3623 9.45215 16.5486 8.68718 15.3801 4.70715C15.3141 4.48318 15.0975 4.32806 14.85 4.32806C14.6024 4.32806 14.3859 4.48319 14.3199 4.70715C13.1514 8.68711 12.3376 9.45207 8.10295 10.5516C7.86471 10.6137 7.69971 10.8173 7.69971 11.05C7.69971 11.2827 7.86472 11.4863 8.10295 11.5483C12.3376 12.6468 13.1502 13.4118 14.3199 17.3928C14.3859 17.6167 14.6024 17.7719 14.85 17.7719C15.0975 17.7719 15.3141 17.6167 15.3801 17.3928C16.5496 13.4118 17.3623 12.6479 21.597 11.5483C21.8352 11.4863 22.0002 11.2827 22.0002 11.05C22.0002 10.8173 21.8352 10.6137 21.597 10.5516Z" fill="#09B5EA"/>
<path d="M2.42961 4.89333C5.00588 5.56232 5.46057 5.9899 6.17132 8.41089C6.23732 8.63485 6.45493 8.78997 6.70142 8.78997C6.94791 8.78997 7.16655 8.63484 7.23152 8.41089C7.94211 5.98992 8.39694 5.56224 10.9732 4.89333C11.2115 4.83128 11.3765 4.62768 11.3765 4.39498C11.3765 4.16229 11.2115 3.95869 10.9732 3.89664C8.39697 3.22765 7.94227 2.80007 7.23152 0.379083C7.16655 0.155118 6.94894 0 6.70142 0C6.4539 0 6.23732 0.155128 6.17132 0.379083C5.4597 2.80101 5.00487 3.22773 2.42961 3.89664C2.19137 3.95869 2.02637 4.16229 2.02637 4.39498C2.02637 4.62768 2.19138 4.83128 2.42961 4.89333Z" fill="#09B5EA"/>
<path d="M9.49762 15.5311C6.76156 14.8214 6.23563 14.3269 5.48053 11.7557C5.41453 11.5317 5.19795 11.3766 4.95043 11.3766C4.70291 11.3766 4.48633 11.5317 4.42033 11.7557C3.66538 14.3268 3.1394 14.8215 0.40324 15.5311C0.165003 15.5932 0 15.7968 0 16.0295C0 16.2622 0.165013 16.4658 0.40324 16.5278C3.13929 17.2385 3.66522 17.732 4.42033 20.3033C4.48633 20.5272 4.70291 20.6823 4.95043 20.6823C5.19795 20.6823 5.41453 20.5272 5.48053 20.3033C6.23547 17.7311 6.76146 17.2374 9.49762 16.5278C9.73585 16.4658 9.90086 16.2622 9.90086 16.0295C9.90086 15.7968 9.73481 15.5932 9.49762 15.5311Z" fill="#09B5EA"/>
</svg>
