<svg width="34" height="41" viewBox="0 0 34 41" fill="none" xmlns="http://www.w3.org/2000/svg">
<g clip-path="url(#clip0_138_230)">
<path d="M33.7403 20.2017C34.085 20.2656 34.0903 20.7131 33.7456 20.7824L24.5669 22.6257C21.2634 23.2916 18.6969 26.7491 18.2674 31.1016L17.3236 40.7283C17.2865 41.0906 16.7085 41.0906 16.6714 40.7283L15.7275 31.1016C15.3033 26.7491 12.7316 23.2916 9.42807 22.6257L0.254643 20.7824C-0.0900232 20.7131 -0.0847207 20.2656 0.259946 20.2017L9.33792 18.5288C12.6891 17.9109 15.3086 14.4267 15.7328 10.0156L16.6767 0.2717C16.7138 -0.0905665 17.2918 -0.0905665 17.3289 0.2717L18.2674 10.0262C18.6916 14.432 21.3111 17.9215 24.6623 18.5395L33.7403 20.2123V20.2017Z" fill="#07B5E7"/>
</g>
<defs>
<clipPath id="clip0_138_230">
<rect width="34" height="41" fill="white"/>
</clipPath>
</defs>
</svg>
