<svg width="24" height="25" viewBox="0 0 24 25" fill="none" xmlns="http://www.w3.org/2000/svg">
<path d="M22.8999 12.6061C18.4097 11.2925 17.5469 10.3786 16.3078 5.62367C16.2378 5.3561 16.0082 5.17078 15.7457 5.17078C15.4833 5.17078 15.2536 5.35611 15.1837 5.62367C13.9447 10.3786 13.0818 11.2925 8.59163 12.6061C8.33902 12.6802 8.16406 12.9235 8.16406 13.2015C8.16406 13.4795 8.33903 13.7227 8.59163 13.7968C13.0818 15.1092 13.9435 16.0231 15.1837 20.7793C15.2536 21.0468 15.4833 21.2322 15.7457 21.2322C16.0082 21.2322 16.2378 21.0468 16.3078 20.7793C17.5479 16.0232 18.4097 15.1105 22.8999 13.7968C23.1525 13.7227 23.3274 13.4795 23.3274 13.2015C23.3274 12.9235 23.1525 12.6802 22.8999 12.6061Z" fill="#09B5EA"/>
<path d="M2.57601 5.84609C5.30772 6.64533 5.78986 7.15617 6.54349 10.0485C6.61348 10.3161 6.84421 10.5014 7.10557 10.5014C7.36694 10.5014 7.59877 10.3161 7.66766 10.0485C8.42113 7.15619 8.9034 6.64524 11.6351 5.84609C11.8878 5.77196 12.0627 5.52871 12.0627 5.25071C12.0627 4.97271 11.8877 4.72947 11.6351 4.65534C8.90343 3.8561 8.42129 3.34526 7.66766 0.452893C7.59877 0.185321 7.36803 0 7.10557 0C6.84312 0 6.61348 0.185332 6.54349 0.452893C5.78893 3.34639 5.30666 3.85618 2.57601 4.65534C2.3234 4.72947 2.14844 4.97271 2.14844 5.25071C2.14844 5.52871 2.32341 5.77196 2.57601 5.84609Z" fill="#09B5EA"/>
<path d="M10.0707 18.5551C7.16954 17.7072 6.61188 17.1165 5.81121 14.0446C5.74123 13.777 5.51158 13.5917 5.24913 13.5917C4.98667 13.5917 4.75703 13.777 4.68704 14.0446C3.88655 17.1163 3.32882 17.7073 0.427571 18.5551C0.174959 18.6292 0 18.8725 0 19.1505C0 19.4285 0.17497 19.6717 0.427571 19.7459C3.32871 20.5949 3.88638 21.1845 4.68704 24.2564C4.75703 24.524 4.98667 24.7093 5.24913 24.7093C5.51158 24.7093 5.74123 24.524 5.81121 24.2564C6.61171 21.1834 7.16943 20.5936 10.0707 19.7459C10.3233 19.6717 10.4983 19.4285 10.4983 19.1505C10.4983 18.8725 10.3222 18.6292 10.0707 18.5551Z" fill="#09B5EA"/>
</svg>
