<svg width="24" height="24" viewBox="0 0 24 24" fill="none" xmlns="http://www.w3.org/2000/svg">
<g clip-path="url(#clip0_53_306)">
<path d="M11.9997 23.9994C18.627 23.9994 23.9994 18.627 23.9994 11.9997C23.9994 5.37246 18.627 0 11.9997 0C5.37246 0 0 5.37246 0 11.9997C0 18.627 5.37246 23.9994 11.9997 23.9994Z" fill="#06B5EE"/>
<path d="M9.91129 17.3152C9.66079 17.3152 9.42155 17.2066 9.25718 17.0158L6.69309 14.048C6.38124 13.6867 6.42064 13.1412 6.78203 12.8288C7.14343 12.5169 7.68889 12.5563 8.00131 12.9177L9.86738 15.0771L15.9643 7.02565C16.2526 6.64512 16.7947 6.57025 17.1752 6.85846C17.5557 7.14668 17.6306 7.68877 17.3424 8.0693L10.6003 16.9718C10.4427 17.1796 10.2001 17.3057 9.93888 17.3141C9.92931 17.3141 9.9203 17.3141 9.91073 17.3141L9.91129 17.3152Z" fill="white"/>
</g>
<defs>
<clipPath id="clip0_53_306">
<rect width="24" height="24" fill="white"/>
</clipPath>
</defs>
</svg>
