<svg width="52" height="26" viewBox="0 0 52 26" fill="none" xmlns="http://www.w3.org/2000/svg">
<g clip-path="url(#clip0_58_6980)">
<path d="M0.000826078 13.9742C0.000826078 15.7937 0.992162 17.4627 2.64115 18.76C3.26125 19.248 0.46521 23.8568 1.25494 24.2285C2.04328 24.6003 6.4174 20.735 7.33783 20.9664C8.61002 21.2862 9.99205 21.462 11.4353 21.462C17.7503 21.462 22.8711 18.1101 22.8711 13.9754C22.8711 9.84083 17.7517 6.48889 11.4353 6.48889C5.11879 6.48889 -0.000565654 9.84083 -0.000565654 13.9754L0.000826078 13.9742Z" fill="#939598"/>
<path d="M0.585374 13.4432C0.585374 15.2626 1.57671 16.9304 3.22569 18.2289C3.8458 18.717 1.04976 23.3258 1.83949 23.6975C2.62783 24.0692 7.00195 20.2039 7.92377 20.4353C9.19596 20.7552 10.578 20.9297 12.0212 20.9297C18.3363 20.9297 23.457 17.5778 23.457 13.4432C23.457 9.30855 18.3377 5.9566 12.0212 5.9566C5.70473 5.9566 0.585374 9.30855 0.585374 13.4432Z" fill="url(#paint0_linear_58_6980)"/>
<path d="M35.0255 0.531067C44.0796 0.531067 51.418 5.33581 51.418 11.2634C51.418 13.8718 49.997 16.2628 47.6334 18.124C46.7435 18.8245 50.752 25.431 49.6216 25.9646C48.4912 26.4969 42.2206 20.9563 40.8998 21.2876C39.0756 21.7466 37.0957 21.9969 35.0255 21.9969C25.9713 21.9969 18.6329 17.1909 18.6329 11.2634C18.6329 5.33581 25.9713 0.531067 35.0255 0.531067ZM24.2737 14.1298C24.2737 15.1261 25.1621 15.9341 26.2578 15.9341H45.5103C46.6059 15.9341 47.4943 15.1261 47.4943 14.1298V6.70137C47.4943 5.70502 46.6059 4.89706 45.5103 4.89706H26.2564C25.1607 4.89706 24.2723 5.70502 24.2723 6.70137V14.1298H24.2737Z" fill="#939598"/>
<path d="M35.6075 0C44.6602 0 52 4.80601 52 10.7336C52 13.342 50.579 15.733 48.2154 17.593C47.3256 18.2934 51.334 24.9 50.2036 25.4335C49.0733 25.9659 42.8027 20.4252 41.4818 20.7565C39.6576 21.2155 37.6778 21.4658 35.6075 21.4658C26.5534 21.4658 19.215 16.6598 19.215 10.7323C19.215 4.80475 26.5534 0 35.6075 0ZM26.1279 14.8618H45.8963C46.1006 14.8618 46.2661 14.7114 46.2661 14.5268C46.2661 14.3422 46.1006 14.1904 45.8963 14.1904H26.1279C25.9235 14.1904 25.7581 14.3409 25.7581 14.5268C25.7581 14.7126 25.9235 14.8618 26.1279 14.8618ZM26.1279 12.7389H45.8963C46.1006 12.7389 46.2661 12.5884 46.2661 12.4038C46.2661 12.2192 46.1006 12.0675 45.8963 12.0675H26.1279C25.9235 12.0675 25.7581 12.218 25.7581 12.4038C25.7581 12.5897 25.9235 12.7389 26.1279 12.7389ZM26.1279 10.6172H45.8963C46.1006 10.6172 46.2661 10.4668 46.2661 10.2809C46.2661 10.095 46.1006 9.94456 45.8963 9.94456H26.1279C25.9235 9.94456 25.7581 10.095 25.7581 10.2809C25.7581 10.4668 25.9235 10.6172 26.1279 10.6172ZM26.1279 8.49429H45.8963C46.1006 8.49429 46.2661 8.34382 46.2661 8.15922C46.2661 7.97461 46.1006 7.82289 45.8963 7.82289H26.1279C25.9235 7.82289 25.7581 7.97335 25.7581 8.15922C25.7581 8.34509 25.9235 8.49429 26.1279 8.49429ZM26.1279 6.37261H45.8963C46.1006 6.37261 46.2661 6.22215 46.2661 6.03628C46.2661 5.85041 46.1006 5.69995 45.8963 5.69995H26.1279C25.9235 5.69995 25.7581 5.85041 25.7581 6.03628C25.7581 6.22215 25.9235 6.37261 26.1279 6.37261Z" fill="url(#paint1_linear_58_6980)"/>
</g>
<defs>
<linearGradient id="paint0_linear_58_6980" x1="23.4556" y1="14.8391" x2="0.585375" y2="14.8391" gradientUnits="userSpaceOnUse">
<stop stop-color="#7D9FD3"/>
<stop offset="1" stop-color="#1C75BC"/>
</linearGradient>
<linearGradient id="paint1_linear_58_6980" x1="52" y1="12.7351" x2="19.2136" y2="12.7351" gradientUnits="userSpaceOnUse">
<stop stop-color="#FCBD7A"/>
<stop offset="1" stop-color="#F7941D"/>
</linearGradient>
<clipPath id="clip0_58_6980">
<rect width="52" height="26" fill="white" transform="matrix(-1 0 0 1 52 0)"/>
</clipPath>
</defs>
</svg>
