<svg width="40" height="57" viewBox="0 0 40 57" fill="none" xmlns="http://www.w3.org/2000/svg">
<g clip-path="url(#clip0_58_6996)">
<path d="M27.0898 24.7925V56.9984H40V24.7925H27.0898ZM32.0632 54.3683H29.0998V51.3742H32.0632V54.3683ZM32.0632 48.3817H29.0998V45.3875H32.0632V48.3817ZM32.0632 42.3933H29.0998V39.3992H32.0632V42.3933ZM32.0632 36.405H29.0998V33.4108H32.0632V36.405ZM32.0632 30.4183H29.0998V27.4242H32.0632V30.4183ZM37.99 54.3683H35.0266V51.3742H37.99V54.3683ZM37.99 48.3817H35.0266V45.3875H37.99V48.3817ZM37.99 42.3933H35.0266V39.3992H37.99V42.3933ZM37.99 36.405H35.0266V33.4108H37.99V36.405ZM37.99 30.4183H35.0266V27.4242H37.99V30.4183Z" fill="#939598"/>
<path d="M26.4453 24.4896V56.6954H39.3555V24.4896H26.4453ZM31.4187 54.0654H28.4553V51.0712H31.4187V54.0654ZM31.4187 48.0771H28.4553V45.0829H31.4187V48.0771ZM31.4187 42.0904H28.4553V39.0962H31.4187V42.0904ZM31.4187 36.1021H28.4553V33.1079H31.4187V36.1021ZM31.4187 30.1154H28.4553V27.1212H31.4187V30.1154ZM37.3455 54.0654H34.3821V51.0712H37.3455V54.0654ZM37.3455 48.0771H34.3821V45.0829H37.3455V48.0771ZM37.3455 42.0904H34.3821V39.0962H37.3455V42.0904ZM37.3455 36.1021H34.3821V33.1079H37.3455V36.1021ZM37.3455 30.1154H34.3821V27.1212H37.3455V30.1154Z" fill="url(#paint0_linear_58_6996)"/>
<path d="M0.851562 0.625671V56.9553H24.4145V0.625671H0.851562ZM7.00768 53.3819H3.25798V49.5932H7.00768V53.3819ZM7.00768 45.8029H3.25798V42.0143H7.00768V45.8029ZM7.00768 38.2257H3.25798V34.437H7.00768V38.2257ZM7.00768 30.6468H3.25798V26.8581H7.00768V30.6468ZM7.00768 23.0695H3.25798V19.2808H7.00768V23.0695ZM7.00768 15.4906H3.25798V11.7019H7.00768V15.4906ZM7.00768 7.91329H3.25798V4.12466H7.00768V7.91329ZM14.5071 53.3819H10.7574V49.5932H14.5071V53.3819ZM14.5071 45.8029H10.7574V42.0143H14.5071V45.8029ZM14.5071 38.2257H10.7574V34.437H14.5071V38.2257ZM14.5071 30.6468H10.7574V26.8581H14.5071V30.6468ZM14.5071 23.0695H10.7574V19.2808H14.5071V23.0695ZM14.5071 15.4906H10.7574V11.7019H14.5071V15.4906ZM14.5071 7.91329H10.7574V4.12466H14.5071V7.91329ZM22.0081 53.3819H18.2584V49.5932H22.0081V53.3819ZM22.0081 45.8029H18.2584V42.0143H22.0081V45.8029ZM22.0081 38.2257H18.2584V34.437H22.0081V38.2257ZM22.0081 30.6468H18.2584V26.8581H22.0081V30.6468ZM22.0081 23.0695H18.2584V19.2808H22.0081V23.0695ZM22.0081 15.4906H18.2584V11.7019H22.0081V15.4906ZM22.0081 7.91329H18.2584V4.12466H22.0081V7.91329Z" fill="#939598"/>
<path d="M0 0V56.0946H23.5629V0H0ZM6.15612 52.5228H2.40642V48.7342H6.15612V52.5228ZM6.15612 44.9439H2.40642V41.1553H6.15612V44.9439ZM6.15612 37.3666H2.40642V33.578H6.15612V37.3666ZM6.15612 29.7877H2.40642V25.9991H6.15612V29.7877ZM6.15612 22.2104H2.40642V18.4218H6.15612V22.2104ZM6.15612 14.6332H2.40642V10.8445H6.15612V14.6332ZM6.15612 7.05424H2.40642V3.26561H6.15612V7.05424ZM13.6571 52.5228H9.90745V48.7342H13.6571V52.5228ZM13.6571 44.9439H9.90745V41.1553H13.6571V44.9439ZM13.6571 37.3666H9.90745V33.578H13.6571V37.3666ZM13.6571 29.7877H9.90745V25.9991H13.6571V29.7877ZM13.6571 22.2104H9.90745V18.4218H13.6571V22.2104ZM13.6571 14.6332H9.90745V10.8445H13.6571V14.6332ZM13.6571 7.05424H9.90745V3.26561H13.6571V7.05424ZM21.1565 52.5228H17.4068V48.7342H21.1565V52.5228ZM21.1565 44.9439H17.4068V41.1553H21.1565V44.9439ZM21.1565 37.3666H17.4068V33.578H21.1565V37.3666ZM21.1565 29.7877H17.4068V25.9991H21.1565V29.7877ZM21.1565 22.2104H17.4068V18.4218H21.1565V22.2104ZM21.1565 14.6332H17.4068V10.8445H21.1565V14.6332ZM21.1565 7.05424H17.4068V3.26561H21.1565V7.05424Z" fill="url(#paint1_linear_58_6996)"/>
</g>
<defs>
<linearGradient id="paint0_linear_58_6996" x1="26.4453" y1="40.5925" x2="39.3555" y2="40.5925" gradientUnits="userSpaceOnUse">
<stop stop-color="#FFF685"/>
<stop offset="1" stop-color="#FFF200"/>
</linearGradient>
<linearGradient id="paint1_linear_58_6996" x1="0" y1="28.0481" x2="23.5629" y2="28.0481" gradientUnits="userSpaceOnUse">
<stop stop-color="#FCBD7A"/>
<stop offset="1" stop-color="#F7941D"/>
</linearGradient>
<clipPath id="clip0_58_6996">
<rect width="40" height="57" fill="white"/>
</clipPath>
</defs>
</svg>
