<svg width="55" height="72" viewBox="0 0 55 72" fill="none" xmlns="http://www.w3.org/2000/svg">
<g clip-path="url(#clip0_58_7012)">
<path d="M37.0239 28.9784L36.3479 31.9195C35.7623 31.8608 35.1668 31.8294 34.5655 31.8294C31.7749 31.8294 29.1356 32.4741 26.7872 33.6203L25.0244 31.4101C24.6569 30.9496 23.9829 30.8732 23.521 31.2396L19.1288 34.7255C18.667 35.0919 18.5904 35.764 18.9578 36.2245L20.7383 38.4543C19.0797 40.5157 17.879 42.9571 17.2815 45.6239H14.8073C14.2178 45.6239 13.7383 46.102 13.7383 46.6899V52.288C13.7383 52.8778 14.2178 53.354 14.8073 53.354H17.2815C17.8888 56.0639 19.117 58.5406 20.815 60.6216L19.2035 62.6359C18.836 63.0964 18.9107 63.7665 19.3725 64.1349L23.7608 67.6266C24.2226 67.995 24.8947 67.9186 25.2642 67.4581L26.8972 65.4163C29.2181 66.5293 31.8181 67.1524 34.5655 67.1524C34.6028 67.1524 34.6382 67.1505 34.6755 67.1505L35.2847 69.8192C35.4164 70.3934 35.9902 70.7519 36.566 70.6226L42.0391 69.3784C42.6149 69.2471 42.9745 68.6769 42.8448 68.1028L42.2317 65.4203C44.6351 64.2681 46.7359 62.5889 48.3867 60.5354L50.9434 61.7639C51.476 62.0206 52.1147 61.7972 52.3701 61.2662L54.809 56.2246C55.0644 55.6936 54.8424 55.0567 54.3098 54.8L51.7943 53.5911C52.1088 52.2743 52.2798 50.9027 52.2798 49.4899C52.2798 48.2026 52.1383 46.9485 51.8769 45.7395L54.3923 44.5345C54.9249 44.2798 55.1489 43.6429 54.8935 43.1119L52.4605 38.0663C52.2051 37.5353 51.5664 37.312 51.0338 37.5667L48.6107 38.7286C47.2724 36.9945 45.6197 35.5112 43.7351 34.3728C43.739 34.361 43.7449 34.3493 43.7469 34.3375L44.5821 30.6988C44.7137 30.1247 44.3541 29.5525 43.7783 29.4212L38.3052 28.1711C37.7294 28.0398 37.1556 28.3984 37.0239 28.9725V28.9784ZM34.5655 57.8725C29.9256 57.8725 26.1642 54.1221 26.1642 49.4958C26.1642 44.8696 29.9256 41.1192 34.5655 41.1192C39.2053 41.1192 42.9667 44.8696 42.9667 49.4958C42.9667 54.1221 39.2053 57.8725 34.5655 57.8725Z" fill="#939598"/>
<path d="M35.6724 30.3265L34.9963 33.2676C34.4107 33.2088 33.8152 33.1794 33.2139 33.1794C30.4233 33.1794 27.784 33.8241 25.4356 34.9704L23.6729 32.7601C23.3054 32.2997 22.6313 32.2232 22.1695 32.5897L17.7773 36.0755C17.3154 36.4419 17.2388 37.114 17.6063 37.5745L19.3868 39.8043C17.7281 41.8657 16.5274 44.3072 15.93 46.974H13.4558C12.8643 46.974 12.3867 47.4521 12.3867 48.0399V53.6381C12.3867 54.2259 12.8662 54.704 13.4558 54.704H15.93C16.5372 57.4139 17.7655 59.8887 19.4634 61.9716L17.8519 63.9859C17.4844 64.4464 17.5591 65.1165 18.0209 65.4849L22.4092 68.9766C22.8711 69.345 23.5431 69.2686 23.9126 68.8081L25.5457 66.7664C27.8666 67.8794 30.4665 68.5025 33.2139 68.5025C33.2512 68.5025 33.2866 68.5005 33.3239 68.5005L33.9332 71.1693C34.0648 71.7434 34.6387 72.102 35.2145 71.9726L40.6895 70.7284C41.2653 70.5971 41.6249 70.0269 41.4952 69.4528L40.8821 66.7703C43.2855 65.6181 45.3844 63.9389 47.0371 61.8854L49.5938 63.114C50.1264 63.3687 50.7651 63.1473 51.0205 62.6163L53.4594 57.5746C53.7168 57.0436 53.4928 56.4068 52.9602 56.1501L50.4447 54.9411C50.7592 53.6244 50.9302 52.2527 50.9302 50.84C50.9302 49.5526 50.7887 48.2986 50.5273 47.0896L53.0427 45.8826C53.5753 45.6278 53.7993 44.991 53.5419 44.46L51.109 39.4144C50.8535 38.8834 50.2148 38.66 49.6823 38.9167L47.2592 40.0787C45.9209 38.3446 44.2681 36.8613 42.3835 35.7228C42.3874 35.7111 42.3933 35.6993 42.3953 35.6875L43.2305 32.0488C43.3622 31.4747 43.0025 30.9026 42.4267 30.7713L36.9537 29.5212C36.3779 29.3899 35.804 29.7485 35.6724 30.3226V30.3265ZM33.2159 59.2186C28.576 59.2186 24.8146 55.4682 24.8146 50.8419C24.8146 46.2157 28.576 42.4653 33.2159 42.4653C37.8557 42.4653 41.6171 46.2157 41.6171 50.8419C41.6171 55.4682 37.8557 59.2186 33.2159 59.2186Z" fill="url(#paint0_linear_58_7012)"/>
<path d="M28.7973 2.36122L28.3335 4.37749C27.9326 4.3383 27.5238 4.31674 27.1131 4.31674C25.2009 4.31674 23.393 4.75958 21.7835 5.54532L20.5749 4.03067C20.3233 3.71519 19.8615 3.66229 19.5451 3.91506L16.5344 6.30363C16.218 6.55444 16.165 7.01491 16.4165 7.33038L17.6369 8.85875C16.501 10.2715 15.6776 11.9429 15.2688 13.7731H13.5729C13.168 13.7731 12.8398 14.1003 12.8398 14.5039V18.3405C12.8398 18.7442 13.168 19.0714 13.5729 19.0714H15.2688C15.6855 20.929 16.5266 22.6258 17.69 24.0523L16.5855 25.4318C16.334 25.7473 16.3851 26.2077 16.7015 26.4585L19.7082 28.851C20.0246 29.1018 20.4864 29.0509 20.738 28.7354L21.8562 27.3364C23.446 28.0986 25.2285 28.5258 27.1111 28.5258C27.1367 28.5258 27.1602 28.5258 27.1858 28.5258L27.6044 30.3539C27.6948 30.7478 28.0878 30.9927 28.4809 30.9045L32.2324 30.0522C32.6274 29.962 32.8731 29.5701 32.7846 29.1783L32.3641 27.3403C34.0109 26.5506 35.4494 25.4004 36.5814 23.9935L38.3344 24.8361C38.6999 25.0105 39.1362 24.8577 39.313 24.4952L40.9834 21.0407C41.1584 20.6782 41.007 20.2412 40.6415 20.0649L38.918 19.236C39.1322 18.3347 39.2501 17.3941 39.2501 16.4262C39.2501 15.5444 39.1539 14.6862 38.9731 13.8573L40.6965 13.0304C41.0621 12.856 41.2153 12.4191 41.0385 12.0546L39.372 8.59814C39.1971 8.23369 38.7588 8.08085 38.3933 8.2572L36.7327 9.05274C35.815 7.86335 34.683 6.84835 33.3919 6.06849C33.3939 6.06066 33.3978 6.05282 33.3997 6.04498L33.9736 3.55256C34.064 3.15871 33.8164 2.76682 33.4233 2.67669L29.6737 1.82041C29.2787 1.73027 28.8857 1.97521 28.7953 2.36906L28.7973 2.36122ZM27.1131 22.1595C23.9334 22.1595 21.355 19.5887 21.355 16.4183C21.355 13.2479 23.9334 10.6791 27.1131 10.6791C30.2928 10.6791 32.8711 13.2499 32.8711 16.4183C32.8711 19.5867 30.2928 22.1595 27.1131 22.1595Z" fill="#939598"/>
<path d="M27.8734 3.28413L27.4096 5.30041C27.0087 5.26122 26.6 5.23966 26.1892 5.23966C24.2771 5.23966 22.4691 5.6825 20.8596 6.46824L19.651 4.95358C19.3995 4.63811 18.9377 4.5852 18.6213 4.83797L15.6106 7.22654C15.2942 7.47735 15.2411 7.93783 15.4946 8.2533L16.715 9.78167C15.5791 11.1944 14.7557 12.8658 14.347 14.696H12.651C12.2462 14.696 11.918 15.0232 11.918 15.4268V19.2634C11.918 19.6671 12.2462 19.9943 12.651 19.9943H14.347C14.7636 21.8519 15.6047 23.5488 16.7681 24.9752L15.6636 26.3547C15.4121 26.6702 15.4632 27.1306 15.7796 27.3814L18.7863 29.7739C19.1027 30.0247 19.5646 29.9738 19.8161 29.6583L20.9343 28.2593C22.5241 29.0215 24.3066 29.4487 26.1892 29.4487C26.2148 29.4487 26.2384 29.4487 26.2639 29.4487L26.6825 31.2768C26.7729 31.6707 27.1659 31.9156 27.559 31.8274L31.3105 30.9751C31.7056 30.8849 31.9512 30.4931 31.8628 30.1012L31.4422 28.2632C33.0891 27.4735 34.5276 26.3233 35.6595 24.9165L37.4125 25.759C37.778 25.9334 38.2143 25.7825 38.3912 25.4181L40.0616 21.9636C40.2384 21.6011 40.0852 21.1641 39.7196 20.9878L37.9961 20.1589C38.2104 19.2576 38.3283 18.317 38.3283 17.3491C38.3283 16.4673 38.232 15.6071 38.0512 14.7802L39.7747 13.9533C40.1402 13.7789 40.2935 13.342 40.1166 12.9775L38.4501 9.52106C38.2752 9.15661 37.837 9.00376 37.4714 9.18011L35.8108 9.97565C34.8931 8.78626 33.7611 7.77127 32.47 6.99141C32.472 6.98357 32.4759 6.97573 32.4779 6.96789L33.0517 4.47548C33.1421 4.08163 32.8945 3.68974 32.5015 3.5996L28.7519 2.74332C28.3569 2.65318 27.9638 2.90008 27.8734 3.29197V3.28413ZM26.1892 23.0824C23.0095 23.0824 20.4312 20.5116 20.4312 17.3412C20.4312 14.1708 23.0095 11.6 26.1892 11.6C29.3689 11.6 31.9473 14.1689 31.9473 17.3412C31.9473 20.5136 29.3689 23.0824 26.1892 23.0824Z" fill="url(#paint1_linear_58_7012)"/>
<path d="M8.89931 0.297864L8.65562 1.35988C8.44338 1.33833 8.22917 1.32658 8.01104 1.32658C7.00289 1.32658 6.04977 1.55975 5.20277 1.97319L4.56604 1.17569C4.43241 1.00914 4.19069 0.981709 4.02365 1.11495L2.43773 2.37488C2.27069 2.50812 2.24318 2.74913 2.37681 2.91569L3.01943 3.72102C2.42005 4.46561 1.9877 5.34737 1.77153 6.31142H0.877366C0.66316 6.31142 0.492188 6.48385 0.492188 6.69743L0.492188 8.71958C0.492188 8.93316 0.665125 9.10559 0.877366 9.10559H1.77153C1.99163 10.0853 2.43577 10.9788 3.04891 11.7313L2.46721 12.4582C2.33358 12.6248 2.36109 12.8677 2.52813 12.999L4.11405 14.2589C4.28109 14.3922 4.52281 14.3648 4.65644 14.1982L5.246 13.4614C6.08318 13.8631 7.02254 14.0885 8.01497 14.0885C8.02872 14.0885 8.04051 14.0885 8.05427 14.0885L8.27437 15.0525C8.32154 15.2602 8.52788 15.3895 8.73619 15.3425L10.7132 14.8938C10.9215 14.8468 11.0512 14.6391 11.004 14.4333L10.782 13.4634C11.6506 13.048 12.4091 12.4406 13.0046 11.6999L13.9282 12.1447C14.1208 12.2368 14.3508 12.1565 14.4431 11.9644L15.3235 10.1441C15.4159 9.95207 15.3353 9.72282 15.1427 9.63073L14.2348 9.19377C14.3488 8.71762 14.4097 8.22384 14.4097 7.71242C14.4097 7.24803 14.3586 6.7954 14.2643 6.35844L15.1722 5.92344C15.3648 5.83135 15.4454 5.60014 15.353 5.41007L14.4746 3.58778C14.3822 3.39575 14.1523 3.31542 13.9597 3.40751L13.0852 3.82683C12.6017 3.19981 12.0043 2.66488 11.3244 2.25339C11.3244 2.24947 11.3283 2.24556 11.3283 2.23968L11.6309 0.924884C11.6781 0.717183 11.5484 0.511445 11.3401 0.464418L9.36309 0.0137413C9.15478 -0.0332855 8.94844 0.0960403 8.90127 0.303742L8.89931 0.297864ZM8.01104 10.7339C6.33472 10.7339 4.97677 9.37992 4.97677 7.70851C4.97677 6.03709 6.33472 4.68311 8.01104 4.68311C9.68735 4.68311 11.0453 6.03709 11.0453 7.70851C11.0453 9.37992 9.68735 10.7339 8.01104 10.7339Z" fill="#939598"/>
<path d="M8.41105 0.785778L8.16736 1.8478C7.95512 1.82625 7.74092 1.81645 7.52474 1.81645C6.5166 1.81645 5.56348 2.04962 4.71648 2.46307L4.07975 1.66557C3.94612 1.49902 3.7044 1.47158 3.53736 1.60483L1.95144 2.86476C1.7844 2.998 1.75689 3.23901 1.89052 3.40556L2.53314 4.2109C1.93375 4.95549 1.49945 5.83724 1.28524 6.80129H0.387144C0.172937 6.80129 0 6.97372 0 7.18534L0 9.2075C0 9.42108 0.172937 9.59351 0.387144 9.59351H1.28131C1.50141 10.5732 1.94358 11.4667 2.55869 12.2192L1.97699 12.9461C1.84336 13.1127 1.87087 13.3557 2.03791 13.4869L3.62383 14.7469C3.79087 14.8801 4.03455 14.8527 4.16622 14.6861L4.75578 13.9494C5.59295 14.3511 6.53232 14.5764 7.52474 14.5764C7.5385 14.5764 7.55029 14.5764 7.56405 14.5764L7.78415 15.5404C7.83131 15.7481 8.03963 15.8775 8.24597 15.8304L10.223 15.3817C10.4313 15.3347 10.561 15.129 10.5138 14.9213L10.2917 13.9513C11.1604 13.5359 11.9189 12.9285 12.5144 12.1878L13.438 12.6326C13.6306 12.7247 13.8605 12.6444 13.9529 12.4523L14.8333 10.632C14.9257 10.44 14.8451 10.2107 14.6525 10.1186L13.7446 9.68168C13.8586 9.20553 13.9195 8.70979 13.9195 8.20034C13.9195 7.73595 13.8684 7.28331 13.7741 6.84636L14.682 6.41136C14.8746 6.31926 14.9552 6.09001 14.8628 5.89798L13.9844 4.0757C13.892 3.88367 13.6621 3.80333 13.4695 3.89542L12.595 4.31475C12.1115 3.68773 11.5141 3.1528 10.8341 2.74131C10.8341 2.73739 10.8381 2.73347 10.8381 2.72956L11.1407 1.41476C11.1879 1.20706 11.0582 1.00132 10.8499 0.954294L8.87287 0.503616C8.66456 0.45659 8.45821 0.585916 8.41105 0.793617V0.785778ZM7.52278 11.2199C5.84646 11.2199 4.48851 9.86587 4.48851 8.19446C4.48851 6.52305 5.84646 5.16907 7.52278 5.16907C9.19909 5.16907 10.557 6.52305 10.557 8.19446C10.557 9.86587 9.19909 11.2199 7.52278 11.2199Z" fill="url(#paint2_linear_58_7012)"/>
</g>
<defs>
<linearGradient id="paint0_linear_58_7012" x1="33.0174" y1="72.0001" x2="33.0174" y2="29.4976" gradientUnits="userSpaceOnUse">
<stop stop-color="#F58466"/>
<stop offset="1" stop-color="#ED1C24"/>
</linearGradient>
<linearGradient id="paint1_linear_58_7012" x1="26.0536" y1="31.8412" x2="26.0536" y2="2.71589" gradientUnits="userSpaceOnUse">
<stop stop-color="#FCBD7A"/>
<stop offset="1" stop-color="#F7941D"/>
</linearGradient>
<linearGradient id="paint2_linear_58_7012" x1="7.45203" y1="15.8363" x2="7.45203" y2="0.485981" gradientUnits="userSpaceOnUse">
<stop stop-color="#8D7F77"/>
<stop offset="1" stop-color="#594A42"/>
</linearGradient>
<clipPath id="clip0_58_7012">
<rect width="72" height="55" fill="white" transform="matrix(0 -1 1 0 0 72.0001)"/>
</clipPath>
</defs>
</svg>
