<svg width="24" height="17" viewBox="0 0 24 17" fill="none" xmlns="http://www.w3.org/2000/svg">
<path fill-rule="evenodd" clip-rule="evenodd" d="M3.49739 0.314986C1.63936 0.462697 0.234968 1.99154 0.14452 3.87524C0.0700001 5.42729 0 7.21329 0 8.44619C0 9.69321 0.0716106 11.5061 0.14708 13.0704C0.2368 14.93 1.60904 16.4486 3.44117 16.6198C5.46931 16.8093 8.40379 17 12 17C15.5869 17 18.5154 16.8103 20.543 16.6213C22.3822 16.4498 23.7572 14.9213 23.8457 13.0545C23.9237 11.4075 24 9.52299 24 8.44619C24 7.38097 23.9254 5.52524 23.8482 3.891C23.7589 2.00001 22.3523 0.461672 20.4871 0.313745C18.4908 0.155429 15.6114 0 12 0C8.37928 0 5.49429 0.156238 3.49739 0.314986ZM9.6 4.84176L15.7867 8.44619L9.6 12.0506V4.84176Z" fill="black"/>
</svg>
